%TF.GenerationSoftware,KiCad,Pcbnew,10.0.4*%
%TF.CreationDate,2026-07-16T20:54:55-03:00*%
%TF.ProjectId,modulo_seguidor,6d6f6475-6c6f-45f7-9365-677569646f72,rev?*%
%TF.SameCoordinates,Original*%
%TF.FileFunction,Copper,L2,Bot*%
%TF.FilePolarity,Positive*%
%FSLAX46Y46*%
G04 Gerber Fmt 4.6, Leading zero omitted, Abs format (unit mm)*
G04 Created by KiCad (PCBNEW 10.0.4) date 2026-07-16 20:54:55*
%MOMM*%
%LPD*%
G01*
G04 APERTURE LIST*
G04 Aperture macros list*
%AMRoundRect*
0 Rectangle with rounded corners*
0 $1 Rounding radius*
0 $2 $3 $4 $5 $6 $7 $8 $9 X,Y pos of 4 corners*
0 Add a 4 corners polygon primitive as box body*
4,1,4,$2,$3,$4,$5,$6,$7,$8,$9,$2,$3,0*
0 Add four circle primitives for the rounded corners*
1,1,$1+$1,$2,$3*
1,1,$1+$1,$4,$5*
1,1,$1+$1,$6,$7*
1,1,$1+$1,$8,$9*
0 Add four rect primitives between the rounded corners*
20,1,$1+$1,$2,$3,$4,$5,0*
20,1,$1+$1,$4,$5,$6,$7,0*
20,1,$1+$1,$6,$7,$8,$9,0*
20,1,$1+$1,$8,$9,$2,$3,0*%
G04 Aperture macros list end*
%TA.AperFunction,ComponentPad*%
%ADD10R,1.700000X1.700000*%
%TD*%
%TA.AperFunction,ComponentPad*%
%ADD11C,1.700000*%
%TD*%
%TA.AperFunction,ComponentPad*%
%ADD12C,2.000000*%
%TD*%
%TA.AperFunction,ComponentPad*%
%ADD13O,3.000000X2.600000*%
%TD*%
%TA.AperFunction,ComponentPad*%
%ADD14RoundRect,0.100000X-0.975000X0.975000X-0.975000X-0.975000X0.975000X-0.975000X0.975000X0.975000X0*%
%TD*%
%TA.AperFunction,ComponentPad*%
%ADD15O,2.600000X2.200000*%
%TD*%
%TA.AperFunction,ComponentPad*%
%ADD16R,2.200000X2.200000*%
%TD*%
%TA.AperFunction,ComponentPad*%
%ADD17O,2.600000X2.000000*%
%TD*%
%TA.AperFunction,ComponentPad*%
%ADD18O,2.200000X2.600000*%
%TD*%
%TA.AperFunction,SMDPad,CuDef*%
%ADD19RoundRect,0.250000X-0.625000X0.400000X-0.625000X-0.400000X0.625000X-0.400000X0.625000X0.400000X0*%
%TD*%
%TA.AperFunction,SMDPad,CuDef*%
%ADD20RoundRect,0.250000X-0.400000X-0.625000X0.400000X-0.625000X0.400000X0.625000X-0.400000X0.625000X0*%
%TD*%
%TA.AperFunction,ComponentPad*%
%ADD21O,2.200000X1.800000*%
%TD*%
%TA.AperFunction,ComponentPad*%
%ADD22R,2.600000X2.200000*%
%TD*%
%TA.AperFunction,ComponentPad*%
%ADD23O,2.200000X2.400000*%
%TD*%
%TA.AperFunction,SMDPad,CuDef*%
%ADD24RoundRect,0.250000X0.412500X0.650000X-0.412500X0.650000X-0.412500X-0.650000X0.412500X-0.650000X0*%
%TD*%
%TA.AperFunction,SMDPad,CuDef*%
%ADD25RoundRect,0.250000X-0.412500X-0.650000X0.412500X-0.650000X0.412500X0.650000X-0.412500X0.650000X0*%
%TD*%
%TA.AperFunction,ComponentPad*%
%ADD26O,2.400000X1.800000*%
%TD*%
%TA.AperFunction,ComponentPad*%
%ADD27O,1.800000X2.200000*%
%TD*%
%TA.AperFunction,ComponentPad*%
%ADD28R,1.800000X1.800000*%
%TD*%
%TA.AperFunction,ComponentPad*%
%ADD29C,1.800000*%
%TD*%
%TA.AperFunction,ViaPad*%
%ADD30C,0.600000*%
%TD*%
%TA.AperFunction,ViaPad*%
%ADD31C,2.000000*%
%TD*%
%TA.AperFunction,Conductor*%
%ADD32C,1.000000*%
%TD*%
%TA.AperFunction,Conductor*%
%ADD33C,1.500000*%
%TD*%
G04 APERTURE END LIST*
D10*
%TO.P,J2,1,Pin_1_1*%
%TO.N,unconnected-(J2-Pin_1-Pad1)*%
X144030000Y-129950000D03*
D11*
%TO.P,J2,2,Pin_2_2*%
%TO.N,+5V*%
X141490000Y-129950000D03*
%TO.P,J2,3,Pin_3_3*%
%TO.N,GND*%
X138950000Y-129950000D03*
%TO.P,J2,4,Pin_4_4*%
%TO.N,/TX*%
X136410000Y-129950000D03*
%TO.P,J2,5,Pin_5_5*%
%TO.N,Net-(J2-Pin_5)*%
X133870000Y-129950000D03*
%TO.P,J2,6,Pin_6_6*%
%TO.N,unconnected-(J2-Pin_6-Pad6)*%
X131330000Y-129950000D03*
%TD*%
D12*
%TO.P,SW1,1,1_1*%
%TO.N,GND*%
X122490000Y-119470000D03*
X122490000Y-112970000D03*
%TO.P,SW1,2,2_2*%
%TO.N,/Boton_encendido*%
X126990000Y-119470000D03*
X126990000Y-112970000D03*
%TD*%
D13*
%TO.P,SW2,3,A_3*%
%TO.N,VCC*%
X140920000Y-75170000D03*
%TO.P,SW2,2,B_2*%
%TO.N,Net-(J1-Pin_2)*%
X140920000Y-70570000D03*
D14*
%TO.P,SW2,1,C_1*%
%TO.N,unconnected-(SW2-C-Pad1)*%
X140920000Y-65970000D03*
%TD*%
D15*
%TO.P,D5,1,K_1*%
%TO.N,Net-(D5-K)*%
X100270000Y-117600000D03*
%TO.P,D5,2,A_2*%
%TO.N,GND*%
X100270000Y-125220000D03*
%TD*%
D16*
%TO.P,D3,1,K_1*%
%TO.N,Net-(D3-K)*%
X100280000Y-86600000D03*
D17*
%TO.P,D3,2,A_2*%
%TO.N,GND*%
X100280000Y-78980000D03*
%TD*%
D18*
%TO.P,M2,2,-_2*%
%TO.N,Net-(D6-K)*%
X107240000Y-117640000D03*
%TO.P,M2,1,+_1*%
%TO.N,Net-(D5-K)*%
X104700000Y-117640000D03*
%TD*%
D19*
%TO.P,R6,1*%
%TO.N,Net-(J2-Pin_5)*%
X126860000Y-125610000D03*
%TO.P,R6,2*%
%TO.N,GND*%
X126860000Y-128710000D03*
%TD*%
D20*
%TO.P,R5,1*%
%TO.N,Net-(J2-Pin_5)*%
X130090000Y-125580000D03*
%TO.P,R5,2*%
%TO.N,/RX*%
X133190000Y-125580000D03*
%TD*%
D16*
%TO.P,D4,1,K_1*%
%TO.N,VCC*%
X115260000Y-79010000D03*
D17*
%TO.P,D4,2,A_2*%
%TO.N,Net-(D2-K)*%
X115260000Y-86630000D03*
%TD*%
D15*
%TO.P,J1,1,Pin_1_1*%
%TO.N,GND*%
X132710000Y-68060000D03*
%TO.P,J1,2,Pin_2_2*%
%TO.N,Net-(J1-Pin_2)*%
X132710000Y-70600000D03*
%TD*%
D21*
%TO.P,A1,1,D1/TX_1*%
%TO.N,unconnected-(A1-D1{slash}TX-Pad1)*%
X133144697Y-81302286D03*
%TO.P,A1,2,D0/RX_2*%
%TO.N,unconnected-(A1-D0{slash}RX-Pad2)*%
X133144697Y-83842286D03*
%TO.P,A1,3,~{RESET}_3*%
%TO.N,unconnected-(A1-~{RESET}-Pad3)*%
X133144697Y-86382286D03*
%TO.P,A1,4,GND_4*%
%TO.N,GND*%
X133144697Y-88922286D03*
%TO.P,A1,5,D2_5*%
%TO.N,Net-(A1-D2)*%
X133144697Y-91462286D03*
%TO.P,A1,6,D3_6*%
%TO.N,/Motor IZQ Arduino DIG OUTPUT*%
X133144697Y-94002286D03*
%TO.P,A1,7,D4_7*%
%TO.N,/Motor IZQ Arduino PWM OUTPUT*%
X133144697Y-96542286D03*
%TO.P,A1,8,D5_8*%
%TO.N,unconnected-(A1-D5-Pad8)*%
X133144697Y-99082286D03*
%TO.P,A1,9,D6_9*%
%TO.N,unconnected-(A1-D6-Pad9)*%
X133144697Y-101622286D03*
%TO.P,A1,10,D7_10*%
%TO.N,/Motor DER Arduino DIG OUTPUT*%
X133144697Y-104162286D03*
%TO.P,A1,11,D8_11*%
%TO.N,/Motor DER Arduino PWM OUTPUT*%
X133144697Y-106702286D03*
%TO.P,A1,12,D9_12*%
%TO.N,/Boton_encendido*%
X133144697Y-109242286D03*
%TO.P,A1,13,D10_13*%
%TO.N,unconnected-(A1-D10-Pad13)*%
X133144697Y-111782286D03*
%TO.P,A1,14,D11_14*%
%TO.N,/TX*%
X133144697Y-114322286D03*
%TO.P,A1,15,D12_15*%
%TO.N,/RX*%
X133144697Y-116862286D03*
%TO.P,A1,16,D13_16*%
%TO.N,unconnected-(A1-D13-Pad16)*%
X148384697Y-116862286D03*
%TO.P,A1,17,3V3_17*%
%TO.N,unconnected-(A1-3V3-Pad17)*%
X148384697Y-114322286D03*
%TO.P,A1,18,AREF_18*%
%TO.N,unconnected-(A1-AREF-Pad18)*%
X148384697Y-111782286D03*
%TO.P,A1,19,A0_19*%
%TO.N,unconnected-(A1-A0-Pad19)*%
X148384697Y-109242286D03*
%TO.P,A1,20,A1_20*%
%TO.N,unconnected-(A1-A1-Pad20)*%
X148384697Y-106702286D03*
%TO.P,A1,21,A2_21*%
%TO.N,/Sensor6*%
X148384697Y-104162286D03*
%TO.P,A1,22,A3_22*%
%TO.N,/Sensor5*%
X148384697Y-101622286D03*
%TO.P,A1,23,A4_23*%
%TO.N,/Sensor4*%
X148384697Y-99082286D03*
%TO.P,A1,24,A5_24*%
%TO.N,/Sensor3*%
X148384697Y-96542286D03*
%TO.P,A1,25,A6_25*%
%TO.N,/Sensor2*%
X148384697Y-94002286D03*
%TO.P,A1,26,A7_26*%
%TO.N,/Sensor1*%
X148384697Y-91462286D03*
%TO.P,A1,27,+5V_27*%
%TO.N,+5V*%
X148384697Y-88922286D03*
%TO.P,A1,28,~{RESET}_28*%
%TO.N,unconnected-(A1-~{RESET}-Pad28)*%
X148384697Y-86382286D03*
%TO.P,A1,29,GND_29*%
%TO.N,GND*%
X148384697Y-83842286D03*
%TO.P,A1,30,VIN_30*%
%TO.N,VCC*%
X148384697Y-81302286D03*
%TD*%
D16*
%TO.P,D7,1,K_1*%
%TO.N,VCC*%
X96040000Y-78980000D03*
D17*
%TO.P,D7,2,A_2*%
%TO.N,Net-(D3-K)*%
X96040000Y-86600000D03*
%TD*%
D22*
%TO.P,D9,1,K_1*%
%TO.N,VCC*%
X115240000Y-125260000D03*
D15*
%TO.P,D9,2,A_2*%
%TO.N,Net-(D6-K)*%
X115240000Y-117640000D03*
%TD*%
D10*
%TO.P,J6,1,Pin_1_1*%
%TO.N,/Sensor1*%
X210570000Y-91540000D03*
D11*
%TO.P,J6,2,Pin_2_2*%
%TO.N,/Sensor2*%
X210570000Y-94080000D03*
%TO.P,J6,3,Pin_3_3*%
%TO.N,/Sensor3*%
X210570000Y-96620000D03*
%TO.P,J6,4,Pin_4_4*%
%TO.N,/Sensor4*%
X210570000Y-99160000D03*
%TO.P,J6,5,Pin_5_5*%
%TO.N,/Sensor5*%
X210570000Y-101700000D03*
%TO.P,J6,6,Pin_6_6*%
%TO.N,/Sensor6*%
X210570000Y-104240000D03*
%TO.P,J6,7,Pin_7_7*%
%TO.N,+5V*%
X210570000Y-106780000D03*
%TO.P,J6,8,Pin_8_8*%
%TO.N,GND*%
X210570000Y-109320000D03*
%TD*%
D18*
%TO.P,M1,1,+_1*%
%TO.N,Net-(D2-K)*%
X107250000Y-86600000D03*
%TO.P,M1,2,-_2*%
%TO.N,Net-(D3-K)*%
X104710000Y-86600000D03*
%TD*%
D16*
%TO.P,D2,1,K_1*%
%TO.N,Net-(D2-K)*%
X111300000Y-86630000D03*
D17*
%TO.P,D2,2,A_2*%
%TO.N,GND*%
X111300000Y-79010000D03*
%TD*%
D15*
%TO.P,D6,1,K_1*%
%TO.N,Net-(D6-K)*%
X111380000Y-117640000D03*
%TO.P,D6,2,A_2*%
%TO.N,GND*%
X111380000Y-125260000D03*
%TD*%
D22*
%TO.P,D8,1,K_1*%
%TO.N,VCC*%
X96040000Y-125180000D03*
D15*
%TO.P,D8,2,A_2*%
%TO.N,Net-(D5-K)*%
X96040000Y-117560000D03*
%TD*%
D23*
%TO.P,U1,1,VI_1*%
%TO.N,VCC*%
X119710000Y-96640000D03*
%TO.P,U1,2,GND_2*%
%TO.N,GND*%
X122250000Y-96640000D03*
%TO.P,U1,3,VO_3*%
%TO.N,Salida Regulador*%
X124790000Y-96640000D03*
%TD*%
D24*
%TO.P,C4,1*%
%TO.N,GND*%
X88562500Y-88510000D03*
%TO.P,C4,2*%
%TO.N,VCC*%
X85437500Y-88510000D03*
%TD*%
D19*
%TO.P,R2,1*%
%TO.N,Net-(D1-K)*%
X126020000Y-88980000D03*
%TO.P,R2,2*%
%TO.N,GND*%
X126020000Y-92080000D03*
%TD*%
D25*
%TO.P,C3,1*%
%TO.N,GND*%
X93107500Y-105550000D03*
%TO.P,C3,2*%
%TO.N,Salida Regulador*%
X96232500Y-105550000D03*
%TD*%
D24*
%TO.P,C1,1*%
%TO.N,VCC*%
X143662500Y-81270000D03*
%TO.P,C1,2*%
%TO.N,GND*%
X140537500Y-81270000D03*
%TD*%
D25*
%TO.P,C2,1*%
%TO.N,Salida Regulador*%
X124797500Y-99040000D03*
%TO.P,C2,2*%
%TO.N,GND*%
X127922500Y-99040000D03*
%TD*%
D26*
%TO.P,U2,1,SENSE_A_1*%
%TO.N,Net-(U2-SENSE_A)*%
X106200000Y-92860000D03*
%TO.P,U2,2,OUT1_2*%
%TO.N,Net-(D2-K)*%
X111280000Y-94130000D03*
%TO.P,U2,3,OUT2_3*%
%TO.N,Net-(D3-K)*%
X106200000Y-95400000D03*
%TO.P,U2,4,Vs_4*%
%TO.N,VCC*%
X111280000Y-96670000D03*
%TO.P,U2,5,IN1_5*%
%TO.N,/Motor IZQ Arduino DIG OUTPUT*%
X106200000Y-97940000D03*
%TO.P,U2,6,EnA_6*%
%TO.N,Salida Regulador*%
X111280000Y-99210000D03*
%TO.P,U2,7,IN2_7*%
%TO.N,/Motor IZQ Arduino PWM OUTPUT*%
X106200000Y-100480000D03*
%TO.P,U2,8,GND_8*%
%TO.N,GND*%
X111280000Y-101750000D03*
%TO.P,U2,9,Vss_9*%
%TO.N,Salida Regulador*%
X106200000Y-103020000D03*
%TO.P,U2,10,IN3_10*%
%TO.N,/Motor DER Arduino DIG OUTPUT*%
X111280000Y-104290000D03*
%TO.P,U2,11,EnB_11*%
%TO.N,Salida Regulador*%
X106200000Y-105560000D03*
%TO.P,U2,12,IN4_12*%
%TO.N,/Motor DER Arduino PWM OUTPUT*%
X111280000Y-106830000D03*
%TO.P,U2,13,OUT3_13*%
%TO.N,Net-(D5-K)*%
X106200000Y-108100000D03*
%TO.P,U2,14,OUT4_14*%
%TO.N,Net-(D6-K)*%
X111280000Y-109370000D03*
%TO.P,U2,15,SENSE_B_15*%
%TO.N,Net-(U2-SENSE_B)*%
X106200000Y-110640000D03*
%TD*%
D27*
%TO.P,R3,2*%
%TO.N,GND*%
X92780000Y-92960000D03*
%TO.P,R3,1*%
%TO.N,Net-(U2-SENSE_A)*%
X102940000Y-92960000D03*
%TD*%
%TO.P,R4,1*%
%TO.N,GND*%
X92080000Y-110630000D03*
%TO.P,R4,2*%
%TO.N,Net-(U2-SENSE_B)*%
X102240000Y-110630000D03*
%TD*%
D28*
%TO.P,D1,1,K_1*%
%TO.N,Net-(D1-K)*%
X126015000Y-85230000D03*
D29*
%TO.P,D1,2,A_2*%
%TO.N,Net-(A1-D2)*%
X128555000Y-85230000D03*
%TD*%
D30*
%TO.N,+5V*%
X153540000Y-88910000D03*
X154620000Y-106750000D03*
D31*
%TO.N,/Motor IZQ Arduino PWM OUTPUT*%
X100870000Y-100480000D03*
X136360000Y-96470000D03*
%TO.N,/Motor IZQ Arduino DIG OUTPUT*%
X100900000Y-97900000D03*
X136117437Y-93680524D03*
%TD*%
%TO.N,/Boton_encendido*%
D32*
X126990000Y-112970000D02*
X130717714Y-109242286D01*
X130717714Y-109242286D02*
X133144697Y-109242286D01*
%TO.N,+5V*%
X210570000Y-106780000D02*
X154650000Y-106780000D01*
X154650000Y-106780000D02*
X154620000Y-106750000D01*
X153540000Y-88910000D02*
X148396983Y-88910000D01*
X148396983Y-88910000D02*
X148384697Y-88922286D01*
%TO.N,/RX*%
X133144697Y-116862286D02*
X133144697Y-125534697D01*
X133144697Y-125534697D02*
X133190000Y-125580000D01*
%TO.N,/TX*%
X136410000Y-129950000D02*
X136410000Y-116120000D01*
X136410000Y-116120000D02*
X134612286Y-114322286D01*
X134612286Y-114322286D02*
X133144697Y-114322286D01*
%TO.N,Net-(J2-Pin_5)*%
X130090000Y-125580000D02*
X130090000Y-127190000D01*
X130090000Y-127190000D02*
X130700000Y-127800000D01*
X130700000Y-127800000D02*
X132220560Y-127800000D01*
X132220560Y-127800000D02*
X133870000Y-129449440D01*
X133870000Y-129449440D02*
X133870000Y-129950000D01*
X126860000Y-125610000D02*
X130060000Y-125610000D01*
X130060000Y-125610000D02*
X130090000Y-125580000D01*
%TO.N,VCC*%
X96040000Y-78980000D02*
X90190000Y-78980000D01*
%TO.N,Salida Regulador*%
X96232500Y-105550000D02*
X106190000Y-105550000D01*
X106190000Y-105550000D02*
X106200000Y-105560000D01*
%TO.N,VCC*%
X93370000Y-131050000D02*
X109450000Y-131050000D01*
X93370000Y-131050000D02*
X96040000Y-128380000D01*
X96040000Y-128380000D02*
X96040000Y-125180000D01*
X143662500Y-81270000D02*
X148352411Y-81270000D01*
X148352411Y-81270000D02*
X148384697Y-81302286D01*
%TO.N,Salida Regulador*%
X111280000Y-99210000D02*
X124627500Y-99210000D01*
X124627500Y-99210000D02*
X124797500Y-99040000D01*
X124790000Y-96640000D02*
X124790000Y-99032500D01*
X124790000Y-99032500D02*
X124797500Y-99040000D01*
X124790000Y-99377500D02*
X124747500Y-99420000D01*
%TO.N,Net-(D1-K)*%
X126015000Y-85230000D02*
X126015000Y-88975000D01*
X126015000Y-88975000D02*
X126020000Y-88980000D01*
%TO.N,Net-(A1-D2)*%
X128555000Y-85230000D02*
X128555000Y-87643859D01*
X128555000Y-87643859D02*
X132373427Y-91462286D01*
X132373427Y-91462286D02*
X133144697Y-91462286D01*
%TO.N,/Motor IZQ Arduino DIG OUTPUT*%
X136117437Y-93680524D02*
X136117437Y-93779463D01*
X136117437Y-93779463D02*
X135894614Y-94002286D01*
X135894614Y-94002286D02*
X133144697Y-94002286D01*
%TO.N,/Motor IZQ Arduino PWM OUTPUT*%
X133144697Y-96542286D02*
X136287714Y-96542286D01*
X136287714Y-96542286D02*
X136360000Y-96470000D01*
X100870000Y-100480000D02*
X106200000Y-100480000D01*
%TO.N,/Motor IZQ Arduino DIG OUTPUT*%
X106160000Y-97900000D02*
X106200000Y-97940000D01*
X100900000Y-97900000D02*
X106160000Y-97900000D01*
X133276983Y-93870000D02*
X133144697Y-94002286D01*
X105328730Y-97940000D02*
X106200000Y-97940000D01*
%TO.N,Net-(D5-K)*%
X96040000Y-117560000D02*
X96040000Y-111520000D01*
X96040000Y-111520000D02*
X99460000Y-108100000D01*
X99460000Y-108100000D02*
X106200000Y-108100000D01*
%TO.N,Net-(U2-SENSE_B)*%
X102240000Y-110630000D02*
X106190000Y-110630000D01*
X106190000Y-110630000D02*
X106200000Y-110640000D01*
%TO.N,Net-(D3-K)*%
X96040000Y-86600000D02*
X96040000Y-91680000D01*
X96040000Y-91680000D02*
X99760000Y-95400000D01*
X99760000Y-95400000D02*
X106200000Y-95400000D01*
%TO.N,Net-(U2-SENSE_A)*%
X102940000Y-92960000D02*
X106100000Y-92960000D01*
X106100000Y-92960000D02*
X106200000Y-92860000D01*
%TO.N,Net-(D3-K)*%
X96040000Y-86600000D02*
X100280000Y-86600000D01*
X100280000Y-86600000D02*
X104710000Y-86600000D01*
%TO.N,Net-(D6-K)*%
X107240000Y-117640000D02*
X115240000Y-117640000D01*
X111380000Y-117640000D02*
X111380000Y-109470000D01*
X111380000Y-109470000D02*
X111280000Y-109370000D01*
%TO.N,Net-(D5-K)*%
X96040000Y-117560000D02*
X104620000Y-117560000D01*
X104620000Y-117560000D02*
X104700000Y-117640000D01*
%TO.N,VCC*%
X127780000Y-75170000D02*
X118580000Y-75170000D01*
X118580000Y-75170000D02*
X115260000Y-78490000D01*
X115260000Y-78490000D02*
X115260000Y-79010000D01*
%TO.N,Net-(D2-K)*%
X107250000Y-86600000D02*
X111270000Y-86600000D01*
X111270000Y-86600000D02*
X111300000Y-86630000D01*
X111300000Y-86630000D02*
X115260000Y-86630000D01*
X111300000Y-86630000D02*
X111300000Y-94110000D01*
X111300000Y-94110000D02*
X111280000Y-94130000D01*
%TO.N,VCC*%
X127780000Y-75170000D02*
X140920000Y-75170000D01*
X111280000Y-96670000D02*
X119680000Y-96670000D01*
X119680000Y-96670000D02*
X119710000Y-96640000D01*
%TO.N,/Motor DER Arduino PWM OUTPUT*%
X111280000Y-106830000D02*
X133016983Y-106830000D01*
X133016983Y-106830000D02*
X133144697Y-106702286D01*
%TO.N,/Motor DER Arduino DIG OUTPUT*%
X111280000Y-104290000D02*
X133016983Y-104290000D01*
X133016983Y-104290000D02*
X133144697Y-104162286D01*
%TO.N,VCC*%
X140920000Y-75170000D02*
X144910000Y-75170000D01*
X144910000Y-75170000D02*
X148384697Y-78644697D01*
X148384697Y-78644697D02*
X148384697Y-81302286D01*
%TO.N,Net-(J1-Pin_2)*%
D33*
X132710000Y-70600000D02*
X140890000Y-70600000D01*
D32*
X140890000Y-70600000D02*
X140920000Y-70570000D01*
%TO.N,/Sensor6*%
X148384697Y-104162286D02*
X148652411Y-104430000D01*
X148384697Y-104162286D02*
X210672286Y-104162286D01*
X210672286Y-104162286D02*
X210850000Y-104340000D01*
%TO.N,/Sensor5*%
X148384697Y-101622286D02*
X210672286Y-101622286D01*
X210672286Y-101622286D02*
X210850000Y-101800000D01*
%TO.N,/Sensor4*%
X148384697Y-99082286D02*
X148362411Y-99060000D01*
X148384697Y-99082286D02*
X210672286Y-99082286D01*
X210672286Y-99082286D02*
X210850000Y-99260000D01*
%TO.N,/Sensor3*%
X210672286Y-96542286D02*
X210850000Y-96720000D01*
X148384697Y-96542286D02*
X148674697Y-96832286D01*
X148384697Y-96542286D02*
X210672286Y-96542286D01*
%TO.N,/Sensor2*%
X148384697Y-94002286D02*
X210672286Y-94002286D01*
X210672286Y-94002286D02*
X210850000Y-94180000D01*
X148384697Y-94002286D02*
X148674697Y-94292286D01*
%TO.N,/Sensor1*%
X148384697Y-91462286D02*
X210672286Y-91462286D01*
X148652411Y-91730000D02*
X148384697Y-91462286D01*
X210672286Y-91462286D02*
X210850000Y-91640000D01*
X148384697Y-91462286D02*
X149077714Y-91462286D01*
%TO.N,Salida Regulador*%
X108730000Y-102330000D02*
X108040000Y-103020000D01*
X109980000Y-99210000D02*
X108750000Y-100440000D01*
X108750000Y-100798019D02*
X108730000Y-100818019D01*
X108040000Y-103020000D02*
X106200000Y-103020000D01*
X111280000Y-99210000D02*
X109980000Y-99210000D01*
X108730000Y-100818019D02*
X108730000Y-102330000D01*
X106200000Y-103020000D02*
X106200000Y-105560000D01*
X108750000Y-100440000D02*
X108750000Y-100798019D01*
%TO.N,VCC*%
X119710000Y-96640000D02*
X119710000Y-83240000D01*
X119710000Y-83240000D02*
X127780000Y-75170000D01*
X96040000Y-78980000D02*
X99850000Y-75170000D01*
X99850000Y-75170000D02*
X118580000Y-75170000D01*
X90190000Y-78980000D02*
X85420000Y-83750000D01*
X85420000Y-83750000D02*
X85420000Y-125140000D01*
X85420000Y-125140000D02*
X91330000Y-131050000D01*
X91330000Y-131050000D02*
X93370000Y-131050000D01*
X109450000Y-131050000D02*
X115240000Y-125260000D01*
%TO.N,+5V*%
X145737714Y-88922286D02*
X148384697Y-88922286D01*
X141490000Y-93170000D02*
X145737714Y-88922286D01*
X141490000Y-129950000D02*
X141490000Y-93170000D01*
%TD*%
%TA.AperFunction,Conductor*%
%TO.N,GND*%
G36*
X139076175Y-76490185D02*
G01*
X139107512Y-76519014D01*
X139137370Y-76557926D01*
X139137376Y-76557933D01*
X139332066Y-76752623D01*
X139332072Y-76752628D01*
X139550521Y-76920249D01*
X139703778Y-77008732D01*
X139788971Y-77057919D01*
X139788976Y-77057921D01*
X139788979Y-77057923D01*
X140043368Y-77163295D01*
X140309334Y-77234560D01*
X140582326Y-77270500D01*
X140582333Y-77270500D01*
X141257667Y-77270500D01*
X141257674Y-77270500D01*
X141530666Y-77234560D01*
X141796632Y-77163295D01*
X142051021Y-77057923D01*
X142289479Y-76920249D01*
X142507928Y-76752628D01*
X142702628Y-76557928D01*
X142732488Y-76519014D01*
X142788915Y-76477811D01*
X142830864Y-76470500D01*
X144319953Y-76470500D01*
X144386992Y-76490185D01*
X144407634Y-76506819D01*
X147047878Y-79147062D01*
X147081363Y-79208385D01*
X147084197Y-79234743D01*
X147084197Y-79845500D01*
X147064512Y-79912539D01*
X147011708Y-79958294D01*
X146960197Y-79969500D01*
X144958769Y-79969500D01*
X144891730Y-79949815D01*
X144862915Y-79924164D01*
X144821410Y-79873589D01*
X144703677Y-79776969D01*
X144661450Y-79742315D01*
X144478954Y-79644768D01*
X144280934Y-79584700D01*
X144280932Y-79584699D01*
X144280934Y-79584699D01*
X144161805Y-79572966D01*
X144126608Y-79569500D01*
X143198392Y-79569500D01*
X143160298Y-79573251D01*
X143044067Y-79584699D01*
X142846043Y-79644769D01*
X142764082Y-79688579D01*
X142663550Y-79742315D01*
X142663548Y-79742316D01*
X142663547Y-79742317D01*
X142503589Y-79873589D01*
X142372317Y-80033547D01*
X142274769Y-80216043D01*
X142214699Y-80414067D01*
X142208889Y-80473065D01*
X142201454Y-80548559D01*
X142199500Y-80568395D01*
X142199500Y-81971604D01*
X142214699Y-82125932D01*
X142214700Y-82125934D01*
X142274768Y-82323954D01*
X142372315Y-82506450D01*
X142390783Y-82528953D01*
X142503589Y-82666410D01*
X142594212Y-82740781D01*
X142663550Y-82797685D01*
X142846046Y-82895232D01*
X143044066Y-82955300D01*
X143044065Y-82955300D01*
X143082647Y-82959100D01*
X143198392Y-82970500D01*
X143198395Y-82970500D01*
X144126605Y-82970500D01*
X144126608Y-82970500D01*
X144280934Y-82955300D01*
X144478954Y-82895232D01*
X144661450Y-82797685D01*
X144821410Y-82666410D01*
X144862915Y-82615836D01*
X144920661Y-82576501D01*
X144958769Y-82570500D01*
X147001995Y-82570500D01*
X147023927Y-82576940D01*
X147046707Y-82578842D01*
X147064572Y-82588875D01*
X147069034Y-82590185D01*
X147077481Y-82596124D01*
X147176629Y-82672202D01*
X147217832Y-82728629D01*
X147221987Y-82798375D01*
X147188825Y-82858259D01*
X147116836Y-82930247D01*
X146987310Y-83108525D01*
X146887264Y-83304875D01*
X146819170Y-83514447D01*
X146819170Y-83514450D01*
X146806842Y-83592286D01*
X147951685Y-83592286D01*
X147918772Y-83649293D01*
X147884697Y-83776460D01*
X147884697Y-83908112D01*
X147918772Y-84035279D01*
X147951685Y-84092286D01*
X146806842Y-84092286D01*
X146819170Y-84170121D01*
X146819170Y-84170124D01*
X146887264Y-84379696D01*
X146987310Y-84576046D01*
X147116839Y-84754327D01*
X147188824Y-84826312D01*
X147222309Y-84887635D01*
X147217325Y-84957327D01*
X147176630Y-85012369D01*
X147061067Y-85101043D01*
X146903454Y-85258656D01*
X146903448Y-85258663D01*
X146767755Y-85435503D01*
X146767749Y-85435512D01*
X146656292Y-85628559D01*
X146656290Y-85628563D01*
X146570990Y-85834495D01*
X146570987Y-85834505D01*
X146521283Y-86020006D01*
X146513294Y-86049820D01*
X146513291Y-86049833D01*
X146484198Y-86270819D01*
X146484197Y-86270835D01*
X146484197Y-86493736D01*
X146484198Y-86493752D01*
X146513291Y-86714738D01*
X146513292Y-86714743D01*
X146513293Y-86714749D01*
X146570987Y-86930066D01*
X146570990Y-86930076D01*
X146649864Y-87120494D01*
X146656292Y-87136012D01*
X146767749Y-87329060D01*
X146767754Y-87329066D01*
X146767755Y-87329068D01*
X146839294Y-87422300D01*
X146864488Y-87487469D01*
X146850450Y-87555914D01*
X146801635Y-87605903D01*
X146740918Y-87621786D01*
X145635362Y-87621786D01*
X145510756Y-87641522D01*
X145505383Y-87642373D01*
X145433178Y-87653809D01*
X145238498Y-87717063D01*
X145238495Y-87717064D01*
X145078354Y-87798662D01*
X145078353Y-87798661D01*
X145056102Y-87809999D01*
X144890500Y-87930314D01*
X140498036Y-92322778D01*
X140377713Y-92488388D01*
X140332452Y-92577219D01*
X140284781Y-92670776D01*
X140282410Y-92678074D01*
X140260593Y-92745220D01*
X140250542Y-92776155D01*
X140221522Y-92865467D01*
X140221522Y-92865468D01*
X140205328Y-92967713D01*
X140205328Y-92967714D01*
X140189500Y-93067643D01*
X140189500Y-128891695D01*
X140169815Y-128958734D01*
X140165818Y-128964580D01*
X140078366Y-129084947D01*
X139993535Y-129251435D01*
X139970732Y-129282820D01*
X139432962Y-129820590D01*
X139415925Y-129757007D01*
X139350099Y-129642993D01*
X139257007Y-129549901D01*
X139142993Y-129484075D01*
X139079409Y-129467037D01*
X139711716Y-128834728D01*
X139657550Y-128795375D01*
X139468217Y-128698904D01*
X139266129Y-128633242D01*
X139056246Y-128600000D01*
X138843754Y-128600000D01*
X138633872Y-128633242D01*
X138633869Y-128633242D01*
X138431782Y-128698904D01*
X138242439Y-128795380D01*
X138188282Y-128834727D01*
X138188282Y-128834728D01*
X138820591Y-129467037D01*
X138757007Y-129484075D01*
X138642993Y-129549901D01*
X138549901Y-129642993D01*
X138484075Y-129757007D01*
X138467037Y-129820591D01*
X137929266Y-129282820D01*
X137906463Y-129251435D01*
X137821634Y-129084949D01*
X137777856Y-129024693D01*
X137734182Y-128964580D01*
X137727029Y-128944535D01*
X137715523Y-128926630D01*
X137712068Y-128902603D01*
X137710702Y-128898774D01*
X137710500Y-128891695D01*
X137710500Y-116227487D01*
X137710501Y-116227462D01*
X137710501Y-116017650D01*
X137708983Y-116008066D01*
X137678477Y-115815466D01*
X137678476Y-115815462D01*
X137678476Y-115815461D01*
X137615222Y-115620784D01*
X137615221Y-115620781D01*
X137522287Y-115438390D01*
X137401966Y-115272781D01*
X135459507Y-113330322D01*
X135459505Y-113330320D01*
X135293897Y-113209999D01*
X135202020Y-113163186D01*
X135111505Y-113117066D01*
X135022061Y-113088004D01*
X134992202Y-113078302D01*
X134992200Y-113078301D01*
X134986000Y-113076287D01*
X134916821Y-113053809D01*
X134758950Y-113028804D01*
X134755791Y-113028134D01*
X134727762Y-113013013D01*
X134698999Y-112999378D01*
X134697235Y-112996546D01*
X134694299Y-112994962D01*
X134678899Y-112967098D01*
X134662068Y-112940067D01*
X134662115Y-112936729D01*
X134660502Y-112933810D01*
X134662611Y-112902044D01*
X134663066Y-112870204D01*
X134664969Y-112866521D01*
X134665131Y-112864094D01*
X134668755Y-112859201D01*
X134683156Y-112831349D01*
X134761645Y-112729060D01*
X134873102Y-112536012D01*
X134958407Y-112330067D01*
X135016101Y-112114749D01*
X135045197Y-111893743D01*
X135045197Y-111670829D01*
X135016101Y-111449823D01*
X134958407Y-111234505D01*
X134873102Y-111028560D01*
X134761645Y-110835512D01*
X134697148Y-110751457D01*
X134625946Y-110658664D01*
X134604039Y-110636757D01*
X134567247Y-110599965D01*
X134533764Y-110538645D01*
X134538748Y-110468953D01*
X134567247Y-110424606D01*
X134625944Y-110365910D01*
X134761645Y-110189060D01*
X134873102Y-109996012D01*
X134958407Y-109790067D01*
X135016101Y-109574749D01*
X135045197Y-109353743D01*
X135045197Y-109130829D01*
X135016101Y-108909823D01*
X134958407Y-108694505D01*
X134873102Y-108488560D01*
X134761645Y-108295512D01*
X134697148Y-108211457D01*
X134625946Y-108118664D01*
X134607282Y-108100000D01*
X134567247Y-108059965D01*
X134533764Y-107998645D01*
X134538748Y-107928953D01*
X134567247Y-107884606D01*
X134625944Y-107825910D01*
X134761645Y-107649060D01*
X134873102Y-107456012D01*
X134958407Y-107250067D01*
X135016101Y-107034749D01*
X135045197Y-106813743D01*
X135045197Y-106590829D01*
X135016101Y-106369823D01*
X134958407Y-106154505D01*
X134955061Y-106146428D01*
X134873103Y-105948563D01*
X134873102Y-105948560D01*
X134761645Y-105755512D01*
X134697148Y-105671457D01*
X134625946Y-105578664D01*
X134607282Y-105560000D01*
X134567247Y-105519965D01*
X134533764Y-105458645D01*
X134538748Y-105388953D01*
X134567247Y-105344606D01*
X134625944Y-105285910D01*
X134761645Y-105109060D01*
X134873102Y-104916012D01*
X134958407Y-104710067D01*
X135016101Y-104494749D01*
X135045197Y-104273743D01*
X135045197Y-104050829D01*
X135016101Y-103829823D01*
X134958407Y-103614505D01*
X134955061Y-103606428D01*
X134873103Y-103408563D01*
X134873102Y-103408560D01*
X134761645Y-103215512D01*
X134625944Y-103038662D01*
X134567247Y-102979965D01*
X134533764Y-102918645D01*
X134538748Y-102848953D01*
X134567247Y-102804606D01*
X134625944Y-102745910D01*
X134761645Y-102569060D01*
X134873102Y-102376012D01*
X134958407Y-102170067D01*
X135016101Y-101954749D01*
X135045197Y-101733743D01*
X135045197Y-101510829D01*
X135016101Y-101289823D01*
X134958407Y-101074505D01*
X134955061Y-101066428D01*
X134873103Y-100868563D01*
X134873102Y-100868560D01*
X134761645Y-100675512D01*
X134702177Y-100598011D01*
X134625946Y-100498664D01*
X134625938Y-100498656D01*
X134567247Y-100439965D01*
X134533764Y-100378645D01*
X134538748Y-100308953D01*
X134567247Y-100264606D01*
X134625944Y-100205910D01*
X134761645Y-100029060D01*
X134873102Y-99836012D01*
X134958407Y-99630067D01*
X135016101Y-99414749D01*
X135045197Y-99193743D01*
X135045197Y-98970829D01*
X135016101Y-98749823D01*
X134958407Y-98534505D01*
X134955061Y-98526428D01*
X134877176Y-98338395D01*
X134873102Y-98328560D01*
X134761645Y-98135512D01*
X134690100Y-98042272D01*
X134664906Y-97977103D01*
X134678944Y-97908658D01*
X134727759Y-97858669D01*
X134788476Y-97842786D01*
X135149313Y-97842786D01*
X135216352Y-97862471D01*
X135224799Y-97868410D01*
X135357550Y-97970273D01*
X135561943Y-98088280D01*
X135561948Y-98088282D01*
X135561951Y-98088284D01*
X135780007Y-98178606D01*
X136007986Y-98239693D01*
X136241989Y-98270500D01*
X136241996Y-98270500D01*
X136478004Y-98270500D01*
X136478011Y-98270500D01*
X136712014Y-98239693D01*
X136939993Y-98178606D01*
X137158049Y-98088284D01*
X137362450Y-97970273D01*
X137549699Y-97826592D01*
X137716592Y-97659699D01*
X137860273Y-97472450D01*
X137978284Y-97268049D01*
X138068606Y-97049993D01*
X138129693Y-96822014D01*
X138160500Y-96588011D01*
X138160500Y-96351989D01*
X138129693Y-96117986D01*
X138068606Y-95890007D01*
X137978284Y-95671951D01*
X137978282Y-95671948D01*
X137978280Y-95671943D01*
X137934147Y-95595503D01*
X137860273Y-95467550D01*
X137781878Y-95365384D01*
X137716593Y-95280302D01*
X137716587Y-95280295D01*
X137549704Y-95113412D01*
X137549697Y-95113406D01*
X137481458Y-95061045D01*
X137440255Y-95004618D01*
X137436100Y-94934872D01*
X137469267Y-94874984D01*
X137474029Y-94870223D01*
X137617710Y-94682974D01*
X137735721Y-94478573D01*
X137826043Y-94260517D01*
X137887130Y-94032538D01*
X137917937Y-93798535D01*
X137917937Y-93562513D01*
X137887130Y-93328510D01*
X137826043Y-93100531D01*
X137735721Y-92882475D01*
X137735719Y-92882472D01*
X137735717Y-92882467D01*
X137682736Y-92790702D01*
X137617710Y-92678074D01*
X137474029Y-92490825D01*
X137474024Y-92490819D01*
X137307141Y-92323936D01*
X137307134Y-92323930D01*
X137119891Y-92180254D01*
X137119890Y-92180253D01*
X137119887Y-92180251D01*
X136995805Y-92108612D01*
X136915493Y-92062243D01*
X136915482Y-92062238D01*
X136697430Y-91971918D01*
X136478389Y-91913226D01*
X136469451Y-91910831D01*
X136469450Y-91910830D01*
X136469447Y-91910830D01*
X136235457Y-91880025D01*
X136235454Y-91880024D01*
X136235448Y-91880024D01*
X135999426Y-91880024D01*
X135999420Y-91880024D01*
X135999416Y-91880025D01*
X135765426Y-91910830D01*
X135537443Y-91971918D01*
X135319391Y-92062238D01*
X135319380Y-92062243D01*
X135152579Y-92158546D01*
X135143944Y-92163533D01*
X135132895Y-92169912D01*
X135064995Y-92186385D01*
X134998968Y-92163533D01*
X134955778Y-92108612D01*
X134949136Y-92039058D01*
X134956335Y-92015071D01*
X134958400Y-92010083D01*
X134958407Y-92010067D01*
X135016101Y-91794749D01*
X135045197Y-91573743D01*
X135045197Y-91350829D01*
X135016101Y-91129823D01*
X134958407Y-90914505D01*
X134873102Y-90708560D01*
X134761645Y-90515512D01*
X134638657Y-90355230D01*
X134625945Y-90338663D01*
X134625939Y-90338656D01*
X134468326Y-90181043D01*
X134468319Y-90181037D01*
X134352764Y-90092369D01*
X134311561Y-90035941D01*
X134307406Y-89966195D01*
X134340569Y-89906311D01*
X134412557Y-89834323D01*
X134542083Y-89656046D01*
X134642129Y-89459696D01*
X134710223Y-89250124D01*
X134710223Y-89250121D01*
X134722552Y-89172286D01*
X133577709Y-89172286D01*
X133610622Y-89115279D01*
X133644697Y-88988112D01*
X133644697Y-88856460D01*
X133610622Y-88729293D01*
X133577709Y-88672286D01*
X134722552Y-88672286D01*
X134710223Y-88594450D01*
X134710223Y-88594447D01*
X134642129Y-88384875D01*
X134542083Y-88188525D01*
X134412554Y-88010244D01*
X134340569Y-87938259D01*
X134307084Y-87876936D01*
X134312068Y-87807244D01*
X134352763Y-87752203D01*
X134468321Y-87663533D01*
X134625944Y-87505910D01*
X134761645Y-87329060D01*
X134873102Y-87136012D01*
X134958407Y-86930067D01*
X135016101Y-86714749D01*
X135045197Y-86493743D01*
X135045197Y-86270829D01*
X135016101Y-86049823D01*
X134958407Y-85834505D01*
X134873102Y-85628560D01*
X134761645Y-85435512D01*
X134738815Y-85405759D01*
X134625946Y-85258664D01*
X134610688Y-85243406D01*
X134567247Y-85199965D01*
X134533764Y-85138645D01*
X134538748Y-85068953D01*
X134567247Y-85024606D01*
X134625944Y-84965910D01*
X134761645Y-84789060D01*
X134873102Y-84596012D01*
X134958407Y-84390067D01*
X135016101Y-84174749D01*
X135045197Y-83953743D01*
X135045197Y-83730829D01*
X135016101Y-83509823D01*
X134958407Y-83294505D01*
X134873102Y-83088560D01*
X134761645Y-82895512D01*
X134686578Y-82797682D01*
X134625946Y-82718664D01*
X134625938Y-82718656D01*
X134567247Y-82659965D01*
X134533764Y-82598645D01*
X134538748Y-82528953D01*
X134567247Y-82484606D01*
X134625944Y-82425910D01*
X134761645Y-82249060D01*
X134873102Y-82056012D01*
X134908735Y-81969986D01*
X139375001Y-81969986D01*
X139385494Y-82072697D01*
X139440641Y-82239119D01*
X139440643Y-82239124D01*
X139532684Y-82388345D01*
X139656654Y-82512315D01*
X139805875Y-82604356D01*
X139805880Y-82604358D01*
X139972302Y-82659505D01*
X139972309Y-82659506D01*
X140075019Y-82669999D01*
X140287499Y-82669999D01*
X140787500Y-82669999D01*
X140999972Y-82669999D01*
X140999986Y-82669998D01*
X141102697Y-82659505D01*
X141269119Y-82604358D01*
X141269124Y-82604356D01*
X141418345Y-82512315D01*
X141542315Y-82388345D01*
X141634356Y-82239124D01*
X141634358Y-82239119D01*
X141689505Y-82072697D01*
X141689506Y-82072690D01*
X141699999Y-81969986D01*
X141700000Y-81969973D01*
X141700000Y-81520000D01*
X140787500Y-81520000D01*
X140787500Y-82669999D01*
X140287499Y-82669999D01*
X140287500Y-82669998D01*
X140287500Y-81520000D01*
X139375001Y-81520000D01*
X139375001Y-81969986D01*
X134908735Y-81969986D01*
X134958407Y-81850067D01*
X135016101Y-81634749D01*
X135045197Y-81413743D01*
X135045197Y-81190829D01*
X135016101Y-80969823D01*
X134958407Y-80754505D01*
X134958402Y-80754495D01*
X134958401Y-80754489D01*
X134900340Y-80614316D01*
X134881989Y-80570013D01*
X139375000Y-80570013D01*
X139375000Y-81020000D01*
X140287500Y-81020000D01*
X140787500Y-81020000D01*
X141699999Y-81020000D01*
X141699999Y-80570028D01*
X141699998Y-80570013D01*
X141689505Y-80467302D01*
X141634358Y-80300880D01*
X141634356Y-80300875D01*
X141542315Y-80151654D01*
X141418345Y-80027684D01*
X141269124Y-79935643D01*
X141269119Y-79935641D01*
X141102697Y-79880494D01*
X141102690Y-79880493D01*
X140999986Y-79870000D01*
X140787500Y-79870000D01*
X140787500Y-81020000D01*
X140287500Y-81020000D01*
X140287500Y-79870000D01*
X140075029Y-79870000D01*
X140075012Y-79870001D01*
X139972302Y-79880494D01*
X139805880Y-79935641D01*
X139805875Y-79935643D01*
X139656654Y-80027684D01*
X139532684Y-80151654D01*
X139440643Y-80300875D01*
X139440641Y-80300880D01*
X139385494Y-80467302D01*
X139385493Y-80467309D01*
X139375000Y-80570013D01*
X134881989Y-80570013D01*
X134873104Y-80548564D01*
X134873101Y-80548559D01*
X134850839Y-80510000D01*
X134761645Y-80355512D01*
X134704087Y-80280500D01*
X134625945Y-80178663D01*
X134625939Y-80178656D01*
X134468326Y-80021043D01*
X134468319Y-80021037D01*
X134291479Y-79885344D01*
X134291477Y-79885343D01*
X134291471Y-79885338D01*
X134098423Y-79773881D01*
X134098419Y-79773879D01*
X133892487Y-79688579D01*
X133892480Y-79688577D01*
X133892478Y-79688576D01*
X133677160Y-79630882D01*
X133677154Y-79630881D01*
X133677149Y-79630880D01*
X133456163Y-79601787D01*
X133456160Y-79601786D01*
X133456154Y-79601786D01*
X132833240Y-79601786D01*
X132833234Y-79601786D01*
X132833230Y-79601787D01*
X132612244Y-79630880D01*
X132612237Y-79630881D01*
X132612234Y-79630882D01*
X132560407Y-79644769D01*
X132396916Y-79688576D01*
X132396906Y-79688579D01*
X132190974Y-79773879D01*
X132190970Y-79773881D01*
X131997923Y-79885338D01*
X131997914Y-79885344D01*
X131821074Y-80021037D01*
X131821067Y-80021043D01*
X131663454Y-80178656D01*
X131663448Y-80178663D01*
X131527755Y-80355503D01*
X131527749Y-80355512D01*
X131416292Y-80548559D01*
X131416290Y-80548563D01*
X131330990Y-80754495D01*
X131330987Y-80754505D01*
X131289189Y-80910500D01*
X131273294Y-80969820D01*
X131273291Y-80969833D01*
X131244198Y-81190819D01*
X131244197Y-81190835D01*
X131244197Y-81413736D01*
X131244198Y-81413752D01*
X131273291Y-81634738D01*
X131273292Y-81634743D01*
X131273293Y-81634749D01*
X131273294Y-81634751D01*
X131330987Y-81850066D01*
X131330990Y-81850076D01*
X131416290Y-82056008D01*
X131416292Y-82056012D01*
X131527749Y-82249060D01*
X131527754Y-82249066D01*
X131527755Y-82249068D01*
X131663448Y-82425908D01*
X131663454Y-82425915D01*
X131722144Y-82484605D01*
X131755629Y-82545928D01*
X131750645Y-82615620D01*
X131722144Y-82659967D01*
X131663454Y-82718656D01*
X131663448Y-82718663D01*
X131527755Y-82895503D01*
X131527749Y-82895512D01*
X131416292Y-83088559D01*
X131416290Y-83088563D01*
X131330990Y-83294495D01*
X131330987Y-83294505D01*
X131273294Y-83509820D01*
X131273291Y-83509833D01*
X131244198Y-83730819D01*
X131244197Y-83730835D01*
X131244197Y-83953736D01*
X131244198Y-83953752D01*
X131273291Y-84174738D01*
X131273292Y-84174743D01*
X131273293Y-84174749D01*
X131302845Y-84285039D01*
X131330987Y-84390066D01*
X131330990Y-84390076D01*
X131416290Y-84596008D01*
X131416292Y-84596012D01*
X131527749Y-84789060D01*
X131527754Y-84789066D01*
X131527755Y-84789068D01*
X131663448Y-84965908D01*
X131663454Y-84965915D01*
X131722144Y-85024605D01*
X131755629Y-85085928D01*
X131750645Y-85155620D01*
X131722144Y-85199967D01*
X131663454Y-85258656D01*
X131663448Y-85258663D01*
X131527755Y-85435503D01*
X131527749Y-85435512D01*
X131416292Y-85628559D01*
X131416290Y-85628563D01*
X131330990Y-85834495D01*
X131330987Y-85834505D01*
X131281283Y-86020006D01*
X131273294Y-86049820D01*
X131273291Y-86049833D01*
X131244198Y-86270819D01*
X131244197Y-86270835D01*
X131244197Y-86493736D01*
X131244198Y-86493752D01*
X131273291Y-86714738D01*
X131273292Y-86714743D01*
X131273293Y-86714749D01*
X131330987Y-86930066D01*
X131330990Y-86930076D01*
X131409864Y-87120494D01*
X131416292Y-87136012D01*
X131527749Y-87329060D01*
X131527754Y-87329066D01*
X131527755Y-87329068D01*
X131663448Y-87505908D01*
X131663454Y-87505915D01*
X131821067Y-87663528D01*
X131821074Y-87663534D01*
X131936629Y-87752202D01*
X131977832Y-87808630D01*
X131981987Y-87878376D01*
X131948825Y-87938259D01*
X131876836Y-88010247D01*
X131747310Y-88188525D01*
X131647264Y-88384875D01*
X131584217Y-88578916D01*
X131544780Y-88636592D01*
X131480421Y-88663790D01*
X131411575Y-88651875D01*
X131378605Y-88628279D01*
X129891819Y-87141493D01*
X129858334Y-87080170D01*
X129855500Y-87053812D01*
X129855500Y-86370624D01*
X129875185Y-86303585D01*
X129881114Y-86295150D01*
X129971948Y-86176774D01*
X130083405Y-85983726D01*
X130168710Y-85777781D01*
X130226404Y-85562463D01*
X130255500Y-85341457D01*
X130255500Y-85118543D01*
X130226404Y-84897537D01*
X130168710Y-84682219D01*
X130083405Y-84476274D01*
X129971948Y-84283226D01*
X129836247Y-84106376D01*
X129836242Y-84106370D01*
X129678629Y-83948757D01*
X129678622Y-83948751D01*
X129501782Y-83813058D01*
X129501780Y-83813057D01*
X129501774Y-83813052D01*
X129308726Y-83701595D01*
X129308722Y-83701593D01*
X129102790Y-83616293D01*
X129102783Y-83616291D01*
X129102781Y-83616290D01*
X128887463Y-83558596D01*
X128887457Y-83558595D01*
X128887452Y-83558594D01*
X128666466Y-83529501D01*
X128666463Y-83529500D01*
X128666457Y-83529500D01*
X128443543Y-83529500D01*
X128443537Y-83529500D01*
X128443533Y-83529501D01*
X128222547Y-83558594D01*
X128222540Y-83558595D01*
X128222537Y-83558596D01*
X128096804Y-83592286D01*
X128007219Y-83616290D01*
X128007209Y-83616293D01*
X127801277Y-83701593D01*
X127801266Y-83701598D01*
X127641115Y-83794062D01*
X127573215Y-83810535D01*
X127507188Y-83787682D01*
X127491434Y-83774356D01*
X127417262Y-83700184D01*
X127264523Y-83604211D01*
X127094254Y-83544631D01*
X127094249Y-83544630D01*
X126959960Y-83529500D01*
X126959954Y-83529500D01*
X125070046Y-83529500D01*
X125070039Y-83529500D01*
X124935750Y-83544630D01*
X124935745Y-83544631D01*
X124765476Y-83604211D01*
X124612737Y-83700184D01*
X124485184Y-83827737D01*
X124389211Y-83980476D01*
X124329631Y-84150745D01*
X124329630Y-84150750D01*
X124314500Y-84285039D01*
X124314500Y-86174960D01*
X124329630Y-86309249D01*
X124329631Y-86309254D01*
X124389211Y-86479523D01*
X124485184Y-86632262D01*
X124612737Y-86759815D01*
X124612740Y-86759817D01*
X124656471Y-86787295D01*
X124702763Y-86839629D01*
X124714500Y-86892289D01*
X124714500Y-87720851D01*
X124694815Y-87787890D01*
X124669165Y-87816704D01*
X124648590Y-87833589D01*
X124517317Y-87993547D01*
X124419769Y-88176043D01*
X124359699Y-88374067D01*
X124349377Y-88478875D01*
X124344500Y-88528392D01*
X124344500Y-89431608D01*
X124349180Y-89479124D01*
X124359699Y-89585932D01*
X124372565Y-89628345D01*
X124419768Y-89783954D01*
X124517315Y-89966450D01*
X124517317Y-89966452D01*
X124648589Y-90126410D01*
X124723319Y-90187738D01*
X124808550Y-90257685D01*
X124991046Y-90355232D01*
X125189066Y-90415300D01*
X125189065Y-90415300D01*
X125227647Y-90419100D01*
X125343392Y-90430500D01*
X125343395Y-90430500D01*
X126696605Y-90430500D01*
X126696608Y-90430500D01*
X126850934Y-90415300D01*
X127048954Y-90355232D01*
X127231450Y-90257685D01*
X127391410Y-90126410D01*
X127522685Y-89966450D01*
X127620232Y-89783954D01*
X127680300Y-89585934D01*
X127695500Y-89431608D01*
X127695500Y-88922906D01*
X127715185Y-88855867D01*
X127767989Y-88810112D01*
X127837147Y-88800168D01*
X127900703Y-88829193D01*
X127907181Y-88835225D01*
X131526211Y-92454255D01*
X131572749Y-92488065D01*
X131593508Y-92503147D01*
X131613539Y-92521353D01*
X131616386Y-92524575D01*
X131663450Y-92585910D01*
X131724841Y-92647301D01*
X131727380Y-92650174D01*
X131740645Y-92678487D01*
X131755629Y-92705928D01*
X131755347Y-92709867D01*
X131757023Y-92713444D01*
X131752875Y-92744432D01*
X131750645Y-92775620D01*
X131748189Y-92779440D01*
X131747754Y-92782696D01*
X131740951Y-92790702D01*
X131722144Y-92819967D01*
X131663454Y-92878656D01*
X131663448Y-92878663D01*
X131527755Y-93055503D01*
X131527749Y-93055512D01*
X131416292Y-93248559D01*
X131416290Y-93248563D01*
X131330990Y-93454495D01*
X131330987Y-93454505D01*
X131302047Y-93562513D01*
X131273294Y-93669820D01*
X131273291Y-93669833D01*
X131244198Y-93890819D01*
X131244197Y-93890835D01*
X131244197Y-94113736D01*
X131244198Y-94113752D01*
X131273291Y-94334738D01*
X131273292Y-94334743D01*
X131273293Y-94334749D01*
X131327715Y-94537854D01*
X131330987Y-94550066D01*
X131330990Y-94550076D01*
X131398714Y-94713576D01*
X131416292Y-94756012D01*
X131527749Y-94949060D01*
X131527754Y-94949066D01*
X131527755Y-94949068D01*
X131663448Y-95125908D01*
X131663454Y-95125915D01*
X131722144Y-95184605D01*
X131755629Y-95245928D01*
X131750645Y-95315620D01*
X131722144Y-95359967D01*
X131663454Y-95418656D01*
X131663448Y-95418663D01*
X131527755Y-95595503D01*
X131527749Y-95595512D01*
X131416292Y-95788559D01*
X131416290Y-95788563D01*
X131330990Y-95994495D01*
X131330987Y-95994505D01*
X131273294Y-96209820D01*
X131273291Y-96209833D01*
X131244198Y-96430819D01*
X131244197Y-96430835D01*
X131244197Y-96653736D01*
X131244198Y-96653752D01*
X131273291Y-96874738D01*
X131273292Y-96874743D01*
X131273293Y-96874749D01*
X131328319Y-97080110D01*
X131330987Y-97090066D01*
X131330990Y-97090076D01*
X131404709Y-97268049D01*
X131416292Y-97296012D01*
X131527749Y-97489060D01*
X131527754Y-97489066D01*
X131527755Y-97489068D01*
X131663448Y-97665908D01*
X131663454Y-97665915D01*
X131722144Y-97724605D01*
X131755629Y-97785928D01*
X131750645Y-97855620D01*
X131722144Y-97899967D01*
X131663454Y-97958656D01*
X131663448Y-97958663D01*
X131527755Y-98135503D01*
X131527749Y-98135512D01*
X131416292Y-98328559D01*
X131416290Y-98328563D01*
X131330990Y-98534495D01*
X131330987Y-98534505D01*
X131273294Y-98749820D01*
X131273291Y-98749833D01*
X131244198Y-98970819D01*
X131244197Y-98970835D01*
X131244197Y-99193736D01*
X131244198Y-99193752D01*
X131273291Y-99414738D01*
X131273292Y-99414743D01*
X131273293Y-99414749D01*
X131308594Y-99546493D01*
X131330987Y-99630066D01*
X131330990Y-99630076D01*
X131398714Y-99793576D01*
X131416292Y-99836012D01*
X131527749Y-100029060D01*
X131527754Y-100029066D01*
X131527755Y-100029068D01*
X131663448Y-100205908D01*
X131663454Y-100205915D01*
X131722144Y-100264605D01*
X131755629Y-100325928D01*
X131750645Y-100395620D01*
X131722144Y-100439967D01*
X131663454Y-100498656D01*
X131663448Y-100498663D01*
X131527755Y-100675503D01*
X131527749Y-100675512D01*
X131416292Y-100868559D01*
X131416290Y-100868563D01*
X131330990Y-101074495D01*
X131330987Y-101074505D01*
X131283964Y-101250000D01*
X131273294Y-101289820D01*
X131273291Y-101289833D01*
X131244198Y-101510819D01*
X131244197Y-101510835D01*
X131244197Y-101733736D01*
X131244198Y-101733752D01*
X131273291Y-101954738D01*
X131273292Y-101954743D01*
X131273293Y-101954749D01*
X131308594Y-102086493D01*
X131330987Y-102170066D01*
X131330990Y-102170076D01*
X131398714Y-102333576D01*
X131416292Y-102376012D01*
X131527749Y-102569060D01*
X131527754Y-102569066D01*
X131527755Y-102569068D01*
X131663448Y-102745908D01*
X131663454Y-102745915D01*
X131695358Y-102777819D01*
X131728843Y-102839142D01*
X131723859Y-102908834D01*
X131681987Y-102964767D01*
X131616523Y-102989184D01*
X131607677Y-102989500D01*
X112720625Y-102989500D01*
X112698692Y-102983059D01*
X112675912Y-102981158D01*
X112658045Y-102971124D01*
X112653586Y-102969815D01*
X112645149Y-102963883D01*
X112588065Y-102920082D01*
X112546864Y-102863655D01*
X112542709Y-102793909D01*
X112575872Y-102734025D01*
X112647860Y-102662037D01*
X112777386Y-102483760D01*
X112877432Y-102287410D01*
X112945526Y-102077838D01*
X112945526Y-102077835D01*
X112957855Y-102000000D01*
X111713012Y-102000000D01*
X111745925Y-101942993D01*
X111780000Y-101815826D01*
X111780000Y-101684174D01*
X111745925Y-101557007D01*
X111713012Y-101500000D01*
X112957855Y-101500000D01*
X112945526Y-101422164D01*
X112945526Y-101422161D01*
X112877432Y-101212589D01*
X112777386Y-101016239D01*
X112647857Y-100837958D01*
X112575872Y-100765973D01*
X112567674Y-100750961D01*
X112555435Y-100739009D01*
X112551276Y-100720930D01*
X112542387Y-100704650D01*
X112543607Y-100687586D01*
X112539773Y-100670917D01*
X112546047Y-100653462D01*
X112547371Y-100634958D01*
X112557742Y-100620930D01*
X112563409Y-100605167D01*
X112588064Y-100579918D01*
X112645140Y-100536122D01*
X112710309Y-100510930D01*
X112720625Y-100510500D01*
X123684502Y-100510500D01*
X123751541Y-100530185D01*
X123763160Y-100538642D01*
X123798550Y-100567685D01*
X123798553Y-100567687D01*
X123798555Y-100567688D01*
X123981041Y-100665230D01*
X123981043Y-100665230D01*
X123981046Y-100665232D01*
X124179066Y-100725300D01*
X124179065Y-100725300D01*
X124217647Y-100729100D01*
X124333392Y-100740500D01*
X124333395Y-100740500D01*
X125261605Y-100740500D01*
X125261608Y-100740500D01*
X125415934Y-100725300D01*
X125613954Y-100665232D01*
X125796450Y-100567685D01*
X125956410Y-100436410D01*
X126087685Y-100276450D01*
X126185232Y-100093954D01*
X126245300Y-99895934D01*
X126260500Y-99741608D01*
X126260500Y-99739986D01*
X126760001Y-99739986D01*
X126770494Y-99842697D01*
X126825641Y-100009119D01*
X126825643Y-100009124D01*
X126917684Y-100158345D01*
X127041654Y-100282315D01*
X127190875Y-100374356D01*
X127190880Y-100374358D01*
X127357302Y-100429505D01*
X127357309Y-100429506D01*
X127460019Y-100439999D01*
X127672499Y-100439999D01*
X128172500Y-100439999D01*
X128384972Y-100439999D01*
X128384986Y-100439998D01*
X128487697Y-100429505D01*
X128654119Y-100374358D01*
X128654124Y-100374356D01*
X128803345Y-100282315D01*
X128927315Y-100158345D01*
X129019356Y-100009124D01*
X129019358Y-100009119D01*
X129074505Y-99842697D01*
X129074506Y-99842690D01*
X129084999Y-99739986D01*
X129085000Y-99739973D01*
X129085000Y-99290000D01*
X128172500Y-99290000D01*
X128172500Y-100439999D01*
X127672499Y-100439999D01*
X127672500Y-100439998D01*
X127672500Y-99290000D01*
X126760001Y-99290000D01*
X126760001Y-99739986D01*
X126260500Y-99739986D01*
X126260500Y-98340013D01*
X126760000Y-98340013D01*
X126760000Y-98790000D01*
X127672500Y-98790000D01*
X128172500Y-98790000D01*
X129084999Y-98790000D01*
X129084999Y-98340028D01*
X129084998Y-98340013D01*
X129074505Y-98237302D01*
X129019358Y-98070880D01*
X129019356Y-98070875D01*
X128927315Y-97921654D01*
X128803345Y-97797684D01*
X128654124Y-97705643D01*
X128654119Y-97705641D01*
X128487697Y-97650494D01*
X128487690Y-97650493D01*
X128384986Y-97640000D01*
X128172500Y-97640000D01*
X128172500Y-98790000D01*
X127672500Y-98790000D01*
X127672500Y-97640000D01*
X127460029Y-97640000D01*
X127460012Y-97640001D01*
X127357302Y-97650494D01*
X127190880Y-97705641D01*
X127190875Y-97705643D01*
X127041654Y-97797684D01*
X126917684Y-97921654D01*
X126825643Y-98070875D01*
X126825641Y-98070880D01*
X126770494Y-98237302D01*
X126770493Y-98237309D01*
X126760000Y-98340013D01*
X126260500Y-98340013D01*
X126260500Y-98338392D01*
X126245300Y-98184066D01*
X126216234Y-98088251D01*
X126215612Y-98018385D01*
X126236516Y-97976776D01*
X126373599Y-97798127D01*
X126498164Y-97582373D01*
X126593502Y-97352207D01*
X126657982Y-97111565D01*
X126690500Y-96864565D01*
X126690500Y-96415435D01*
X126657982Y-96168435D01*
X126593502Y-95927793D01*
X126521906Y-95754945D01*
X126498169Y-95697638D01*
X126498162Y-95697623D01*
X126373599Y-95481873D01*
X126221939Y-95284225D01*
X126221933Y-95284218D01*
X126045781Y-95108066D01*
X126045774Y-95108060D01*
X125848126Y-94956400D01*
X125632376Y-94831837D01*
X125632361Y-94831830D01*
X125402207Y-94736498D01*
X125161561Y-94672017D01*
X124914575Y-94639501D01*
X124914570Y-94639500D01*
X124914565Y-94639500D01*
X124665435Y-94639500D01*
X124665429Y-94639500D01*
X124665424Y-94639501D01*
X124418438Y-94672017D01*
X124177792Y-94736498D01*
X123947638Y-94831830D01*
X123947623Y-94831837D01*
X123731873Y-94956400D01*
X123534225Y-95108060D01*
X123534218Y-95108066D01*
X123384805Y-95257480D01*
X123323482Y-95290965D01*
X123253790Y-95285981D01*
X123224238Y-95270117D01*
X123088583Y-95171557D01*
X122864184Y-95057219D01*
X122624670Y-94979397D01*
X122500000Y-94959650D01*
X122500000Y-96149252D01*
X122462292Y-96127482D01*
X122322409Y-96090000D01*
X122177591Y-96090000D01*
X122037708Y-96127482D01*
X122000000Y-96149252D01*
X122000000Y-94959650D01*
X121875330Y-94979397D01*
X121875327Y-94979397D01*
X121635815Y-95057219D01*
X121411413Y-95171559D01*
X121275760Y-95270116D01*
X121243657Y-95281570D01*
X121211721Y-95293482D01*
X121210821Y-95293286D01*
X121209953Y-95293596D01*
X121176747Y-95285873D01*
X121143448Y-95278630D01*
X121142479Y-95277904D01*
X121141900Y-95277770D01*
X121115194Y-95257479D01*
X121046819Y-95189104D01*
X121013334Y-95127781D01*
X121010500Y-95101423D01*
X121010500Y-92529986D01*
X124645001Y-92529986D01*
X124655494Y-92632697D01*
X124710641Y-92799119D01*
X124710643Y-92799124D01*
X124802684Y-92948345D01*
X124926654Y-93072315D01*
X125075875Y-93164356D01*
X125075880Y-93164358D01*
X125242302Y-93219505D01*
X125242309Y-93219506D01*
X125345019Y-93229999D01*
X125769999Y-93229999D01*
X126270000Y-93229999D01*
X126694972Y-93229999D01*
X126694986Y-93229998D01*
X126797697Y-93219505D01*
X126964119Y-93164358D01*
X126964124Y-93164356D01*
X127113345Y-93072315D01*
X127237315Y-92948345D01*
X127329356Y-92799124D01*
X127329358Y-92799119D01*
X127384505Y-92632697D01*
X127384506Y-92632690D01*
X127394999Y-92529986D01*
X127395000Y-92529973D01*
X127395000Y-92330000D01*
X126270000Y-92330000D01*
X126270000Y-93229999D01*
X125769999Y-93229999D01*
X125770000Y-93229998D01*
X125770000Y-92330000D01*
X124645001Y-92330000D01*
X124645001Y-92529986D01*
X121010500Y-92529986D01*
X121010500Y-91630013D01*
X124645000Y-91630013D01*
X124645000Y-91830000D01*
X125770000Y-91830000D01*
X126270000Y-91830000D01*
X127394999Y-91830000D01*
X127394999Y-91630028D01*
X127394998Y-91630013D01*
X127384505Y-91527302D01*
X127329358Y-91360880D01*
X127329356Y-91360875D01*
X127237315Y-91211654D01*
X127113345Y-91087684D01*
X126964124Y-90995643D01*
X126964119Y-90995641D01*
X126797697Y-90940494D01*
X126797690Y-90940493D01*
X126694986Y-90930000D01*
X126270000Y-90930000D01*
X126270000Y-91830000D01*
X125770000Y-91830000D01*
X125770000Y-90930000D01*
X125345028Y-90930000D01*
X125345012Y-90930001D01*
X125242302Y-90940494D01*
X125075880Y-90995641D01*
X125075875Y-90995643D01*
X124926654Y-91087684D01*
X124802684Y-91211654D01*
X124710643Y-91360875D01*
X124710641Y-91360880D01*
X124655494Y-91527302D01*
X124655493Y-91527309D01*
X124645000Y-91630013D01*
X121010500Y-91630013D01*
X121010500Y-83830047D01*
X121030185Y-83763008D01*
X121046819Y-83742366D01*
X128282366Y-76506819D01*
X128343689Y-76473334D01*
X128370047Y-76470500D01*
X139009136Y-76470500D01*
X139076175Y-76490185D01*
G37*
%TD.AperFunction*%
%TA.AperFunction,Conductor*%
G36*
X141324247Y-61502868D02*
G01*
X141391276Y-61522586D01*
X141423423Y-61552518D01*
X153119194Y-77163295D01*
X161684822Y-88596154D01*
X161702813Y-88627314D01*
X161724166Y-88648667D01*
X161729469Y-88655745D01*
X161742269Y-88672830D01*
X161742272Y-88672833D01*
X161764731Y-88690480D01*
X161775800Y-88700301D01*
X161795999Y-88720500D01*
X161822150Y-88735598D01*
X161845892Y-88754254D01*
X161878969Y-88768403D01*
X161910127Y-88786392D01*
X161930747Y-88791916D01*
X161947423Y-88797685D01*
X161967051Y-88806081D01*
X161967053Y-88806082D01*
X161967056Y-88806083D01*
X162002673Y-88811189D01*
X162037421Y-88820500D01*
X162067613Y-88820500D01*
X162097507Y-88824786D01*
X162122771Y-88821755D01*
X162125873Y-88821383D01*
X162140643Y-88820500D01*
X220267982Y-88820500D01*
X220335021Y-88840185D01*
X220380776Y-88892989D01*
X220391982Y-88944500D01*
X220391982Y-112345500D01*
X220372297Y-112412539D01*
X220319493Y-112458294D01*
X220267982Y-112469500D01*
X162361883Y-112469500D01*
X162323096Y-112465321D01*
X162296258Y-112469500D01*
X162269097Y-112469500D01*
X162237854Y-112477871D01*
X162237855Y-112477872D01*
X162231422Y-112479595D01*
X162192881Y-112485597D01*
X162168045Y-112496576D01*
X162158773Y-112499061D01*
X162141813Y-112503605D01*
X162141801Y-112503611D01*
X162113790Y-112519781D01*
X162113791Y-112519782D01*
X162108018Y-112523114D01*
X162072351Y-112538884D01*
X162051205Y-112555915D01*
X162042900Y-112560711D01*
X162042896Y-112560714D01*
X162027680Y-112569499D01*
X162004800Y-112592378D01*
X162004799Y-112592377D01*
X162000083Y-112597092D01*
X161969719Y-112621551D01*
X161953701Y-112643475D01*
X161946916Y-112650261D01*
X161946916Y-112650262D01*
X161934495Y-112662684D01*
X161934494Y-112662684D01*
X161918321Y-112690696D01*
X161911064Y-112701839D01*
X141663784Y-140417508D01*
X141608343Y-140460029D01*
X141563211Y-140468360D01*
X75228573Y-140230533D01*
X75161605Y-140210608D01*
X75116040Y-140157641D01*
X75105018Y-140106534D01*
X75105018Y-137088711D01*
X76379500Y-137088711D01*
X76379500Y-137331288D01*
X76411161Y-137571785D01*
X76473947Y-137806104D01*
X76531937Y-137946104D01*
X76566776Y-138030212D01*
X76688064Y-138240289D01*
X76688066Y-138240292D01*
X76688067Y-138240293D01*
X76835733Y-138432736D01*
X76835739Y-138432743D01*
X77007256Y-138604260D01*
X77007262Y-138604265D01*
X77199711Y-138751936D01*
X77409788Y-138873224D01*
X77633900Y-138966054D01*
X77868211Y-139028838D01*
X78048586Y-139052584D01*
X78108711Y-139060500D01*
X78108712Y-139060500D01*
X78351289Y-139060500D01*
X78399388Y-139054167D01*
X78591789Y-139028838D01*
X78826100Y-138966054D01*
X79050212Y-138873224D01*
X79260289Y-138751936D01*
X79452738Y-138604265D01*
X79624265Y-138432738D01*
X79771936Y-138240289D01*
X79893224Y-138030212D01*
X79986054Y-137806100D01*
X80048838Y-137571789D01*
X80080500Y-137331288D01*
X80080500Y-137088712D01*
X80080500Y-137088711D01*
X91039500Y-137088711D01*
X91039500Y-137331288D01*
X91071161Y-137571785D01*
X91133947Y-137806104D01*
X91191937Y-137946104D01*
X91226776Y-138030212D01*
X91348064Y-138240289D01*
X91348066Y-138240292D01*
X91348067Y-138240293D01*
X91495733Y-138432736D01*
X91495739Y-138432743D01*
X91667256Y-138604260D01*
X91667262Y-138604265D01*
X91859711Y-138751936D01*
X92069788Y-138873224D01*
X92293900Y-138966054D01*
X92528211Y-139028838D01*
X92708586Y-139052584D01*
X92768711Y-139060500D01*
X92768712Y-139060500D01*
X93011289Y-139060500D01*
X93059388Y-139054167D01*
X93251789Y-139028838D01*
X93486100Y-138966054D01*
X93710212Y-138873224D01*
X93920289Y-138751936D01*
X94112738Y-138604265D01*
X94284265Y-138432738D01*
X94431936Y-138240289D01*
X94553224Y-138030212D01*
X94646054Y-137806100D01*
X94708838Y-137571789D01*
X94740500Y-137331288D01*
X94740500Y-137228711D01*
X121469500Y-137228711D01*
X121469500Y-137471288D01*
X121501161Y-137711785D01*
X121563947Y-137946104D01*
X121598783Y-138030205D01*
X121656776Y-138170212D01*
X121778064Y-138380289D01*
X121778066Y-138380292D01*
X121778067Y-138380293D01*
X121925733Y-138572736D01*
X121925739Y-138572743D01*
X122097256Y-138744260D01*
X122097262Y-138744265D01*
X122289711Y-138891936D01*
X122499788Y-139013224D01*
X122723900Y-139106054D01*
X122958211Y-139168838D01*
X123138586Y-139192584D01*
X123198711Y-139200500D01*
X123198712Y-139200500D01*
X123441289Y-139200500D01*
X123489388Y-139194167D01*
X123681789Y-139168838D01*
X123916100Y-139106054D01*
X124140212Y-139013224D01*
X124350289Y-138891936D01*
X124542738Y-138744265D01*
X124714265Y-138572738D01*
X124861936Y-138380289D01*
X124983224Y-138170212D01*
X125076054Y-137946100D01*
X125138838Y-137711789D01*
X125170500Y-137471288D01*
X125170500Y-137228712D01*
X125138838Y-136988211D01*
X125076054Y-136753900D01*
X124983224Y-136529788D01*
X124861936Y-136319711D01*
X124801018Y-136240321D01*
X124714266Y-136127263D01*
X124714260Y-136127256D01*
X124542743Y-135955739D01*
X124542736Y-135955733D01*
X124350293Y-135808067D01*
X124350292Y-135808066D01*
X124350289Y-135808064D01*
X124140212Y-135686776D01*
X124140205Y-135686773D01*
X123916104Y-135593947D01*
X123740061Y-135546776D01*
X123681789Y-135531162D01*
X123681788Y-135531161D01*
X123681785Y-135531161D01*
X123441289Y-135499500D01*
X123441288Y-135499500D01*
X123198712Y-135499500D01*
X123198711Y-135499500D01*
X122958214Y-135531161D01*
X122723895Y-135593947D01*
X122499794Y-135686773D01*
X122499785Y-135686777D01*
X122289706Y-135808067D01*
X122097263Y-135955733D01*
X122097256Y-135955739D01*
X121925739Y-136127256D01*
X121925733Y-136127263D01*
X121778067Y-136319706D01*
X121656777Y-136529785D01*
X121656773Y-136529794D01*
X121563947Y-136753895D01*
X121501161Y-136988214D01*
X121469500Y-137228711D01*
X94740500Y-137228711D01*
X94740500Y-137088712D01*
X94708838Y-136848211D01*
X94646054Y-136613900D01*
X94553224Y-136389788D01*
X94431936Y-136179711D01*
X94284265Y-135987262D01*
X94284260Y-135987256D01*
X94112743Y-135815739D01*
X94112736Y-135815733D01*
X93920293Y-135668067D01*
X93920292Y-135668066D01*
X93920289Y-135668064D01*
X93710212Y-135546776D01*
X93710205Y-135546773D01*
X93486104Y-135453947D01*
X93251785Y-135391161D01*
X93011289Y-135359500D01*
X93011288Y-135359500D01*
X92768712Y-135359500D01*
X92768711Y-135359500D01*
X92528214Y-135391161D01*
X92293895Y-135453947D01*
X92069794Y-135546773D01*
X92069785Y-135546777D01*
X91859706Y-135668067D01*
X91667263Y-135815733D01*
X91667256Y-135815739D01*
X91495739Y-135987256D01*
X91495733Y-135987263D01*
X91348067Y-136179706D01*
X91226777Y-136389785D01*
X91226773Y-136389794D01*
X91133947Y-136613895D01*
X91071161Y-136848214D01*
X91039500Y-137088711D01*
X80080500Y-137088711D01*
X80048838Y-136848211D01*
X79986054Y-136613900D01*
X79893224Y-136389788D01*
X79771936Y-136179711D01*
X79624265Y-135987262D01*
X79624260Y-135987256D01*
X79452743Y-135815739D01*
X79452736Y-135815733D01*
X79260293Y-135668067D01*
X79260292Y-135668066D01*
X79260289Y-135668064D01*
X79050212Y-135546776D01*
X79050205Y-135546773D01*
X78826104Y-135453947D01*
X78591785Y-135391161D01*
X78351289Y-135359500D01*
X78351288Y-135359500D01*
X78108712Y-135359500D01*
X78108711Y-135359500D01*
X77868214Y-135391161D01*
X77633895Y-135453947D01*
X77409794Y-135546773D01*
X77409785Y-135546777D01*
X77199706Y-135668067D01*
X77007263Y-135815733D01*
X77007256Y-135815739D01*
X76835739Y-135987256D01*
X76835733Y-135987263D01*
X76688067Y-136179706D01*
X76566777Y-136389785D01*
X76566773Y-136389794D01*
X76473947Y-136613895D01*
X76411161Y-136848214D01*
X76379500Y-137088711D01*
X75105018Y-137088711D01*
X75105018Y-127058711D01*
X76379500Y-127058711D01*
X76379500Y-127301288D01*
X76411161Y-127541785D01*
X76473947Y-127776104D01*
X76566773Y-128000205D01*
X76566776Y-128000212D01*
X76688064Y-128210289D01*
X76688066Y-128210292D01*
X76688067Y-128210293D01*
X76835733Y-128402736D01*
X76835739Y-128402743D01*
X77007256Y-128574260D01*
X77007263Y-128574266D01*
X77043692Y-128602219D01*
X77199711Y-128721936D01*
X77409788Y-128843224D01*
X77576521Y-128912287D01*
X77624076Y-128931985D01*
X77633900Y-128936054D01*
X77868211Y-128998838D01*
X78048586Y-129022584D01*
X78108711Y-129030500D01*
X78108712Y-129030500D01*
X78351289Y-129030500D01*
X78399388Y-129024167D01*
X78591789Y-128998838D01*
X78826100Y-128936054D01*
X79050212Y-128843224D01*
X79260289Y-128721936D01*
X79452738Y-128574265D01*
X79624265Y-128402738D01*
X79771936Y-128210289D01*
X79893224Y-128000212D01*
X79986054Y-127776100D01*
X80048838Y-127541789D01*
X80080500Y-127301288D01*
X80080500Y-127058712D01*
X80077312Y-127034500D01*
X80060898Y-126909816D01*
X80048838Y-126818211D01*
X79986054Y-126583900D01*
X79893224Y-126359788D01*
X79771936Y-126149711D01*
X79624265Y-125957262D01*
X79624260Y-125957256D01*
X79452743Y-125785739D01*
X79452736Y-125785733D01*
X79260293Y-125638067D01*
X79260292Y-125638066D01*
X79260289Y-125638064D01*
X79050212Y-125516776D01*
X79050205Y-125516773D01*
X78826104Y-125423947D01*
X78591785Y-125361161D01*
X78351289Y-125329500D01*
X78351288Y-125329500D01*
X78108712Y-125329500D01*
X78108711Y-125329500D01*
X77868214Y-125361161D01*
X77633895Y-125423947D01*
X77409794Y-125516773D01*
X77409785Y-125516777D01*
X77199706Y-125638067D01*
X77007263Y-125785733D01*
X77007256Y-125785739D01*
X76835739Y-125957256D01*
X76835733Y-125957263D01*
X76688067Y-126149706D01*
X76566777Y-126359785D01*
X76566773Y-126359794D01*
X76473947Y-126583895D01*
X76411161Y-126818214D01*
X76379500Y-127058711D01*
X75105018Y-127058711D01*
X75105018Y-109188711D01*
X76319500Y-109188711D01*
X76319500Y-109431288D01*
X76339933Y-109586500D01*
X76351162Y-109671789D01*
X76364107Y-109720099D01*
X76413947Y-109906104D01*
X76493246Y-110097547D01*
X76506776Y-110130212D01*
X76628064Y-110340289D01*
X76628066Y-110340292D01*
X76628067Y-110340293D01*
X76775733Y-110532736D01*
X76775739Y-110532743D01*
X76947256Y-110704260D01*
X76947263Y-110704266D01*
X76996794Y-110742272D01*
X77139711Y-110851936D01*
X77349788Y-110973224D01*
X77573900Y-111066054D01*
X77808211Y-111128838D01*
X77988586Y-111152584D01*
X78048711Y-111160500D01*
X78048712Y-111160500D01*
X78291289Y-111160500D01*
X78339388Y-111154167D01*
X78531789Y-111128838D01*
X78766100Y-111066054D01*
X78990212Y-110973224D01*
X79200289Y-110851936D01*
X79392738Y-110704265D01*
X79564265Y-110532738D01*
X79711936Y-110340289D01*
X79833224Y-110130212D01*
X79926054Y-109906100D01*
X79988838Y-109671789D01*
X80020500Y-109431288D01*
X80020500Y-109188712D01*
X79988838Y-108948211D01*
X79926054Y-108713900D01*
X79833224Y-108489788D01*
X79711936Y-108279711D01*
X79641319Y-108187681D01*
X79564266Y-108087263D01*
X79564260Y-108087256D01*
X79392743Y-107915739D01*
X79392736Y-107915733D01*
X79200293Y-107768067D01*
X79200292Y-107768066D01*
X79200289Y-107768064D01*
X78994168Y-107649060D01*
X78990214Y-107646777D01*
X78990205Y-107646773D01*
X78766104Y-107553947D01*
X78531785Y-107491161D01*
X78291289Y-107459500D01*
X78291288Y-107459500D01*
X78048712Y-107459500D01*
X78048711Y-107459500D01*
X77808214Y-107491161D01*
X77573895Y-107553947D01*
X77349794Y-107646773D01*
X77349785Y-107646777D01*
X77167851Y-107751817D01*
X77140607Y-107767547D01*
X77139706Y-107768067D01*
X76947263Y-107915733D01*
X76947256Y-107915739D01*
X76775739Y-108087256D01*
X76775733Y-108087263D01*
X76628067Y-108279706D01*
X76628064Y-108279710D01*
X76628064Y-108279711D01*
X76618941Y-108295512D01*
X76506777Y-108489785D01*
X76506773Y-108489794D01*
X76413947Y-108713895D01*
X76351161Y-108948214D01*
X76319500Y-109188711D01*
X75105018Y-109188711D01*
X75105018Y-94998711D01*
X76319500Y-94998711D01*
X76319500Y-95241288D01*
X76351161Y-95481785D01*
X76413947Y-95716104D01*
X76496862Y-95916277D01*
X76506776Y-95940212D01*
X76628064Y-96150289D01*
X76628066Y-96150292D01*
X76628067Y-96150293D01*
X76775733Y-96342736D01*
X76775739Y-96342743D01*
X76947256Y-96514260D01*
X76947262Y-96514265D01*
X77139711Y-96661936D01*
X77349788Y-96783224D01*
X77573900Y-96876054D01*
X77808211Y-96938838D01*
X77988586Y-96962584D01*
X78048711Y-96970500D01*
X78048712Y-96970500D01*
X78291289Y-96970500D01*
X78339388Y-96964167D01*
X78531789Y-96938838D01*
X78766100Y-96876054D01*
X78990212Y-96783224D01*
X79200289Y-96661936D01*
X79392738Y-96514265D01*
X79564265Y-96342738D01*
X79711936Y-96150289D01*
X79833224Y-95940212D01*
X79926054Y-95716100D01*
X79988838Y-95481789D01*
X80020500Y-95241288D01*
X80020500Y-94998712D01*
X80015357Y-94959650D01*
X80005362Y-94883726D01*
X79988838Y-94758211D01*
X79926054Y-94523900D01*
X79833224Y-94299788D01*
X79711936Y-94089711D01*
X79630533Y-93983624D01*
X79564266Y-93897263D01*
X79564260Y-93897256D01*
X79392743Y-93725739D01*
X79392736Y-93725733D01*
X79200293Y-93578067D01*
X79200292Y-93578066D01*
X79200289Y-93578064D01*
X78990212Y-93456776D01*
X78990205Y-93456773D01*
X78766104Y-93363947D01*
X78531785Y-93301161D01*
X78291289Y-93269500D01*
X78291288Y-93269500D01*
X78048712Y-93269500D01*
X78048711Y-93269500D01*
X77808214Y-93301161D01*
X77573895Y-93363947D01*
X77349794Y-93456773D01*
X77349785Y-93456777D01*
X77139706Y-93578067D01*
X76947263Y-93725733D01*
X76947256Y-93725739D01*
X76775739Y-93897256D01*
X76775733Y-93897263D01*
X76628067Y-94089706D01*
X76506777Y-94299785D01*
X76506773Y-94299794D01*
X76413947Y-94523895D01*
X76351161Y-94758214D01*
X76319500Y-94998711D01*
X75105018Y-94998711D01*
X75105018Y-87808392D01*
X83974500Y-87808392D01*
X83974500Y-89211608D01*
X83976242Y-89229293D01*
X83989699Y-89365932D01*
X84049769Y-89563956D01*
X84104858Y-89667019D01*
X84119500Y-89725473D01*
X84119500Y-125242351D01*
X84151522Y-125444534D01*
X84214781Y-125639223D01*
X84225424Y-125660110D01*
X84252043Y-125712352D01*
X84307713Y-125821611D01*
X84428034Y-125987219D01*
X90482781Y-132041966D01*
X90648389Y-132162287D01*
X90739585Y-132208753D01*
X90830781Y-132255220D01*
X90928123Y-132286848D01*
X91025465Y-132318477D01*
X91227648Y-132350500D01*
X91227649Y-132350500D01*
X109552351Y-132350500D01*
X109552352Y-132350500D01*
X109754535Y-132318477D01*
X109851876Y-132286848D01*
X109949219Y-132255220D01*
X110040414Y-132208753D01*
X110131611Y-132162287D01*
X110297219Y-132041966D01*
X113179197Y-129159986D01*
X125485001Y-129159986D01*
X125495494Y-129262697D01*
X125550641Y-129429119D01*
X125550643Y-129429124D01*
X125642684Y-129578345D01*
X125766654Y-129702315D01*
X125915875Y-129794356D01*
X125915880Y-129794358D01*
X126082302Y-129849505D01*
X126082309Y-129849506D01*
X126185019Y-129859999D01*
X126609999Y-129859999D01*
X127110000Y-129859999D01*
X127534972Y-129859999D01*
X127534986Y-129859998D01*
X127637697Y-129849505D01*
X127804119Y-129794358D01*
X127804124Y-129794356D01*
X127953345Y-129702315D01*
X128077315Y-129578345D01*
X128169356Y-129429124D01*
X128169358Y-129429119D01*
X128224505Y-129262697D01*
X128224506Y-129262690D01*
X128234999Y-129159986D01*
X128235000Y-129159973D01*
X128235000Y-128960000D01*
X127110000Y-128960000D01*
X127110000Y-129859999D01*
X126609999Y-129859999D01*
X126610000Y-129859998D01*
X126610000Y-128960000D01*
X125485001Y-128960000D01*
X125485001Y-129159986D01*
X113179197Y-129159986D01*
X114079170Y-128260013D01*
X125485000Y-128260013D01*
X125485000Y-128460000D01*
X126610000Y-128460000D01*
X127110000Y-128460000D01*
X128234999Y-128460000D01*
X128234999Y-128260028D01*
X128234998Y-128260013D01*
X128224505Y-128157302D01*
X128169358Y-127990880D01*
X128169356Y-127990875D01*
X128077315Y-127841654D01*
X127953345Y-127717684D01*
X127804124Y-127625643D01*
X127804119Y-127625641D01*
X127637697Y-127570494D01*
X127637690Y-127570493D01*
X127534986Y-127560000D01*
X127110000Y-127560000D01*
X127110000Y-128460000D01*
X126610000Y-128460000D01*
X126610000Y-127560000D01*
X126185028Y-127560000D01*
X126185012Y-127560001D01*
X126082302Y-127570494D01*
X125915880Y-127625641D01*
X125915875Y-127625643D01*
X125766654Y-127717684D01*
X125642684Y-127841654D01*
X125550643Y-127990875D01*
X125550641Y-127990880D01*
X125495494Y-128157302D01*
X125495493Y-128157309D01*
X125485000Y-128260013D01*
X114079170Y-128260013D01*
X115142365Y-127196818D01*
X115203688Y-127163334D01*
X115230046Y-127160500D01*
X116584957Y-127160500D01*
X116584958Y-127160499D01*
X116652104Y-127152934D01*
X116719249Y-127145369D01*
X116719252Y-127145368D01*
X116719255Y-127145368D01*
X116889522Y-127085789D01*
X117042262Y-126989816D01*
X117169816Y-126862262D01*
X117265789Y-126709522D01*
X117325368Y-126539255D01*
X117325369Y-126539249D01*
X117340500Y-126404958D01*
X117340500Y-124115043D01*
X117340499Y-124115039D01*
X117325369Y-123980750D01*
X117325368Y-123980745D01*
X117298689Y-123904500D01*
X117265789Y-123810478D01*
X117169816Y-123657738D01*
X117042262Y-123530184D01*
X116889523Y-123434211D01*
X116719254Y-123374631D01*
X116719249Y-123374630D01*
X116584960Y-123359500D01*
X116584954Y-123359500D01*
X113895046Y-123359500D01*
X113895039Y-123359500D01*
X113760750Y-123374630D01*
X113760745Y-123374631D01*
X113590476Y-123434211D01*
X113437737Y-123530184D01*
X113310184Y-123657737D01*
X113214211Y-123810476D01*
X113154631Y-123980745D01*
X113154630Y-123980750D01*
X113139500Y-124115039D01*
X113139500Y-124302751D01*
X113119815Y-124369790D01*
X113067011Y-124415545D01*
X112997853Y-124425489D01*
X112934297Y-124396464D01*
X112915182Y-124375637D01*
X112800409Y-124217668D01*
X112800409Y-124217667D01*
X112622332Y-124039590D01*
X112418583Y-123891557D01*
X112194184Y-123777219D01*
X111954669Y-123699397D01*
X111705928Y-123660000D01*
X111630000Y-123660000D01*
X111630000Y-124769252D01*
X111592292Y-124747482D01*
X111452409Y-124710000D01*
X111307591Y-124710000D01*
X111167708Y-124747482D01*
X111130000Y-124769252D01*
X111130000Y-123660000D01*
X111054072Y-123660000D01*
X110805330Y-123699397D01*
X110565815Y-123777219D01*
X110341416Y-123891557D01*
X110137668Y-124039590D01*
X110137667Y-124039590D01*
X109959590Y-124217667D01*
X109959590Y-124217668D01*
X109811557Y-124421416D01*
X109697219Y-124645815D01*
X109619397Y-124885328D01*
X109619397Y-124885331D01*
X109599652Y-125010000D01*
X110889252Y-125010000D01*
X110867482Y-125047708D01*
X110830000Y-125187591D01*
X110830000Y-125332409D01*
X110867482Y-125472292D01*
X110889252Y-125510000D01*
X109599652Y-125510000D01*
X109619397Y-125634668D01*
X109619397Y-125634671D01*
X109697219Y-125874184D01*
X109811557Y-126098583D01*
X109959590Y-126302331D01*
X109959590Y-126302332D01*
X110137667Y-126480409D01*
X110341416Y-126628442D01*
X110565815Y-126742780D01*
X110805330Y-126820602D01*
X111054072Y-126860000D01*
X111130000Y-126860000D01*
X111130000Y-125750747D01*
X111167708Y-125772518D01*
X111307591Y-125810000D01*
X111452409Y-125810000D01*
X111592292Y-125772518D01*
X111630000Y-125750747D01*
X111630000Y-126861890D01*
X111661211Y-126919049D01*
X111656227Y-126988741D01*
X111627726Y-127033088D01*
X108947634Y-129713181D01*
X108886311Y-129746666D01*
X108859953Y-129749500D01*
X96809047Y-129749500D01*
X96742008Y-129729815D01*
X96696253Y-129677011D01*
X96686309Y-129607853D01*
X96715334Y-129544297D01*
X96721366Y-129537819D01*
X96830066Y-129429119D01*
X97031966Y-129227219D01*
X97152287Y-129061611D01*
X97228371Y-128912287D01*
X97245220Y-128879219D01*
X97276848Y-128781876D01*
X97308477Y-128684535D01*
X97340500Y-128482352D01*
X97340500Y-128277649D01*
X97340500Y-127196322D01*
X97360185Y-127129283D01*
X97412989Y-127083528D01*
X97450617Y-127073102D01*
X97519249Y-127065369D01*
X97519252Y-127065368D01*
X97519255Y-127065368D01*
X97689522Y-127005789D01*
X97842262Y-126909816D01*
X97969816Y-126782262D01*
X98065789Y-126629522D01*
X98125368Y-126459255D01*
X98127492Y-126440409D01*
X98136575Y-126359788D01*
X98140500Y-126324954D01*
X98140500Y-124970000D01*
X98489652Y-124970000D01*
X99779252Y-124970000D01*
X99757482Y-125007708D01*
X99720000Y-125147591D01*
X99720000Y-125292409D01*
X99757482Y-125432292D01*
X99779252Y-125470000D01*
X98489652Y-125470000D01*
X98509397Y-125594668D01*
X98509397Y-125594671D01*
X98587219Y-125834184D01*
X98701557Y-126058583D01*
X98849590Y-126262331D01*
X98849590Y-126262332D01*
X99027667Y-126440409D01*
X99231416Y-126588442D01*
X99455815Y-126702780D01*
X99695330Y-126780602D01*
X99944072Y-126820000D01*
X100020000Y-126820000D01*
X100020000Y-125710747D01*
X100057708Y-125732518D01*
X100197591Y-125770000D01*
X100342409Y-125770000D01*
X100482292Y-125732518D01*
X100520000Y-125710747D01*
X100520000Y-126820000D01*
X100595928Y-126820000D01*
X100844669Y-126780602D01*
X101084184Y-126702780D01*
X101308583Y-126588442D01*
X101512331Y-126440409D01*
X101512332Y-126440409D01*
X101690409Y-126262332D01*
X101690409Y-126262331D01*
X101838442Y-126058583D01*
X101952780Y-125834184D01*
X102030602Y-125594671D01*
X102030602Y-125594668D01*
X102050349Y-125470000D01*
X100760748Y-125470000D01*
X100782518Y-125432292D01*
X100820000Y-125292409D01*
X100820000Y-125147591D01*
X100782518Y-125007708D01*
X100760748Y-124970000D01*
X102050348Y-124970000D01*
X102050348Y-124969999D01*
X102030602Y-124845331D01*
X102030602Y-124845328D01*
X101952780Y-124605815D01*
X101838442Y-124381416D01*
X101690409Y-124177668D01*
X101690409Y-124177667D01*
X101512332Y-123999590D01*
X101308583Y-123851557D01*
X101084184Y-123737219D01*
X100844669Y-123659397D01*
X100595928Y-123620000D01*
X100520000Y-123620000D01*
X100520000Y-124729252D01*
X100482292Y-124707482D01*
X100342409Y-124670000D01*
X100197591Y-124670000D01*
X100057708Y-124707482D01*
X100020000Y-124729252D01*
X100020000Y-123620000D01*
X99944072Y-123620000D01*
X99695330Y-123659397D01*
X99455815Y-123737219D01*
X99231416Y-123851557D01*
X99027668Y-123999590D01*
X99027667Y-123999590D01*
X98849590Y-124177667D01*
X98849590Y-124177668D01*
X98701557Y-124381416D01*
X98587219Y-124605815D01*
X98509397Y-124845328D01*
X98509397Y-124845331D01*
X98489652Y-124970000D01*
X98140500Y-124970000D01*
X98140500Y-124035046D01*
X98127504Y-123919699D01*
X98125369Y-123900750D01*
X98125368Y-123900745D01*
X98093782Y-123810478D01*
X98065789Y-123730478D01*
X98046259Y-123699397D01*
X97969815Y-123577737D01*
X97842262Y-123450184D01*
X97689523Y-123354211D01*
X97519254Y-123294631D01*
X97519249Y-123294630D01*
X97384960Y-123279500D01*
X97384954Y-123279500D01*
X94695046Y-123279500D01*
X94695039Y-123279500D01*
X94560750Y-123294630D01*
X94560745Y-123294631D01*
X94390476Y-123354211D01*
X94237737Y-123450184D01*
X94110184Y-123577737D01*
X94014211Y-123730476D01*
X93954631Y-123900745D01*
X93954630Y-123900750D01*
X93939500Y-124035039D01*
X93939500Y-126324960D01*
X93954630Y-126459249D01*
X93954631Y-126459254D01*
X94014211Y-126629523D01*
X94060242Y-126702780D01*
X94110184Y-126782262D01*
X94237738Y-126909816D01*
X94328080Y-126966582D01*
X94365055Y-126989815D01*
X94390478Y-127005789D01*
X94503394Y-127045300D01*
X94560745Y-127065368D01*
X94560750Y-127065369D01*
X94629383Y-127073102D01*
X94693797Y-127100168D01*
X94733352Y-127157763D01*
X94739500Y-127196322D01*
X94739500Y-127789953D01*
X94719815Y-127856992D01*
X94703181Y-127877634D01*
X92867634Y-129713181D01*
X92806311Y-129746666D01*
X92779953Y-129749500D01*
X91920047Y-129749500D01*
X91853008Y-129729815D01*
X91832366Y-129713181D01*
X86756819Y-124637634D01*
X86723334Y-124576311D01*
X86720500Y-124549953D01*
X86720500Y-110319818D01*
X90680000Y-110319818D01*
X90680000Y-110380000D01*
X91764314Y-110380000D01*
X91759920Y-110384394D01*
X91707259Y-110475606D01*
X91680000Y-110577339D01*
X91680000Y-110682661D01*
X91707259Y-110784394D01*
X91759920Y-110875606D01*
X91764314Y-110880000D01*
X90680000Y-110880000D01*
X90680000Y-110940181D01*
X90714473Y-111157835D01*
X90782567Y-111367410D01*
X90882613Y-111563760D01*
X91012142Y-111742041D01*
X91167958Y-111897857D01*
X91346239Y-112027386D01*
X91542589Y-112127432D01*
X91752163Y-112195526D01*
X91829999Y-112207854D01*
X91830000Y-112207854D01*
X91830000Y-110945686D01*
X91834394Y-110950080D01*
X91925606Y-111002741D01*
X92027339Y-111030000D01*
X92132661Y-111030000D01*
X92234394Y-111002741D01*
X92325606Y-110950080D01*
X92330000Y-110945686D01*
X92330000Y-112207854D01*
X92407834Y-112195526D01*
X92407837Y-112195526D01*
X92617410Y-112127432D01*
X92813760Y-112027386D01*
X92992041Y-111897857D01*
X93147857Y-111742041D01*
X93277386Y-111563760D01*
X93377432Y-111367410D01*
X93445526Y-111157835D01*
X93480000Y-110940181D01*
X93480000Y-110880000D01*
X92395686Y-110880000D01*
X92400080Y-110875606D01*
X92452741Y-110784394D01*
X92480000Y-110682661D01*
X92480000Y-110577339D01*
X92452741Y-110475606D01*
X92400080Y-110384394D01*
X92395686Y-110380000D01*
X93480000Y-110380000D01*
X93480000Y-110319818D01*
X93445526Y-110102164D01*
X93377432Y-109892589D01*
X93277386Y-109696239D01*
X93147857Y-109517958D01*
X92992041Y-109362142D01*
X92813760Y-109232613D01*
X92617410Y-109132567D01*
X92407836Y-109064473D01*
X92330000Y-109052144D01*
X92330000Y-110314314D01*
X92325606Y-110309920D01*
X92234394Y-110257259D01*
X92132661Y-110230000D01*
X92027339Y-110230000D01*
X91925606Y-110257259D01*
X91834394Y-110309920D01*
X91830000Y-110314314D01*
X91830000Y-109052144D01*
X91752164Y-109064473D01*
X91752161Y-109064473D01*
X91542589Y-109132567D01*
X91346239Y-109232613D01*
X91167958Y-109362142D01*
X91012142Y-109517958D01*
X90882613Y-109696239D01*
X90782567Y-109892589D01*
X90714473Y-110102164D01*
X90680000Y-110319818D01*
X86720500Y-110319818D01*
X86720500Y-106249986D01*
X91945001Y-106249986D01*
X91955494Y-106352697D01*
X92010641Y-106519119D01*
X92010643Y-106519124D01*
X92102684Y-106668345D01*
X92226654Y-106792315D01*
X92375875Y-106884356D01*
X92375880Y-106884358D01*
X92542302Y-106939505D01*
X92542309Y-106939506D01*
X92645019Y-106949999D01*
X92857499Y-106949999D01*
X93357500Y-106949999D01*
X93569972Y-106949999D01*
X93569986Y-106949998D01*
X93672697Y-106939505D01*
X93839119Y-106884358D01*
X93839124Y-106884356D01*
X93988345Y-106792315D01*
X94112315Y-106668345D01*
X94204356Y-106519124D01*
X94204358Y-106519119D01*
X94259505Y-106352697D01*
X94259506Y-106352690D01*
X94269999Y-106249986D01*
X94270000Y-106249973D01*
X94270000Y-105800000D01*
X93357500Y-105800000D01*
X93357500Y-106949999D01*
X92857499Y-106949999D01*
X92857500Y-106949998D01*
X92857500Y-105800000D01*
X91945001Y-105800000D01*
X91945001Y-106249986D01*
X86720500Y-106249986D01*
X86720500Y-104850013D01*
X91945000Y-104850013D01*
X91945000Y-105300000D01*
X92857500Y-105300000D01*
X93357500Y-105300000D01*
X94269999Y-105300000D01*
X94269999Y-104850028D01*
X94269998Y-104850013D01*
X94259505Y-104747302D01*
X94204358Y-104580880D01*
X94204356Y-104580875D01*
X94112315Y-104431654D01*
X93988345Y-104307684D01*
X93839124Y-104215643D01*
X93839119Y-104215641D01*
X93672697Y-104160494D01*
X93672690Y-104160493D01*
X93569986Y-104150000D01*
X93357500Y-104150000D01*
X93357500Y-105300000D01*
X92857500Y-105300000D01*
X92857500Y-104150000D01*
X92645029Y-104150000D01*
X92645012Y-104150001D01*
X92542302Y-104160494D01*
X92375880Y-104215641D01*
X92375875Y-104215643D01*
X92226654Y-104307684D01*
X92102684Y-104431654D01*
X92010643Y-104580875D01*
X92010641Y-104580880D01*
X91955494Y-104747302D01*
X91955493Y-104747309D01*
X91945000Y-104850013D01*
X86720500Y-104850013D01*
X86720500Y-92649818D01*
X91380000Y-92649818D01*
X91380000Y-92710000D01*
X92464314Y-92710000D01*
X92459920Y-92714394D01*
X92407259Y-92805606D01*
X92380000Y-92907339D01*
X92380000Y-93012661D01*
X92407259Y-93114394D01*
X92459920Y-93205606D01*
X92464314Y-93210000D01*
X91380000Y-93210000D01*
X91380000Y-93270181D01*
X91414473Y-93487835D01*
X91482567Y-93697410D01*
X91582613Y-93893760D01*
X91712142Y-94072041D01*
X91867958Y-94227857D01*
X92046239Y-94357386D01*
X92242589Y-94457432D01*
X92452163Y-94525526D01*
X92529999Y-94537854D01*
X92530000Y-94537854D01*
X92530000Y-93275686D01*
X92534394Y-93280080D01*
X92625606Y-93332741D01*
X92727339Y-93360000D01*
X92832661Y-93360000D01*
X92934394Y-93332741D01*
X93025606Y-93280080D01*
X93030000Y-93275686D01*
X93030000Y-94537854D01*
X93107834Y-94525526D01*
X93107837Y-94525526D01*
X93317410Y-94457432D01*
X93513760Y-94357386D01*
X93692041Y-94227857D01*
X93847857Y-94072041D01*
X93977386Y-93893760D01*
X94077432Y-93697410D01*
X94145526Y-93487835D01*
X94180000Y-93270181D01*
X94180000Y-93210000D01*
X93095686Y-93210000D01*
X93100080Y-93205606D01*
X93152741Y-93114394D01*
X93180000Y-93012661D01*
X93180000Y-92907339D01*
X93152741Y-92805606D01*
X93100080Y-92714394D01*
X93095686Y-92710000D01*
X94180000Y-92710000D01*
X94180000Y-92649818D01*
X94145526Y-92432164D01*
X94077432Y-92222589D01*
X93977386Y-92026239D01*
X93847857Y-91847958D01*
X93692041Y-91692142D01*
X93513760Y-91562613D01*
X93317410Y-91462567D01*
X93107836Y-91394473D01*
X93030000Y-91382144D01*
X93030000Y-92644314D01*
X93025606Y-92639920D01*
X92934394Y-92587259D01*
X92832661Y-92560000D01*
X92727339Y-92560000D01*
X92625606Y-92587259D01*
X92534394Y-92639920D01*
X92530000Y-92644314D01*
X92530000Y-91382144D01*
X92452164Y-91394473D01*
X92452161Y-91394473D01*
X92242589Y-91462567D01*
X92046239Y-91562613D01*
X91867958Y-91692142D01*
X91712142Y-91847958D01*
X91582613Y-92026239D01*
X91482567Y-92222589D01*
X91414473Y-92432164D01*
X91380000Y-92649818D01*
X86720500Y-92649818D01*
X86720500Y-89790952D01*
X86735141Y-89732499D01*
X86825232Y-89563954D01*
X86885300Y-89365934D01*
X86900500Y-89211608D01*
X86900500Y-89209986D01*
X87400001Y-89209986D01*
X87410494Y-89312697D01*
X87465641Y-89479119D01*
X87465643Y-89479124D01*
X87557684Y-89628345D01*
X87681654Y-89752315D01*
X87830875Y-89844356D01*
X87830880Y-89844358D01*
X87997302Y-89899505D01*
X87997309Y-89899506D01*
X88100019Y-89909999D01*
X88312499Y-89909999D01*
X88812500Y-89909999D01*
X89024972Y-89909999D01*
X89024986Y-89909998D01*
X89127697Y-89899505D01*
X89294119Y-89844358D01*
X89294124Y-89844356D01*
X89443345Y-89752315D01*
X89567315Y-89628345D01*
X89659356Y-89479124D01*
X89659358Y-89479119D01*
X89714505Y-89312697D01*
X89714506Y-89312690D01*
X89724999Y-89209986D01*
X89725000Y-89209973D01*
X89725000Y-88760000D01*
X88812500Y-88760000D01*
X88812500Y-89909999D01*
X88312499Y-89909999D01*
X88312500Y-89909998D01*
X88312500Y-88760000D01*
X87400001Y-88760000D01*
X87400001Y-89209986D01*
X86900500Y-89209986D01*
X86900500Y-87810013D01*
X87400000Y-87810013D01*
X87400000Y-88260000D01*
X88312500Y-88260000D01*
X88812500Y-88260000D01*
X89724999Y-88260000D01*
X89724999Y-87810028D01*
X89724998Y-87810013D01*
X89714505Y-87707302D01*
X89659358Y-87540880D01*
X89659356Y-87540875D01*
X89567315Y-87391654D01*
X89443345Y-87267684D01*
X89294124Y-87175643D01*
X89294119Y-87175641D01*
X89127697Y-87120494D01*
X89127690Y-87120493D01*
X89024986Y-87110000D01*
X88812500Y-87110000D01*
X88812500Y-88260000D01*
X88312500Y-88260000D01*
X88312500Y-87110000D01*
X88100029Y-87110000D01*
X88100012Y-87110001D01*
X87997302Y-87120494D01*
X87830880Y-87175641D01*
X87830875Y-87175643D01*
X87681654Y-87267684D01*
X87557684Y-87391654D01*
X87465643Y-87540875D01*
X87465641Y-87540880D01*
X87410494Y-87707302D01*
X87410493Y-87707309D01*
X87400000Y-87810013D01*
X86900500Y-87810013D01*
X86900500Y-87808392D01*
X86885300Y-87654066D01*
X86825232Y-87456046D01*
X86735141Y-87287500D01*
X86720500Y-87229047D01*
X86720500Y-84340046D01*
X86740185Y-84273007D01*
X86756819Y-84252365D01*
X90692365Y-80316819D01*
X90753688Y-80283334D01*
X90780046Y-80280500D01*
X94074083Y-80280500D01*
X94141122Y-80300185D01*
X94186877Y-80352989D01*
X94191125Y-80363546D01*
X94214210Y-80429521D01*
X94237954Y-80467309D01*
X94310184Y-80582262D01*
X94437738Y-80709816D01*
X94590478Y-80805789D01*
X94760745Y-80865368D01*
X94760750Y-80865369D01*
X94851246Y-80875565D01*
X94895040Y-80880499D01*
X94895043Y-80880500D01*
X94895046Y-80880500D01*
X97184957Y-80880500D01*
X97184958Y-80880499D01*
X97252104Y-80872934D01*
X97319249Y-80865369D01*
X97319252Y-80865368D01*
X97319255Y-80865368D01*
X97489522Y-80805789D01*
X97642262Y-80709816D01*
X97769816Y-80582262D01*
X97865789Y-80429522D01*
X97925368Y-80259255D01*
X97930237Y-80216046D01*
X97937119Y-80154960D01*
X97940500Y-80124954D01*
X97940500Y-78970045D01*
X97960185Y-78903006D01*
X97976814Y-78882369D01*
X98300999Y-78558184D01*
X98362320Y-78524701D01*
X98432012Y-78529685D01*
X98487945Y-78571557D01*
X98512362Y-78637021D01*
X98511151Y-78665265D01*
X98500898Y-78730000D01*
X99789252Y-78730000D01*
X99767482Y-78767708D01*
X99730000Y-78907591D01*
X99730000Y-79052409D01*
X99767482Y-79192292D01*
X99789252Y-79230000D01*
X98500898Y-79230000D01*
X98516934Y-79331247D01*
X98589897Y-79555802D01*
X98697085Y-79766171D01*
X98835866Y-79957186D01*
X99002813Y-80124133D01*
X99193828Y-80262914D01*
X99404197Y-80370102D01*
X99628752Y-80443065D01*
X99628751Y-80443065D01*
X99861948Y-80480000D01*
X100030000Y-80480000D01*
X100030000Y-79470747D01*
X100067708Y-79492518D01*
X100207591Y-79530000D01*
X100352409Y-79530000D01*
X100492292Y-79492518D01*
X100530000Y-79470747D01*
X100530000Y-80480000D01*
X100698052Y-80480000D01*
X100931247Y-80443065D01*
X101155802Y-80370102D01*
X101366171Y-80262914D01*
X101557186Y-80124133D01*
X101724133Y-79957186D01*
X101862914Y-79766171D01*
X101970102Y-79555802D01*
X102043065Y-79331247D01*
X102059102Y-79230000D01*
X100770748Y-79230000D01*
X100792518Y-79192292D01*
X100830000Y-79052409D01*
X100830000Y-78907591D01*
X100792518Y-78767708D01*
X100788068Y-78760000D01*
X109520898Y-78760000D01*
X110809252Y-78760000D01*
X110787482Y-78797708D01*
X110750000Y-78937591D01*
X110750000Y-79082409D01*
X110787482Y-79222292D01*
X110809252Y-79260000D01*
X109520898Y-79260000D01*
X109536934Y-79361247D01*
X109609897Y-79585802D01*
X109717085Y-79796171D01*
X109855866Y-79987186D01*
X110022813Y-80154133D01*
X110213828Y-80292914D01*
X110424197Y-80400102D01*
X110648752Y-80473065D01*
X110648751Y-80473065D01*
X110881948Y-80510000D01*
X111050000Y-80510000D01*
X111050000Y-79500747D01*
X111087708Y-79522518D01*
X111227591Y-79560000D01*
X111372409Y-79560000D01*
X111512292Y-79522518D01*
X111550000Y-79500747D01*
X111550000Y-80510000D01*
X111718052Y-80510000D01*
X111951247Y-80473065D01*
X112175802Y-80400102D01*
X112386171Y-80292914D01*
X112577186Y-80154133D01*
X112744133Y-79987186D01*
X112882914Y-79796171D01*
X112990102Y-79585802D01*
X113063065Y-79361247D01*
X113079102Y-79260000D01*
X111790748Y-79260000D01*
X111812518Y-79222292D01*
X111850000Y-79082409D01*
X111850000Y-78937591D01*
X111812518Y-78797708D01*
X111790748Y-78760000D01*
X113079102Y-78760000D01*
X113063065Y-78658752D01*
X112990102Y-78434197D01*
X112882914Y-78223828D01*
X112744133Y-78032813D01*
X112577186Y-77865866D01*
X112386171Y-77727085D01*
X112175802Y-77619897D01*
X111951247Y-77546934D01*
X111951248Y-77546934D01*
X111718052Y-77510000D01*
X111550000Y-77510000D01*
X111550000Y-78519252D01*
X111512292Y-78497482D01*
X111372409Y-78460000D01*
X111227591Y-78460000D01*
X111087708Y-78497482D01*
X111050000Y-78519252D01*
X111050000Y-77510000D01*
X110881948Y-77510000D01*
X110648752Y-77546934D01*
X110424197Y-77619897D01*
X110213828Y-77727085D01*
X110022813Y-77865866D01*
X109855866Y-78032813D01*
X109717085Y-78223828D01*
X109609897Y-78434197D01*
X109536934Y-78658752D01*
X109520898Y-78760000D01*
X100788068Y-78760000D01*
X100770748Y-78730000D01*
X102059102Y-78730000D01*
X102043065Y-78628752D01*
X101970102Y-78404197D01*
X101862914Y-78193828D01*
X101724133Y-78002813D01*
X101557186Y-77835866D01*
X101366171Y-77697085D01*
X101155802Y-77589897D01*
X100931247Y-77516934D01*
X100931248Y-77516934D01*
X100698052Y-77480000D01*
X100530000Y-77480000D01*
X100530000Y-78489252D01*
X100492292Y-78467482D01*
X100352409Y-78430000D01*
X100207591Y-78430000D01*
X100067708Y-78467482D01*
X100030000Y-78489252D01*
X100030000Y-77480000D01*
X99861948Y-77480000D01*
X99665265Y-77511151D01*
X99595971Y-77502196D01*
X99542519Y-77457200D01*
X99521880Y-77390448D01*
X99540605Y-77323135D01*
X99558182Y-77301001D01*
X100352365Y-76506819D01*
X100413688Y-76473334D01*
X100440046Y-76470500D01*
X115140953Y-76470500D01*
X115207992Y-76490185D01*
X115253747Y-76542989D01*
X115263691Y-76612147D01*
X115234666Y-76675703D01*
X115228634Y-76682181D01*
X114837634Y-77073181D01*
X114776311Y-77106666D01*
X114749953Y-77109500D01*
X114115039Y-77109500D01*
X113980750Y-77124630D01*
X113980745Y-77124631D01*
X113810476Y-77184211D01*
X113657737Y-77280184D01*
X113530184Y-77407737D01*
X113434211Y-77560476D01*
X113374631Y-77730745D01*
X113374630Y-77730750D01*
X113359500Y-77865039D01*
X113359500Y-80154960D01*
X113374630Y-80289249D01*
X113374631Y-80289254D01*
X113434211Y-80459523D01*
X113511334Y-80582262D01*
X113530184Y-80612262D01*
X113657738Y-80739816D01*
X113810478Y-80835789D01*
X113895010Y-80865368D01*
X113980745Y-80895368D01*
X113980750Y-80895369D01*
X114071246Y-80905565D01*
X114115040Y-80910499D01*
X114115043Y-80910500D01*
X114115046Y-80910500D01*
X116404957Y-80910500D01*
X116404958Y-80910499D01*
X116472104Y-80902934D01*
X116539249Y-80895369D01*
X116539252Y-80895368D01*
X116539255Y-80895368D01*
X116709522Y-80835789D01*
X116862262Y-80739816D01*
X116989816Y-80612262D01*
X117085789Y-80459522D01*
X117145368Y-80289255D01*
X117146355Y-80280500D01*
X117153617Y-80216043D01*
X117160500Y-80154954D01*
X117160500Y-78480047D01*
X117180185Y-78413008D01*
X117196819Y-78392366D01*
X119082366Y-76506819D01*
X119143689Y-76473334D01*
X119170047Y-76470500D01*
X124340953Y-76470500D01*
X124407992Y-76490185D01*
X124453747Y-76542989D01*
X124463691Y-76612147D01*
X124434666Y-76675703D01*
X124428634Y-76682181D01*
X118718036Y-82392778D01*
X118597716Y-82558384D01*
X118597714Y-82558387D01*
X118557752Y-82636817D01*
X118557739Y-82636842D01*
X118557296Y-82637713D01*
X118504780Y-82740781D01*
X118504780Y-82740782D01*
X118500574Y-82753724D01*
X118500571Y-82753732D01*
X118441522Y-82935467D01*
X118441521Y-82935469D01*
X118435974Y-82970499D01*
X118435974Y-82970500D01*
X118409500Y-83137648D01*
X118409500Y-95101423D01*
X118401462Y-95128796D01*
X118396408Y-95156879D01*
X118391021Y-95164351D01*
X118389815Y-95168462D01*
X118376292Y-95185879D01*
X118374759Y-95187526D01*
X118278062Y-95284224D01*
X118246277Y-95325647D01*
X118242269Y-95329956D01*
X118217081Y-95344915D01*
X118193425Y-95362189D01*
X118185742Y-95363527D01*
X118182195Y-95365635D01*
X118175090Y-95365384D01*
X118151477Y-95369500D01*
X113023779Y-95369500D01*
X112956740Y-95349815D01*
X112910985Y-95297011D01*
X112901041Y-95227853D01*
X112925403Y-95170014D01*
X112959246Y-95125908D01*
X112996948Y-95076774D01*
X113108405Y-94883726D01*
X113193710Y-94677781D01*
X113251404Y-94462463D01*
X113280500Y-94241457D01*
X113280500Y-94018543D01*
X113251404Y-93797537D01*
X113193710Y-93582219D01*
X113108405Y-93376274D01*
X112996948Y-93183226D01*
X112933494Y-93100531D01*
X112861248Y-93006377D01*
X112861242Y-93006370D01*
X112703629Y-92848757D01*
X112703619Y-92848748D01*
X112649013Y-92806847D01*
X112607810Y-92750419D01*
X112600500Y-92708472D01*
X112600500Y-88595917D01*
X112620185Y-88528878D01*
X112672989Y-88483123D01*
X112683546Y-88478875D01*
X112687553Y-88477472D01*
X112749522Y-88455789D01*
X112902262Y-88359816D01*
X113029816Y-88232262D01*
X113125789Y-88079522D01*
X113148875Y-88013546D01*
X113189597Y-87956770D01*
X113254549Y-87931022D01*
X113265917Y-87930500D01*
X113662846Y-87930500D01*
X113729885Y-87950185D01*
X113750527Y-87966819D01*
X113770295Y-87986587D01*
X113770302Y-87986593D01*
X113801125Y-88010244D01*
X113957550Y-88130273D01*
X114082239Y-88202262D01*
X114161943Y-88248280D01*
X114161948Y-88248282D01*
X114161951Y-88248284D01*
X114380007Y-88338606D01*
X114607986Y-88399693D01*
X114841989Y-88430500D01*
X114841996Y-88430500D01*
X115678004Y-88430500D01*
X115678011Y-88430500D01*
X115912014Y-88399693D01*
X116139993Y-88338606D01*
X116358049Y-88248284D01*
X116562450Y-88130273D01*
X116749699Y-87986592D01*
X116916592Y-87819699D01*
X117060273Y-87632450D01*
X117178284Y-87428049D01*
X117268606Y-87209993D01*
X117329693Y-86982014D01*
X117360500Y-86748011D01*
X117360500Y-86511989D01*
X117329693Y-86277986D01*
X117268606Y-86050007D01*
X117178284Y-85831951D01*
X117178282Y-85831948D01*
X117178280Y-85831943D01*
X117136118Y-85758918D01*
X117060273Y-85627550D01*
X116916592Y-85440301D01*
X116916587Y-85440295D01*
X116749704Y-85273412D01*
X116749697Y-85273406D01*
X116562454Y-85129730D01*
X116562453Y-85129729D01*
X116562450Y-85129727D01*
X116480957Y-85082677D01*
X116358056Y-85011719D01*
X116358045Y-85011714D01*
X116139993Y-84921394D01*
X116050958Y-84897537D01*
X115912014Y-84860307D01*
X115912013Y-84860306D01*
X115912010Y-84860306D01*
X115678020Y-84829501D01*
X115678017Y-84829500D01*
X115678011Y-84829500D01*
X114841989Y-84829500D01*
X114841983Y-84829500D01*
X114841979Y-84829501D01*
X114607989Y-84860306D01*
X114380006Y-84921394D01*
X114161954Y-85011714D01*
X114161943Y-85011719D01*
X113957545Y-85129730D01*
X113770302Y-85273406D01*
X113770295Y-85273412D01*
X113750527Y-85293181D01*
X113689204Y-85326666D01*
X113662846Y-85329500D01*
X113265917Y-85329500D01*
X113198878Y-85309815D01*
X113153123Y-85257011D01*
X113148875Y-85246454D01*
X113125789Y-85180478D01*
X113103005Y-85144218D01*
X113029816Y-85027738D01*
X112902262Y-84900184D01*
X112888273Y-84891394D01*
X112749523Y-84804211D01*
X112579254Y-84744631D01*
X112579249Y-84744630D01*
X112444960Y-84729500D01*
X112444954Y-84729500D01*
X110155046Y-84729500D01*
X110155039Y-84729500D01*
X110020750Y-84744630D01*
X110020745Y-84744631D01*
X109850476Y-84804211D01*
X109697737Y-84900184D01*
X109570184Y-85027737D01*
X109474212Y-85180475D01*
X109474210Y-85180478D01*
X109461622Y-85216455D01*
X109420901Y-85273231D01*
X109355948Y-85298978D01*
X109344581Y-85299500D01*
X108862235Y-85299500D01*
X108795196Y-85279815D01*
X108763859Y-85250986D01*
X108760381Y-85246454D01*
X108709754Y-85180475D01*
X108681939Y-85144225D01*
X108681933Y-85144218D01*
X108505781Y-84968066D01*
X108505774Y-84968060D01*
X108308126Y-84816400D01*
X108092376Y-84691837D01*
X108092361Y-84691830D01*
X107862207Y-84596498D01*
X107621561Y-84532017D01*
X107374575Y-84499501D01*
X107374570Y-84499500D01*
X107374565Y-84499500D01*
X107125435Y-84499500D01*
X107125429Y-84499500D01*
X107125424Y-84499501D01*
X106878438Y-84532017D01*
X106637792Y-84596498D01*
X106407638Y-84691830D01*
X106407623Y-84691837D01*
X106191873Y-84816400D01*
X106055486Y-84921053D01*
X105990317Y-84946247D01*
X105921872Y-84932208D01*
X105904514Y-84921053D01*
X105768126Y-84816400D01*
X105552376Y-84691837D01*
X105552361Y-84691830D01*
X105322207Y-84596498D01*
X105081561Y-84532017D01*
X104834575Y-84499501D01*
X104834570Y-84499500D01*
X104834565Y-84499500D01*
X104585435Y-84499500D01*
X104585429Y-84499500D01*
X104585424Y-84499501D01*
X104338438Y-84532017D01*
X104097792Y-84596498D01*
X103867638Y-84691830D01*
X103867623Y-84691837D01*
X103651873Y-84816400D01*
X103454225Y-84968060D01*
X103454218Y-84968066D01*
X103278066Y-85144218D01*
X103278060Y-85144225D01*
X103196141Y-85250986D01*
X103139714Y-85292189D01*
X103097765Y-85299500D01*
X102245917Y-85299500D01*
X102178878Y-85279815D01*
X102133123Y-85227011D01*
X102128875Y-85216454D01*
X102105789Y-85150478D01*
X102073900Y-85099727D01*
X102009816Y-84997738D01*
X101882262Y-84870184D01*
X101856316Y-84853881D01*
X101729523Y-84774211D01*
X101559254Y-84714631D01*
X101559249Y-84714630D01*
X101424960Y-84699500D01*
X101424954Y-84699500D01*
X99135046Y-84699500D01*
X99135039Y-84699500D01*
X99000750Y-84714630D01*
X99000745Y-84714631D01*
X98830476Y-84774211D01*
X98677737Y-84870184D01*
X98550184Y-84997737D01*
X98454210Y-85150478D01*
X98431125Y-85216454D01*
X98390403Y-85273230D01*
X98325451Y-85298978D01*
X98314083Y-85299500D01*
X97637154Y-85299500D01*
X97570115Y-85279815D01*
X97549473Y-85263181D01*
X97529704Y-85243412D01*
X97529697Y-85243406D01*
X97342454Y-85099730D01*
X97342453Y-85099729D01*
X97342450Y-85099727D01*
X97260957Y-85052677D01*
X97138056Y-84981719D01*
X97138045Y-84981714D01*
X96919993Y-84891394D01*
X96692010Y-84830306D01*
X96458020Y-84799501D01*
X96458017Y-84799500D01*
X96458011Y-84799500D01*
X95621989Y-84799500D01*
X95621983Y-84799500D01*
X95621979Y-84799501D01*
X95387989Y-84830306D01*
X95160006Y-84891394D01*
X94941954Y-84981714D01*
X94941943Y-84981719D01*
X94737545Y-85099730D01*
X94550302Y-85243406D01*
X94550295Y-85243412D01*
X94383412Y-85410295D01*
X94383406Y-85410302D01*
X94239730Y-85597545D01*
X94121719Y-85801943D01*
X94121714Y-85801954D01*
X94031394Y-86020006D01*
X93970306Y-86247989D01*
X93939501Y-86481979D01*
X93939500Y-86481995D01*
X93939500Y-86718004D01*
X93939501Y-86718020D01*
X93970306Y-86952010D01*
X94031394Y-87179993D01*
X94121714Y-87398045D01*
X94121719Y-87398056D01*
X94183992Y-87505915D01*
X94239727Y-87602450D01*
X94239729Y-87602453D01*
X94239730Y-87602454D01*
X94383406Y-87789697D01*
X94383412Y-87789704D01*
X94550295Y-87956587D01*
X94550301Y-87956592D01*
X94688689Y-88062781D01*
X94690986Y-88064543D01*
X94732189Y-88120971D01*
X94739500Y-88162919D01*
X94739500Y-91782357D01*
X94759849Y-91910831D01*
X94768909Y-91968034D01*
X94771523Y-91984534D01*
X94834780Y-92179219D01*
X94860256Y-92229218D01*
X94927713Y-92361611D01*
X95048034Y-92527219D01*
X95048036Y-92527221D01*
X98912786Y-96391971D01*
X99047848Y-96490097D01*
X99078390Y-96512287D01*
X99260781Y-96605220D01*
X99384677Y-96645476D01*
X99442353Y-96684914D01*
X99469551Y-96749272D01*
X99457636Y-96818118D01*
X99444735Y-96838893D01*
X99399730Y-96897545D01*
X99281719Y-97101943D01*
X99281714Y-97101954D01*
X99191394Y-97320006D01*
X99130306Y-97547989D01*
X99099501Y-97781979D01*
X99099500Y-97781995D01*
X99099500Y-98018004D01*
X99099501Y-98018020D01*
X99130306Y-98252010D01*
X99191394Y-98479993D01*
X99281714Y-98698045D01*
X99281719Y-98698056D01*
X99334804Y-98790000D01*
X99399727Y-98902450D01*
X99399729Y-98902453D01*
X99399730Y-98902454D01*
X99543406Y-99089697D01*
X99546085Y-99092752D01*
X99544670Y-99093992D01*
X99574512Y-99148642D01*
X99569528Y-99218334D01*
X99541027Y-99262681D01*
X99513412Y-99290295D01*
X99513406Y-99290302D01*
X99369730Y-99477545D01*
X99251719Y-99681943D01*
X99251714Y-99681954D01*
X99161394Y-99900006D01*
X99100306Y-100127989D01*
X99069501Y-100361979D01*
X99069500Y-100361995D01*
X99069500Y-100598004D01*
X99069501Y-100598020D01*
X99099213Y-100823710D01*
X99100307Y-100832014D01*
X99101900Y-100837958D01*
X99161394Y-101059993D01*
X99251714Y-101278045D01*
X99251719Y-101278056D01*
X99311580Y-101381738D01*
X99328053Y-101449638D01*
X99305200Y-101515665D01*
X99250279Y-101558856D01*
X99203730Y-101567737D01*
X97130000Y-101559999D01*
X96931816Y-103747093D01*
X96906162Y-103812083D01*
X96849444Y-103852886D01*
X96796168Y-103859305D01*
X96696608Y-103849500D01*
X95768392Y-103849500D01*
X95734014Y-103852886D01*
X95614067Y-103864699D01*
X95416043Y-103924769D01*
X95354755Y-103957529D01*
X95233550Y-104022315D01*
X95233548Y-104022316D01*
X95233547Y-104022317D01*
X95073589Y-104153589D01*
X94947129Y-104307684D01*
X94942315Y-104313550D01*
X94912197Y-104369897D01*
X94844769Y-104496043D01*
X94784699Y-104694067D01*
X94769500Y-104848395D01*
X94769500Y-106251604D01*
X94784699Y-106405932D01*
X94784700Y-106405934D01*
X94844768Y-106603954D01*
X94942315Y-106786450D01*
X94964708Y-106813736D01*
X95073589Y-106946410D01*
X95110106Y-106976378D01*
X95233550Y-107077685D01*
X95416046Y-107175232D01*
X95614066Y-107235300D01*
X95614065Y-107235300D01*
X95652647Y-107239100D01*
X95768392Y-107250500D01*
X95768395Y-107250500D01*
X96696605Y-107250500D01*
X96696608Y-107250500D01*
X96850934Y-107235300D01*
X97048954Y-107175232D01*
X97231450Y-107077685D01*
X97391410Y-106946410D01*
X97432915Y-106895836D01*
X97490661Y-106856501D01*
X97528769Y-106850500D01*
X98585613Y-106850500D01*
X98652652Y-106870185D01*
X98698407Y-106922989D01*
X98708351Y-106992147D01*
X98679326Y-107055703D01*
X98658498Y-107074818D01*
X98612786Y-107108028D01*
X95048036Y-110672778D01*
X95048031Y-110672784D01*
X94927717Y-110838382D01*
X94927707Y-110838399D01*
X94920810Y-110851935D01*
X94920811Y-110851936D01*
X94834781Y-111020777D01*
X94827029Y-111044635D01*
X94818943Y-111069523D01*
X94818625Y-111070501D01*
X94771522Y-111215464D01*
X94771522Y-111215465D01*
X94760816Y-111283066D01*
X94760816Y-111283067D01*
X94739500Y-111417648D01*
X94739500Y-115947763D01*
X94719815Y-116014802D01*
X94690987Y-116046138D01*
X94584228Y-116128058D01*
X94584218Y-116128066D01*
X94408066Y-116304218D01*
X94408060Y-116304225D01*
X94256400Y-116501873D01*
X94131837Y-116717623D01*
X94131830Y-116717638D01*
X94036498Y-116947792D01*
X93972017Y-117188438D01*
X93939501Y-117435424D01*
X93939500Y-117435441D01*
X93939500Y-117684558D01*
X93939501Y-117684575D01*
X93972017Y-117931561D01*
X94036498Y-118172207D01*
X94131830Y-118402361D01*
X94131837Y-118402376D01*
X94256400Y-118618126D01*
X94408060Y-118815774D01*
X94408066Y-118815781D01*
X94584218Y-118991933D01*
X94584225Y-118991939D01*
X94781873Y-119143599D01*
X94997623Y-119268162D01*
X94997638Y-119268169D01*
X95094191Y-119308162D01*
X95227793Y-119363502D01*
X95468435Y-119427982D01*
X95715435Y-119460500D01*
X95715442Y-119460500D01*
X96364558Y-119460500D01*
X96364565Y-119460500D01*
X96611565Y-119427982D01*
X96852207Y-119363502D01*
X97082373Y-119268164D01*
X97298127Y-119143599D01*
X97495776Y-118991938D01*
X97590896Y-118896817D01*
X97652217Y-118863334D01*
X97678576Y-118860500D01*
X98591424Y-118860500D01*
X98658463Y-118880185D01*
X98679100Y-118896814D01*
X98759105Y-118976819D01*
X98814226Y-119031940D01*
X99011873Y-119183599D01*
X99227623Y-119308162D01*
X99227638Y-119308169D01*
X99324191Y-119348162D01*
X99457793Y-119403502D01*
X99698435Y-119467982D01*
X99945435Y-119500500D01*
X99945442Y-119500500D01*
X100594558Y-119500500D01*
X100594565Y-119500500D01*
X100841565Y-119467982D01*
X101082207Y-119403502D01*
X101312373Y-119308164D01*
X101528127Y-119183599D01*
X101725776Y-119031938D01*
X101860896Y-118896817D01*
X101922217Y-118863334D01*
X101948576Y-118860500D01*
X103026379Y-118860500D01*
X103093418Y-118880185D01*
X103124755Y-118909014D01*
X103268060Y-119095774D01*
X103268066Y-119095781D01*
X103444218Y-119271933D01*
X103444225Y-119271939D01*
X103641873Y-119423599D01*
X103857623Y-119548162D01*
X103857638Y-119548169D01*
X103953809Y-119588004D01*
X104087793Y-119643502D01*
X104328435Y-119707982D01*
X104575435Y-119740500D01*
X104575442Y-119740500D01*
X104824558Y-119740500D01*
X104824565Y-119740500D01*
X105071565Y-119707982D01*
X105312207Y-119643502D01*
X105542373Y-119548164D01*
X105758127Y-119423599D01*
X105894514Y-119318946D01*
X105959683Y-119293752D01*
X106028128Y-119307790D01*
X106045486Y-119318946D01*
X106181873Y-119423599D01*
X106397623Y-119548162D01*
X106397638Y-119548169D01*
X106493809Y-119588004D01*
X106627793Y-119643502D01*
X106868435Y-119707982D01*
X107115435Y-119740500D01*
X107115442Y-119740500D01*
X107364558Y-119740500D01*
X107364565Y-119740500D01*
X107611565Y-119707982D01*
X107852207Y-119643502D01*
X108082373Y-119548164D01*
X108298127Y-119423599D01*
X108495776Y-119271938D01*
X108671938Y-119095776D01*
X108753859Y-118989013D01*
X108810286Y-118947811D01*
X108852235Y-118940500D01*
X109741424Y-118940500D01*
X109808463Y-118960185D01*
X109829100Y-118976814D01*
X109882176Y-119029890D01*
X109924226Y-119071940D01*
X110121873Y-119223599D01*
X110337623Y-119348162D01*
X110337638Y-119348169D01*
X110436825Y-119389253D01*
X110567793Y-119443502D01*
X110808435Y-119507982D01*
X111055435Y-119540500D01*
X111055442Y-119540500D01*
X111704558Y-119540500D01*
X111704565Y-119540500D01*
X111951565Y-119507982D01*
X112192207Y-119443502D01*
X112422373Y-119348164D01*
X112638127Y-119223599D01*
X112835776Y-119071938D01*
X112930896Y-118976817D01*
X112992217Y-118943334D01*
X113018576Y-118940500D01*
X113601424Y-118940500D01*
X113668463Y-118960185D01*
X113689100Y-118976814D01*
X113742176Y-119029890D01*
X113784226Y-119071940D01*
X113981873Y-119223599D01*
X114197623Y-119348162D01*
X114197638Y-119348169D01*
X114296825Y-119389253D01*
X114427793Y-119443502D01*
X114668435Y-119507982D01*
X114915435Y-119540500D01*
X114915442Y-119540500D01*
X115564558Y-119540500D01*
X115564565Y-119540500D01*
X115811565Y-119507982D01*
X116052207Y-119443502D01*
X116273240Y-119351947D01*
X120990000Y-119351947D01*
X120990000Y-119588052D01*
X121026934Y-119821247D01*
X121099897Y-120045802D01*
X121207087Y-120256174D01*
X121267338Y-120339104D01*
X121267340Y-120339105D01*
X121966212Y-119640233D01*
X121977482Y-119682292D01*
X122049890Y-119807708D01*
X122152292Y-119910110D01*
X122277708Y-119982518D01*
X122319765Y-119993787D01*
X121620893Y-120692658D01*
X121703828Y-120752914D01*
X121914197Y-120860102D01*
X122138752Y-120933065D01*
X122138751Y-120933065D01*
X122371948Y-120970000D01*
X122608052Y-120970000D01*
X122841247Y-120933065D01*
X123065802Y-120860102D01*
X123276163Y-120752918D01*
X123276169Y-120752914D01*
X123359104Y-120692658D01*
X123359105Y-120692658D01*
X122660233Y-119993787D01*
X122702292Y-119982518D01*
X122827708Y-119910110D01*
X122930110Y-119807708D01*
X123002518Y-119682292D01*
X123013787Y-119640234D01*
X123712658Y-120339105D01*
X123712658Y-120339104D01*
X123772914Y-120256169D01*
X123772918Y-120256163D01*
X123880102Y-120045802D01*
X123953065Y-119821247D01*
X123990000Y-119588052D01*
X123990000Y-119351995D01*
X125189500Y-119351995D01*
X125189500Y-119588004D01*
X125189501Y-119588020D01*
X125220306Y-119822010D01*
X125281394Y-120049993D01*
X125371714Y-120268045D01*
X125371719Y-120268056D01*
X125412740Y-120339105D01*
X125489727Y-120472450D01*
X125489729Y-120472453D01*
X125489730Y-120472454D01*
X125633406Y-120659697D01*
X125633412Y-120659704D01*
X125800295Y-120826587D01*
X125800301Y-120826592D01*
X125987550Y-120970273D01*
X126118918Y-121046118D01*
X126191943Y-121088280D01*
X126191948Y-121088282D01*
X126191951Y-121088284D01*
X126410007Y-121178606D01*
X126637986Y-121239693D01*
X126871989Y-121270500D01*
X126871996Y-121270500D01*
X127108004Y-121270500D01*
X127108011Y-121270500D01*
X127342014Y-121239693D01*
X127569993Y-121178606D01*
X127788049Y-121088284D01*
X127992450Y-120970273D01*
X128179699Y-120826592D01*
X128346592Y-120659699D01*
X128490273Y-120472450D01*
X128608284Y-120268049D01*
X128698606Y-120049993D01*
X128759693Y-119822014D01*
X128790500Y-119588011D01*
X128790500Y-119351989D01*
X128759693Y-119117986D01*
X128698606Y-118890007D01*
X128608284Y-118671951D01*
X128608282Y-118671948D01*
X128608280Y-118671943D01*
X128566118Y-118598918D01*
X128490273Y-118467550D01*
X128346592Y-118280301D01*
X128346587Y-118280295D01*
X128179704Y-118113412D01*
X128179697Y-118113406D01*
X127992454Y-117969730D01*
X127992453Y-117969729D01*
X127992450Y-117969727D01*
X127910957Y-117922677D01*
X127788056Y-117851719D01*
X127788045Y-117851714D01*
X127569993Y-117761394D01*
X127342010Y-117700306D01*
X127108020Y-117669501D01*
X127108017Y-117669500D01*
X127108011Y-117669500D01*
X126871989Y-117669500D01*
X126871983Y-117669500D01*
X126871979Y-117669501D01*
X126637989Y-117700306D01*
X126410006Y-117761394D01*
X126191954Y-117851714D01*
X126191943Y-117851719D01*
X125987545Y-117969730D01*
X125800302Y-118113406D01*
X125800295Y-118113412D01*
X125633412Y-118280295D01*
X125633406Y-118280302D01*
X125489730Y-118467545D01*
X125371719Y-118671943D01*
X125371714Y-118671954D01*
X125281394Y-118890006D01*
X125220306Y-119117989D01*
X125189501Y-119351979D01*
X125189500Y-119351995D01*
X123990000Y-119351995D01*
X123990000Y-119351947D01*
X123953065Y-119118752D01*
X123880102Y-118894197D01*
X123772914Y-118683828D01*
X123712658Y-118600894D01*
X123712658Y-118600893D01*
X123013787Y-119299765D01*
X123002518Y-119257708D01*
X122930110Y-119132292D01*
X122827708Y-119029890D01*
X122702292Y-118957482D01*
X122660234Y-118946212D01*
X123359105Y-118247340D01*
X123359104Y-118247338D01*
X123276174Y-118187087D01*
X123065802Y-118079897D01*
X122841247Y-118006934D01*
X122841248Y-118006934D01*
X122608052Y-117970000D01*
X122371948Y-117970000D01*
X122138752Y-118006934D01*
X121914197Y-118079897D01*
X121703830Y-118187084D01*
X121620894Y-118247340D01*
X122319766Y-118946212D01*
X122277708Y-118957482D01*
X122152292Y-119029890D01*
X122049890Y-119132292D01*
X121977482Y-119257708D01*
X121966212Y-119299766D01*
X121267340Y-118600894D01*
X121207084Y-118683830D01*
X121099897Y-118894197D01*
X121026934Y-119118752D01*
X120990000Y-119351947D01*
X116273240Y-119351947D01*
X116282373Y-119348164D01*
X116498127Y-119223599D01*
X116695776Y-119071938D01*
X116871938Y-118895776D01*
X117023599Y-118698127D01*
X117148164Y-118482373D01*
X117243502Y-118252207D01*
X117307982Y-118011565D01*
X117340500Y-117764565D01*
X117340500Y-117515435D01*
X117307982Y-117268435D01*
X117243502Y-117027793D01*
X117148164Y-116797627D01*
X117121145Y-116750829D01*
X117023599Y-116581873D01*
X116871939Y-116384225D01*
X116871933Y-116384218D01*
X116695781Y-116208066D01*
X116695774Y-116208060D01*
X116498126Y-116056400D01*
X116282376Y-115931837D01*
X116282361Y-115931830D01*
X116052207Y-115836498D01*
X115811561Y-115772017D01*
X115564575Y-115739501D01*
X115564570Y-115739500D01*
X115564565Y-115739500D01*
X114915435Y-115739500D01*
X114915429Y-115739500D01*
X114915424Y-115739501D01*
X114668438Y-115772017D01*
X114427792Y-115836498D01*
X114197638Y-115931830D01*
X114197623Y-115931837D01*
X113981873Y-116056400D01*
X113784226Y-116208059D01*
X113752471Y-116239815D01*
X113689103Y-116303182D01*
X113627783Y-116336666D01*
X113601424Y-116339500D01*
X113018576Y-116339500D01*
X112951537Y-116319815D01*
X112930899Y-116303185D01*
X112835776Y-116208062D01*
X112835775Y-116208061D01*
X112835772Y-116208058D01*
X112729013Y-116126138D01*
X112687811Y-116069710D01*
X112680500Y-116027763D01*
X112680500Y-112851947D01*
X120990000Y-112851947D01*
X120990000Y-113088052D01*
X121026934Y-113321247D01*
X121099897Y-113545802D01*
X121207087Y-113756174D01*
X121267338Y-113839104D01*
X121267340Y-113839105D01*
X121966212Y-113140233D01*
X121977482Y-113182292D01*
X122049890Y-113307708D01*
X122152292Y-113410110D01*
X122277708Y-113482518D01*
X122319765Y-113493787D01*
X121620893Y-114192658D01*
X121703828Y-114252914D01*
X121914197Y-114360102D01*
X122138752Y-114433065D01*
X122138751Y-114433065D01*
X122371948Y-114470000D01*
X122608052Y-114470000D01*
X122841247Y-114433065D01*
X123065802Y-114360102D01*
X123276163Y-114252918D01*
X123276169Y-114252914D01*
X123359104Y-114192658D01*
X123359105Y-114192658D01*
X122660233Y-113493787D01*
X122702292Y-113482518D01*
X122827708Y-113410110D01*
X122930110Y-113307708D01*
X123002518Y-113182292D01*
X123013787Y-113140234D01*
X123712658Y-113839105D01*
X123712658Y-113839104D01*
X123772914Y-113756169D01*
X123772918Y-113756163D01*
X123880102Y-113545802D01*
X123953065Y-113321247D01*
X123990000Y-113088052D01*
X123990000Y-112851947D01*
X123953065Y-112618752D01*
X123880102Y-112394197D01*
X123772914Y-112183828D01*
X123712658Y-112100894D01*
X123712658Y-112100893D01*
X123013787Y-112799765D01*
X123002518Y-112757708D01*
X122930110Y-112632292D01*
X122827708Y-112529890D01*
X122702292Y-112457482D01*
X122660234Y-112446212D01*
X123359105Y-111747340D01*
X123359104Y-111747338D01*
X123276174Y-111687087D01*
X123065802Y-111579897D01*
X122841247Y-111506934D01*
X122841248Y-111506934D01*
X122608052Y-111470000D01*
X122371948Y-111470000D01*
X122138752Y-111506934D01*
X121914197Y-111579897D01*
X121703830Y-111687084D01*
X121620894Y-111747340D01*
X122319766Y-112446212D01*
X122277708Y-112457482D01*
X122152292Y-112529890D01*
X122049890Y-112632292D01*
X121977482Y-112757708D01*
X121966212Y-112799766D01*
X121267340Y-112100894D01*
X121207084Y-112183830D01*
X121099897Y-112394197D01*
X121026934Y-112618752D01*
X120990000Y-112851947D01*
X112680500Y-112851947D01*
X112680500Y-110725733D01*
X112700185Y-110658694D01*
X112716814Y-110638056D01*
X112861247Y-110493624D01*
X112996948Y-110316774D01*
X113108405Y-110123726D01*
X113193710Y-109917781D01*
X113251404Y-109702463D01*
X113280500Y-109481457D01*
X113280500Y-109258543D01*
X113251404Y-109037537D01*
X113193710Y-108822219D01*
X113193705Y-108822209D01*
X113193704Y-108822203D01*
X113121459Y-108647790D01*
X113108405Y-108616274D01*
X112996948Y-108423226D01*
X112925403Y-108329986D01*
X112900209Y-108264817D01*
X112914247Y-108196372D01*
X112963062Y-108146383D01*
X113023779Y-108130500D01*
X129690953Y-108130500D01*
X129757992Y-108150185D01*
X129803747Y-108202989D01*
X129813691Y-108272147D01*
X129784666Y-108335703D01*
X129778634Y-108342181D01*
X126987634Y-111133181D01*
X126926311Y-111166666D01*
X126899953Y-111169500D01*
X126871989Y-111169500D01*
X126871983Y-111169500D01*
X126871979Y-111169501D01*
X126637989Y-111200306D01*
X126410006Y-111261394D01*
X126191954Y-111351714D01*
X126191943Y-111351719D01*
X125987545Y-111469730D01*
X125800302Y-111613406D01*
X125800295Y-111613412D01*
X125633412Y-111780295D01*
X125633406Y-111780302D01*
X125489730Y-111967545D01*
X125371719Y-112171943D01*
X125371714Y-112171954D01*
X125281394Y-112390006D01*
X125220306Y-112617989D01*
X125189501Y-112851979D01*
X125189500Y-112851995D01*
X125189500Y-113088004D01*
X125189501Y-113088020D01*
X125220306Y-113322010D01*
X125281394Y-113549993D01*
X125371714Y-113768045D01*
X125371719Y-113768056D01*
X125412740Y-113839105D01*
X125489727Y-113972450D01*
X125489729Y-113972453D01*
X125489730Y-113972454D01*
X125633406Y-114159697D01*
X125633412Y-114159704D01*
X125800295Y-114326587D01*
X125800301Y-114326592D01*
X125987550Y-114470273D01*
X126118918Y-114546118D01*
X126191943Y-114588280D01*
X126191948Y-114588282D01*
X126191951Y-114588284D01*
X126410007Y-114678606D01*
X126637986Y-114739693D01*
X126871989Y-114770500D01*
X126871996Y-114770500D01*
X127108004Y-114770500D01*
X127108011Y-114770500D01*
X127342014Y-114739693D01*
X127569993Y-114678606D01*
X127788049Y-114588284D01*
X127992450Y-114470273D01*
X128179699Y-114326592D01*
X128346592Y-114159699D01*
X128490273Y-113972450D01*
X128608284Y-113768049D01*
X128698606Y-113549993D01*
X128759693Y-113322014D01*
X128790500Y-113088011D01*
X128790500Y-113060046D01*
X128810185Y-112993007D01*
X128826819Y-112972365D01*
X131220079Y-110579105D01*
X131247006Y-110564401D01*
X131272825Y-110547809D01*
X131279025Y-110546917D01*
X131281402Y-110545620D01*
X131307760Y-110542786D01*
X131500918Y-110542786D01*
X131567957Y-110562471D01*
X131613712Y-110615275D01*
X131623656Y-110684433D01*
X131599294Y-110742272D01*
X131527755Y-110835503D01*
X131527749Y-110835512D01*
X131416292Y-111028559D01*
X131416290Y-111028563D01*
X131330990Y-111234495D01*
X131330987Y-111234505D01*
X131295376Y-111367410D01*
X131273294Y-111449820D01*
X131273291Y-111449833D01*
X131244198Y-111670819D01*
X131244197Y-111670835D01*
X131244197Y-111893736D01*
X131244198Y-111893752D01*
X131273291Y-112114738D01*
X131273292Y-112114743D01*
X131273293Y-112114749D01*
X131325987Y-112311405D01*
X131330987Y-112330066D01*
X131330990Y-112330076D01*
X131402871Y-112503611D01*
X131416292Y-112536012D01*
X131527749Y-112729060D01*
X131527754Y-112729066D01*
X131527755Y-112729068D01*
X131663448Y-112905908D01*
X131663454Y-112905915D01*
X131722144Y-112964605D01*
X131755629Y-113025928D01*
X131750645Y-113095620D01*
X131722144Y-113139967D01*
X131663454Y-113198656D01*
X131663448Y-113198663D01*
X131527755Y-113375503D01*
X131527749Y-113375512D01*
X131416292Y-113568559D01*
X131416290Y-113568563D01*
X131330990Y-113774495D01*
X131330987Y-113774505D01*
X131273294Y-113989820D01*
X131273291Y-113989833D01*
X131244198Y-114210819D01*
X131244197Y-114210835D01*
X131244197Y-114433736D01*
X131244198Y-114433752D01*
X131273291Y-114654738D01*
X131273292Y-114654743D01*
X131273293Y-114654749D01*
X131330987Y-114870066D01*
X131330990Y-114870076D01*
X131416290Y-115076008D01*
X131416292Y-115076012D01*
X131527749Y-115269060D01*
X131527754Y-115269066D01*
X131527755Y-115269068D01*
X131663448Y-115445908D01*
X131663454Y-115445915D01*
X131722144Y-115504605D01*
X131755629Y-115565928D01*
X131750645Y-115635620D01*
X131722144Y-115679967D01*
X131663454Y-115738656D01*
X131663448Y-115738663D01*
X131527755Y-115915503D01*
X131527749Y-115915512D01*
X131416292Y-116108559D01*
X131416290Y-116108563D01*
X131330990Y-116314495D01*
X131330987Y-116314505D01*
X131273294Y-116529820D01*
X131273291Y-116529833D01*
X131244198Y-116750819D01*
X131244197Y-116750835D01*
X131244197Y-116973736D01*
X131244198Y-116973752D01*
X131273291Y-117194738D01*
X131273292Y-117194743D01*
X131273293Y-117194749D01*
X131273294Y-117194751D01*
X131330987Y-117410066D01*
X131330990Y-117410076D01*
X131415299Y-117613615D01*
X131416292Y-117616012D01*
X131527749Y-117809060D01*
X131527754Y-117809066D01*
X131527755Y-117809068D01*
X131663447Y-117985907D01*
X131663448Y-117985908D01*
X131663450Y-117985910D01*
X131807879Y-118130339D01*
X131841363Y-118191660D01*
X131844197Y-118218019D01*
X131844197Y-124464927D01*
X131837556Y-124504963D01*
X131834303Y-124514497D01*
X131814768Y-124551046D01*
X131758047Y-124738031D01*
X131757359Y-124740049D01*
X131738394Y-124766932D01*
X131720363Y-124794447D01*
X131718352Y-124795343D01*
X131717084Y-124797142D01*
X131686592Y-124809506D01*
X131656551Y-124822903D01*
X131654375Y-124822570D01*
X131652335Y-124823398D01*
X131619992Y-124817313D01*
X131587484Y-124812343D01*
X131585833Y-124810887D01*
X131583670Y-124810480D01*
X131559762Y-124787886D01*
X131535090Y-124766119D01*
X131533844Y-124763392D01*
X131532889Y-124762489D01*
X131532247Y-124759894D01*
X131521339Y-124736008D01*
X131518683Y-124727252D01*
X131465232Y-124551046D01*
X131367685Y-124368550D01*
X131282018Y-124264164D01*
X131236410Y-124208589D01*
X131076452Y-124077317D01*
X131076453Y-124077317D01*
X131076450Y-124077315D01*
X130893954Y-123979768D01*
X130695934Y-123919700D01*
X130695932Y-123919699D01*
X130695934Y-123919699D01*
X130576805Y-123907966D01*
X130541608Y-123904500D01*
X129638392Y-123904500D01*
X129600298Y-123908251D01*
X129484067Y-123919699D01*
X129286043Y-123979769D01*
X129182642Y-124035039D01*
X129103550Y-124077315D01*
X129103548Y-124077316D01*
X129103547Y-124077317D01*
X128943589Y-124208589D01*
X128897982Y-124264164D01*
X128840236Y-124303499D01*
X128802128Y-124309500D01*
X128059827Y-124309500D01*
X128001374Y-124294858D01*
X127888954Y-124234768D01*
X127690934Y-124174700D01*
X127690932Y-124174699D01*
X127690934Y-124174699D01*
X127571805Y-124162966D01*
X127536608Y-124159500D01*
X126183392Y-124159500D01*
X126145298Y-124163251D01*
X126029067Y-124174699D01*
X125831043Y-124234769D01*
X125776050Y-124264164D01*
X125648550Y-124332315D01*
X125648548Y-124332316D01*
X125648547Y-124332317D01*
X125488589Y-124463589D01*
X125357317Y-124623547D01*
X125259769Y-124806043D01*
X125259768Y-124806045D01*
X125259768Y-124806046D01*
X125258423Y-124810480D01*
X125199699Y-125004067D01*
X125184500Y-125158395D01*
X125184500Y-126061604D01*
X125199699Y-126215932D01*
X125225908Y-126302331D01*
X125259768Y-126413954D01*
X125357315Y-126596450D01*
X125383570Y-126628442D01*
X125488589Y-126756410D01*
X125585209Y-126835702D01*
X125648550Y-126887685D01*
X125831046Y-126985232D01*
X126029066Y-127045300D01*
X126029065Y-127045300D01*
X126067647Y-127049100D01*
X126183392Y-127060500D01*
X126183395Y-127060500D01*
X127536605Y-127060500D01*
X127536608Y-127060500D01*
X127690934Y-127045300D01*
X127888954Y-126985232D01*
X128001374Y-126925141D01*
X128059827Y-126910500D01*
X128665500Y-126910500D01*
X128732539Y-126930185D01*
X128778294Y-126982989D01*
X128789500Y-127034500D01*
X128789500Y-127292351D01*
X128821522Y-127494531D01*
X128821523Y-127494536D01*
X128836876Y-127541789D01*
X128836877Y-127541789D01*
X128884781Y-127689222D01*
X128889075Y-127697648D01*
X128977713Y-127871611D01*
X129098034Y-128037219D01*
X129852781Y-128791966D01*
X129934713Y-128851493D01*
X129977376Y-128906819D01*
X129983355Y-128976432D01*
X129962144Y-129024693D01*
X129918365Y-129084949D01*
X129800422Y-129316423D01*
X129720140Y-129563506D01*
X129679500Y-129820097D01*
X129679500Y-130079902D01*
X129720140Y-130336493D01*
X129800422Y-130583576D01*
X129881534Y-130742764D01*
X129918366Y-130815051D01*
X130071069Y-131025229D01*
X130254771Y-131208931D01*
X130464949Y-131361634D01*
X130598761Y-131429815D01*
X130696423Y-131479577D01*
X130696425Y-131479577D01*
X130696428Y-131479579D01*
X130943507Y-131559860D01*
X131075706Y-131580797D01*
X131200098Y-131600500D01*
X131200103Y-131600500D01*
X131459902Y-131600500D01*
X131573298Y-131582539D01*
X131716493Y-131559860D01*
X131963572Y-131479579D01*
X132195051Y-131361634D01*
X132405229Y-131208931D01*
X132512319Y-131101841D01*
X132573642Y-131068356D01*
X132643334Y-131073340D01*
X132687681Y-131101841D01*
X132794771Y-131208931D01*
X133004949Y-131361634D01*
X133138761Y-131429815D01*
X133236423Y-131479577D01*
X133236425Y-131479577D01*
X133236428Y-131479579D01*
X133483507Y-131559860D01*
X133615706Y-131580797D01*
X133740098Y-131600500D01*
X133740103Y-131600500D01*
X133999902Y-131600500D01*
X134113298Y-131582539D01*
X134256493Y-131559860D01*
X134503572Y-131479579D01*
X134735051Y-131361634D01*
X134945229Y-131208931D01*
X135052319Y-131101841D01*
X135113642Y-131068356D01*
X135183334Y-131073340D01*
X135227681Y-131101841D01*
X135334771Y-131208931D01*
X135544949Y-131361634D01*
X135678761Y-131429815D01*
X135776423Y-131479577D01*
X135776425Y-131479577D01*
X135776428Y-131479579D01*
X136023507Y-131559860D01*
X136155706Y-131580797D01*
X136280098Y-131600500D01*
X136280103Y-131600500D01*
X136539902Y-131600500D01*
X136653298Y-131582539D01*
X136796493Y-131559860D01*
X137043572Y-131479579D01*
X137275051Y-131361634D01*
X137485229Y-131208931D01*
X137668931Y-131025229D01*
X137821634Y-130815051D01*
X137906466Y-130648559D01*
X137929266Y-130617178D01*
X138467037Y-130079408D01*
X138484075Y-130142993D01*
X138549901Y-130257007D01*
X138642993Y-130350099D01*
X138757007Y-130415925D01*
X138820590Y-130432962D01*
X138188282Y-131065269D01*
X138188282Y-131065270D01*
X138242449Y-131104624D01*
X138431782Y-131201095D01*
X138633870Y-131266757D01*
X138843754Y-131300000D01*
X139056246Y-131300000D01*
X139266127Y-131266757D01*
X139266130Y-131266757D01*
X139468217Y-131201095D01*
X139657554Y-131104622D01*
X139711716Y-131065270D01*
X139711717Y-131065270D01*
X139079408Y-130432962D01*
X139142993Y-130415925D01*
X139257007Y-130350099D01*
X139350099Y-130257007D01*
X139415925Y-130142993D01*
X139432962Y-130079408D01*
X139970732Y-130617178D01*
X139993536Y-130648564D01*
X140078366Y-130815051D01*
X140231069Y-131025229D01*
X140414771Y-131208931D01*
X140624949Y-131361634D01*
X140758761Y-131429815D01*
X140856423Y-131479577D01*
X140856425Y-131479577D01*
X140856428Y-131479579D01*
X141103507Y-131559860D01*
X141235706Y-131580797D01*
X141360098Y-131600500D01*
X141360103Y-131600500D01*
X141619902Y-131600500D01*
X141733298Y-131582539D01*
X141876493Y-131559860D01*
X142123572Y-131479579D01*
X142355051Y-131361634D01*
X142416779Y-131316785D01*
X142482584Y-131293306D01*
X142550638Y-131309131D01*
X142577345Y-131329423D01*
X142677738Y-131429816D01*
X142830478Y-131525789D01*
X143000745Y-131585368D01*
X143000750Y-131585369D01*
X143091246Y-131595565D01*
X143135040Y-131600499D01*
X143135043Y-131600500D01*
X143135046Y-131600500D01*
X144924957Y-131600500D01*
X144924958Y-131600499D01*
X144992104Y-131592934D01*
X145059249Y-131585369D01*
X145059252Y-131585368D01*
X145059255Y-131585368D01*
X145229522Y-131525789D01*
X145382262Y-131429816D01*
X145509816Y-131302262D01*
X145605789Y-131149522D01*
X145665368Y-130979255D01*
X145669214Y-130945126D01*
X145680499Y-130844960D01*
X145680500Y-130844956D01*
X145680500Y-129055043D01*
X145680499Y-129055039D01*
X145665369Y-128920750D01*
X145665368Y-128920745D01*
X145638242Y-128843224D01*
X145605789Y-128750478D01*
X145509816Y-128597738D01*
X145382262Y-128470184D01*
X145362034Y-128457474D01*
X145229523Y-128374211D01*
X145059254Y-128314631D01*
X145059249Y-128314630D01*
X144924960Y-128299500D01*
X144924954Y-128299500D01*
X143135046Y-128299500D01*
X143135039Y-128299500D01*
X143000750Y-128314630D01*
X143000739Y-128314633D01*
X142955453Y-128330479D01*
X142885674Y-128334040D01*
X142825047Y-128299310D01*
X142792821Y-128237317D01*
X142790500Y-128213437D01*
X142790500Y-93760046D01*
X142810185Y-93693007D01*
X142826819Y-93672365D01*
X146240079Y-90259105D01*
X146301402Y-90225620D01*
X146327760Y-90222786D01*
X146740918Y-90222786D01*
X146807957Y-90242471D01*
X146853712Y-90295275D01*
X146863656Y-90364433D01*
X146839294Y-90422272D01*
X146767755Y-90515503D01*
X146767749Y-90515512D01*
X146656292Y-90708559D01*
X146656290Y-90708563D01*
X146570990Y-90914495D01*
X146570987Y-90914505D01*
X146524340Y-91088597D01*
X146513294Y-91129820D01*
X146513291Y-91129833D01*
X146484198Y-91350819D01*
X146484197Y-91350835D01*
X146484197Y-91573736D01*
X146484198Y-91573752D01*
X146513291Y-91794738D01*
X146513292Y-91794743D01*
X146513293Y-91794749D01*
X146570987Y-92010066D01*
X146570990Y-92010076D01*
X146654721Y-92212219D01*
X146656292Y-92216012D01*
X146767749Y-92409060D01*
X146767754Y-92409066D01*
X146767755Y-92409068D01*
X146903448Y-92585908D01*
X146903454Y-92585915D01*
X146962144Y-92644605D01*
X146995629Y-92705928D01*
X146990645Y-92775620D01*
X146962144Y-92819967D01*
X146903454Y-92878656D01*
X146903448Y-92878663D01*
X146767755Y-93055503D01*
X146767749Y-93055512D01*
X146656292Y-93248559D01*
X146656290Y-93248563D01*
X146570990Y-93454495D01*
X146570987Y-93454505D01*
X146542047Y-93562513D01*
X146513294Y-93669820D01*
X146513291Y-93669833D01*
X146484198Y-93890819D01*
X146484197Y-93890835D01*
X146484197Y-94113736D01*
X146484198Y-94113752D01*
X146513291Y-94334738D01*
X146513292Y-94334743D01*
X146513293Y-94334749D01*
X146567715Y-94537854D01*
X146570987Y-94550066D01*
X146570990Y-94550076D01*
X146638714Y-94713576D01*
X146656292Y-94756012D01*
X146767749Y-94949060D01*
X146767754Y-94949066D01*
X146767755Y-94949068D01*
X146903448Y-95125908D01*
X146903454Y-95125915D01*
X146962144Y-95184605D01*
X146995629Y-95245928D01*
X146990645Y-95315620D01*
X146962144Y-95359967D01*
X146903454Y-95418656D01*
X146903448Y-95418663D01*
X146767755Y-95595503D01*
X146767749Y-95595512D01*
X146656292Y-95788559D01*
X146656290Y-95788563D01*
X146570990Y-95994495D01*
X146570987Y-95994505D01*
X146513294Y-96209820D01*
X146513291Y-96209833D01*
X146484198Y-96430819D01*
X146484197Y-96430835D01*
X146484197Y-96653736D01*
X146484198Y-96653752D01*
X146513291Y-96874738D01*
X146513292Y-96874743D01*
X146513293Y-96874749D01*
X146568319Y-97080110D01*
X146570987Y-97090066D01*
X146570990Y-97090076D01*
X146644709Y-97268049D01*
X146656292Y-97296012D01*
X146767749Y-97489060D01*
X146767754Y-97489066D01*
X146767755Y-97489068D01*
X146903448Y-97665908D01*
X146903454Y-97665915D01*
X146962144Y-97724605D01*
X146995629Y-97785928D01*
X146990645Y-97855620D01*
X146962144Y-97899967D01*
X146903454Y-97958656D01*
X146903448Y-97958663D01*
X146767755Y-98135503D01*
X146767749Y-98135512D01*
X146656292Y-98328559D01*
X146656290Y-98328563D01*
X146570990Y-98534495D01*
X146570987Y-98534505D01*
X146513294Y-98749820D01*
X146513291Y-98749833D01*
X146484198Y-98970819D01*
X146484197Y-98970835D01*
X146484197Y-99193736D01*
X146484198Y-99193752D01*
X146513291Y-99414738D01*
X146513292Y-99414743D01*
X146513293Y-99414749D01*
X146548594Y-99546493D01*
X146570987Y-99630066D01*
X146570990Y-99630076D01*
X146638714Y-99793576D01*
X146656292Y-99836012D01*
X146767749Y-100029060D01*
X146767754Y-100029066D01*
X146767755Y-100029068D01*
X146903448Y-100205908D01*
X146903454Y-100205915D01*
X146962144Y-100264605D01*
X146995629Y-100325928D01*
X146990645Y-100395620D01*
X146962144Y-100439967D01*
X146903454Y-100498656D01*
X146903448Y-100498663D01*
X146767755Y-100675503D01*
X146767749Y-100675512D01*
X146656292Y-100868559D01*
X146656290Y-100868563D01*
X146570990Y-101074495D01*
X146570987Y-101074505D01*
X146523964Y-101250000D01*
X146513294Y-101289820D01*
X146513291Y-101289833D01*
X146484198Y-101510819D01*
X146484197Y-101510835D01*
X146484197Y-101733736D01*
X146484198Y-101733752D01*
X146513291Y-101954738D01*
X146513292Y-101954743D01*
X146513293Y-101954749D01*
X146548594Y-102086493D01*
X146570987Y-102170066D01*
X146570990Y-102170076D01*
X146638714Y-102333576D01*
X146656292Y-102376012D01*
X146767749Y-102569060D01*
X146767754Y-102569066D01*
X146767755Y-102569068D01*
X146903448Y-102745908D01*
X146903454Y-102745915D01*
X146962144Y-102804605D01*
X146995629Y-102865928D01*
X146990645Y-102935620D01*
X146962144Y-102979967D01*
X146903454Y-103038656D01*
X146903448Y-103038663D01*
X146767755Y-103215503D01*
X146767749Y-103215512D01*
X146656292Y-103408559D01*
X146656290Y-103408563D01*
X146570990Y-103614495D01*
X146570987Y-103614505D01*
X146518047Y-103812083D01*
X146513294Y-103829820D01*
X146513291Y-103829833D01*
X146484198Y-104050819D01*
X146484197Y-104050835D01*
X146484197Y-104273736D01*
X146484198Y-104273752D01*
X146513291Y-104494738D01*
X146513292Y-104494743D01*
X146513293Y-104494749D01*
X146548594Y-104626493D01*
X146570987Y-104710066D01*
X146570990Y-104710076D01*
X146638714Y-104873576D01*
X146656292Y-104916012D01*
X146767749Y-105109060D01*
X146767754Y-105109066D01*
X146767755Y-105109068D01*
X146903448Y-105285908D01*
X146903454Y-105285915D01*
X146962144Y-105344605D01*
X146995629Y-105405928D01*
X146990645Y-105475620D01*
X146962144Y-105519967D01*
X146903454Y-105578656D01*
X146903448Y-105578663D01*
X146767755Y-105755503D01*
X146767749Y-105755512D01*
X146656292Y-105948559D01*
X146656290Y-105948563D01*
X146570990Y-106154495D01*
X146570987Y-106154505D01*
X146544969Y-106251608D01*
X146513294Y-106369820D01*
X146513291Y-106369833D01*
X146484198Y-106590819D01*
X146484197Y-106590835D01*
X146484197Y-106813736D01*
X146484198Y-106813752D01*
X146513291Y-107034738D01*
X146513292Y-107034743D01*
X146513293Y-107034749D01*
X146548594Y-107166493D01*
X146570987Y-107250066D01*
X146570990Y-107250076D01*
X146646185Y-107431612D01*
X146656292Y-107456012D01*
X146767749Y-107649060D01*
X146767754Y-107649066D01*
X146767755Y-107649068D01*
X146903448Y-107825908D01*
X146903454Y-107825915D01*
X146962144Y-107884605D01*
X146995629Y-107945928D01*
X146990645Y-108015620D01*
X146962144Y-108059967D01*
X146903454Y-108118656D01*
X146903448Y-108118663D01*
X146767755Y-108295503D01*
X146767749Y-108295512D01*
X146656292Y-108488559D01*
X146656290Y-108488563D01*
X146570990Y-108694495D01*
X146570987Y-108694505D01*
X146565792Y-108713895D01*
X146513294Y-108909820D01*
X146513291Y-108909833D01*
X146484198Y-109130819D01*
X146484197Y-109130835D01*
X146484197Y-109353736D01*
X146484198Y-109353752D01*
X146513291Y-109574738D01*
X146513292Y-109574743D01*
X146513293Y-109574749D01*
X146569877Y-109785925D01*
X146570987Y-109790066D01*
X146570990Y-109790076D01*
X146623891Y-109917790D01*
X146656292Y-109996012D01*
X146767749Y-110189060D01*
X146767754Y-110189066D01*
X146767755Y-110189068D01*
X146903448Y-110365908D01*
X146903454Y-110365915D01*
X146962144Y-110424605D01*
X146995629Y-110485928D01*
X146990645Y-110555620D01*
X146962144Y-110599967D01*
X146903454Y-110658656D01*
X146903448Y-110658663D01*
X146767755Y-110835503D01*
X146767749Y-110835512D01*
X146656292Y-111028559D01*
X146656290Y-111028563D01*
X146570990Y-111234495D01*
X146570987Y-111234505D01*
X146535376Y-111367410D01*
X146513294Y-111449820D01*
X146513291Y-111449833D01*
X146484198Y-111670819D01*
X146484197Y-111670835D01*
X146484197Y-111893736D01*
X146484198Y-111893752D01*
X146513291Y-112114738D01*
X146513292Y-112114743D01*
X146513293Y-112114749D01*
X146565987Y-112311405D01*
X146570987Y-112330066D01*
X146570990Y-112330076D01*
X146642871Y-112503611D01*
X146656292Y-112536012D01*
X146767749Y-112729060D01*
X146767754Y-112729066D01*
X146767755Y-112729068D01*
X146903448Y-112905908D01*
X146903454Y-112905915D01*
X146962144Y-112964605D01*
X146995629Y-113025928D01*
X146990645Y-113095620D01*
X146962144Y-113139967D01*
X146903454Y-113198656D01*
X146903448Y-113198663D01*
X146767755Y-113375503D01*
X146767749Y-113375512D01*
X146656292Y-113568559D01*
X146656290Y-113568563D01*
X146570990Y-113774495D01*
X146570987Y-113774505D01*
X146513294Y-113989820D01*
X146513291Y-113989833D01*
X146484198Y-114210819D01*
X146484197Y-114210835D01*
X146484197Y-114433736D01*
X146484198Y-114433752D01*
X146513291Y-114654738D01*
X146513292Y-114654743D01*
X146513293Y-114654749D01*
X146570987Y-114870066D01*
X146570990Y-114870076D01*
X146656290Y-115076008D01*
X146656292Y-115076012D01*
X146767749Y-115269060D01*
X146767754Y-115269066D01*
X146767755Y-115269068D01*
X146903448Y-115445908D01*
X146903454Y-115445915D01*
X146962144Y-115504605D01*
X146995629Y-115565928D01*
X146990645Y-115635620D01*
X146962144Y-115679967D01*
X146903454Y-115738656D01*
X146903448Y-115738663D01*
X146767755Y-115915503D01*
X146767749Y-115915512D01*
X146656292Y-116108559D01*
X146656290Y-116108563D01*
X146570990Y-116314495D01*
X146570987Y-116314505D01*
X146513294Y-116529820D01*
X146513291Y-116529833D01*
X146484198Y-116750819D01*
X146484197Y-116750835D01*
X146484197Y-116973736D01*
X146484198Y-116973752D01*
X146513291Y-117194738D01*
X146513292Y-117194743D01*
X146513293Y-117194749D01*
X146513294Y-117194751D01*
X146570987Y-117410066D01*
X146570990Y-117410076D01*
X146655299Y-117613615D01*
X146656292Y-117616012D01*
X146767749Y-117809060D01*
X146767754Y-117809066D01*
X146767755Y-117809068D01*
X146903448Y-117985908D01*
X146903454Y-117985915D01*
X147061067Y-118143528D01*
X147061073Y-118143533D01*
X147237923Y-118279234D01*
X147430971Y-118390691D01*
X147560837Y-118444483D01*
X147616525Y-118467550D01*
X147636916Y-118475996D01*
X147852234Y-118533690D01*
X148073240Y-118562786D01*
X148073247Y-118562786D01*
X148696147Y-118562786D01*
X148696154Y-118562786D01*
X148917160Y-118533690D01*
X149132478Y-118475996D01*
X149338423Y-118390691D01*
X149531471Y-118279234D01*
X149708321Y-118143533D01*
X149865944Y-117985910D01*
X150001645Y-117809060D01*
X150113102Y-117616012D01*
X150198407Y-117410067D01*
X150256101Y-117194749D01*
X150285197Y-116973743D01*
X150285197Y-116750829D01*
X150256101Y-116529823D01*
X150198407Y-116314505D01*
X150194148Y-116304224D01*
X150137748Y-116168060D01*
X150113102Y-116108560D01*
X150001645Y-115915512D01*
X149941016Y-115836498D01*
X149865946Y-115738664D01*
X149859112Y-115731830D01*
X149807247Y-115679965D01*
X149773764Y-115618645D01*
X149778748Y-115548953D01*
X149807247Y-115504606D01*
X149865944Y-115445910D01*
X150001645Y-115269060D01*
X150113102Y-115076012D01*
X150198407Y-114870067D01*
X150256101Y-114654749D01*
X150285197Y-114433743D01*
X150285197Y-114210829D01*
X150256101Y-113989823D01*
X150198407Y-113774505D01*
X150113102Y-113568560D01*
X150001645Y-113375512D01*
X149966968Y-113330320D01*
X149865946Y-113198664D01*
X149849574Y-113182292D01*
X149807247Y-113139965D01*
X149773764Y-113078645D01*
X149778748Y-113008953D01*
X149807247Y-112964606D01*
X149865944Y-112905910D01*
X150001645Y-112729060D01*
X150113102Y-112536012D01*
X150198407Y-112330067D01*
X150256101Y-112114749D01*
X150285197Y-111893743D01*
X150285197Y-111670829D01*
X150256101Y-111449823D01*
X150198407Y-111234505D01*
X150113102Y-111028560D01*
X150001645Y-110835512D01*
X149937148Y-110751457D01*
X149865946Y-110658664D01*
X149844039Y-110636757D01*
X149807247Y-110599965D01*
X149773764Y-110538645D01*
X149778748Y-110468953D01*
X149807247Y-110424606D01*
X149865944Y-110365910D01*
X150001645Y-110189060D01*
X150113102Y-109996012D01*
X150152218Y-109901577D01*
X195749500Y-109901577D01*
X195749500Y-110098422D01*
X195780290Y-110292826D01*
X195841117Y-110480029D01*
X195910029Y-110615275D01*
X195930476Y-110655405D01*
X196046172Y-110814646D01*
X196185354Y-110953828D01*
X196344595Y-111069524D01*
X196427455Y-111111743D01*
X196519970Y-111158882D01*
X196519972Y-111158882D01*
X196519975Y-111158884D01*
X196552651Y-111169501D01*
X196707173Y-111219709D01*
X196901578Y-111250500D01*
X196901583Y-111250500D01*
X197098422Y-111250500D01*
X197292826Y-111219709D01*
X197480025Y-111158884D01*
X197655405Y-111069524D01*
X197814646Y-110953828D01*
X197953828Y-110814646D01*
X198069524Y-110655405D01*
X198158884Y-110480025D01*
X198219709Y-110292826D01*
X198229660Y-110230000D01*
X198250500Y-110098422D01*
X198250500Y-109901577D01*
X198219709Y-109707173D01*
X198158882Y-109519970D01*
X198082468Y-109370000D01*
X198069524Y-109344595D01*
X197953828Y-109185354D01*
X197814646Y-109046172D01*
X197655405Y-108930476D01*
X197480029Y-108841117D01*
X197292826Y-108780290D01*
X197098422Y-108749500D01*
X197098417Y-108749500D01*
X196901583Y-108749500D01*
X196901578Y-108749500D01*
X196707173Y-108780290D01*
X196519970Y-108841117D01*
X196344594Y-108930476D01*
X196253741Y-108996485D01*
X196185354Y-109046172D01*
X196185352Y-109046174D01*
X196185351Y-109046174D01*
X196046174Y-109185351D01*
X196046174Y-109185352D01*
X196046172Y-109185354D01*
X196025539Y-109213753D01*
X195930476Y-109344594D01*
X195841117Y-109519970D01*
X195780290Y-109707173D01*
X195749500Y-109901577D01*
X150152218Y-109901577D01*
X150158557Y-109886274D01*
X150173890Y-109849258D01*
X150173890Y-109849256D01*
X150198401Y-109790082D01*
X150198403Y-109790076D01*
X150198407Y-109790067D01*
X150256101Y-109574749D01*
X150285197Y-109353743D01*
X150285197Y-109130829D01*
X150256101Y-108909823D01*
X150198407Y-108694505D01*
X150113102Y-108488560D01*
X150001645Y-108295512D01*
X149937148Y-108211457D01*
X149865946Y-108118664D01*
X149847282Y-108100000D01*
X149807247Y-108059965D01*
X149773764Y-107998645D01*
X149778748Y-107928953D01*
X149807247Y-107884606D01*
X149865944Y-107825910D01*
X150001645Y-107649060D01*
X150113102Y-107456012D01*
X150198407Y-107250067D01*
X150256101Y-107034749D01*
X150285197Y-106813743D01*
X150285197Y-106590829D01*
X150256101Y-106369823D01*
X150198407Y-106154505D01*
X150195061Y-106146428D01*
X150113103Y-105948563D01*
X150113102Y-105948560D01*
X150001645Y-105755512D01*
X149930100Y-105662272D01*
X149904906Y-105597103D01*
X149918944Y-105528658D01*
X149967759Y-105478669D01*
X150028476Y-105462786D01*
X153797522Y-105462786D01*
X153864561Y-105482471D01*
X153910316Y-105535275D01*
X153920260Y-105604433D01*
X153891235Y-105667989D01*
X153870408Y-105687103D01*
X153772781Y-105758034D01*
X153772779Y-105758036D01*
X153772778Y-105758036D01*
X153628036Y-105902778D01*
X153507716Y-106068384D01*
X153507714Y-106068387D01*
X153414781Y-106250779D01*
X153351522Y-106445468D01*
X153319500Y-106647648D01*
X153319500Y-106852351D01*
X153341641Y-106992147D01*
X153351523Y-107054535D01*
X153414780Y-107249218D01*
X153507713Y-107431611D01*
X153628034Y-107597219D01*
X153628036Y-107597221D01*
X153802786Y-107771971D01*
X153917386Y-107855231D01*
X153968390Y-107892287D01*
X154073666Y-107945928D01*
X154150776Y-107985218D01*
X154150778Y-107985218D01*
X154150781Y-107985220D01*
X154234183Y-108012319D01*
X154345465Y-108048477D01*
X154418010Y-108059967D01*
X154547648Y-108080500D01*
X154752351Y-108080500D01*
X209511696Y-108080500D01*
X209578735Y-108100185D01*
X209584581Y-108104182D01*
X209642666Y-108146383D01*
X209704949Y-108191634D01*
X209871437Y-108276464D01*
X209902820Y-108299266D01*
X210440591Y-108837037D01*
X210377007Y-108854075D01*
X210262993Y-108919901D01*
X210169901Y-109012993D01*
X210104075Y-109127007D01*
X210087037Y-109190591D01*
X209454728Y-108558282D01*
X209454727Y-108558282D01*
X209415380Y-108612439D01*
X209318904Y-108801782D01*
X209253242Y-109003869D01*
X209253242Y-109003872D01*
X209220000Y-109213753D01*
X209220000Y-109426246D01*
X209253242Y-109636127D01*
X209253242Y-109636130D01*
X209318904Y-109838217D01*
X209415375Y-110027550D01*
X209454728Y-110081716D01*
X210087037Y-109449408D01*
X210104075Y-109512993D01*
X210169901Y-109627007D01*
X210262993Y-109720099D01*
X210377007Y-109785925D01*
X210440590Y-109802962D01*
X209808282Y-110435269D01*
X209808282Y-110435270D01*
X209862449Y-110474624D01*
X210051782Y-110571095D01*
X210253870Y-110636757D01*
X210463754Y-110670000D01*
X210676246Y-110670000D01*
X210886127Y-110636757D01*
X210886130Y-110636757D01*
X211088217Y-110571095D01*
X211277554Y-110474622D01*
X211331716Y-110435270D01*
X211331717Y-110435270D01*
X210699408Y-109802962D01*
X210762993Y-109785925D01*
X210877007Y-109720099D01*
X210970099Y-109627007D01*
X211035925Y-109512993D01*
X211052962Y-109449409D01*
X211685270Y-110081717D01*
X211685270Y-110081716D01*
X211724622Y-110027554D01*
X211821095Y-109838217D01*
X211886757Y-109636130D01*
X211886757Y-109636127D01*
X211920000Y-109426246D01*
X211920000Y-109213753D01*
X211886757Y-109003872D01*
X211886757Y-109003869D01*
X211821095Y-108801782D01*
X211724624Y-108612449D01*
X211685270Y-108558282D01*
X211685269Y-108558282D01*
X211052962Y-109190590D01*
X211035925Y-109127007D01*
X210970099Y-109012993D01*
X210877007Y-108919901D01*
X210762993Y-108854075D01*
X210699409Y-108837037D01*
X211237178Y-108299266D01*
X211268559Y-108276466D01*
X211435051Y-108191634D01*
X211645229Y-108038931D01*
X211828931Y-107855229D01*
X211981634Y-107645051D01*
X212099579Y-107413572D01*
X212179860Y-107166493D01*
X212194380Y-107074818D01*
X212220500Y-106909902D01*
X212220500Y-106650097D01*
X212196336Y-106497534D01*
X212179860Y-106393507D01*
X212099579Y-106146428D01*
X212099577Y-106146425D01*
X212099577Y-106146423D01*
X211998761Y-105948563D01*
X211981634Y-105914949D01*
X211828931Y-105704771D01*
X211721841Y-105597681D01*
X211688356Y-105536358D01*
X211693340Y-105466666D01*
X211721841Y-105422319D01*
X211755207Y-105388953D01*
X211828931Y-105315229D01*
X211981634Y-105105051D01*
X212099579Y-104873572D01*
X212179860Y-104626493D01*
X212181963Y-104613217D01*
X212220500Y-104369902D01*
X212220500Y-104110097D01*
X212196335Y-103957529D01*
X212179860Y-103853507D01*
X212099579Y-103606428D01*
X212099577Y-103606425D01*
X212099577Y-103606423D01*
X211998761Y-103408563D01*
X211981634Y-103374949D01*
X211828931Y-103164771D01*
X211721841Y-103057681D01*
X211688356Y-102996358D01*
X211693340Y-102926666D01*
X211721841Y-102882319D01*
X211774941Y-102829219D01*
X211828931Y-102775229D01*
X211981634Y-102565051D01*
X212099579Y-102333572D01*
X212179860Y-102086493D01*
X212205040Y-101927511D01*
X212220500Y-101829902D01*
X212220500Y-101570097D01*
X212197069Y-101422161D01*
X212179860Y-101313507D01*
X212099579Y-101066428D01*
X212099577Y-101066425D01*
X212099577Y-101066423D01*
X212020129Y-100910500D01*
X211981634Y-100834949D01*
X211828931Y-100624771D01*
X211721841Y-100517681D01*
X211688356Y-100456358D01*
X211693340Y-100386666D01*
X211721841Y-100342319D01*
X211755207Y-100308953D01*
X211828931Y-100235229D01*
X211981634Y-100025051D01*
X212099579Y-99793572D01*
X212179860Y-99546493D01*
X212205791Y-99382766D01*
X212220500Y-99289902D01*
X212220500Y-99030097D01*
X212197799Y-98886773D01*
X212179860Y-98773507D01*
X212099579Y-98526428D01*
X212099577Y-98526425D01*
X212099577Y-98526423D01*
X212056787Y-98442445D01*
X211981634Y-98294949D01*
X211828931Y-98084771D01*
X211721841Y-97977681D01*
X211688356Y-97916358D01*
X211693340Y-97846666D01*
X211721841Y-97802319D01*
X211757408Y-97766752D01*
X211828931Y-97695229D01*
X211981634Y-97485051D01*
X212099579Y-97253572D01*
X212179860Y-97006493D01*
X212185561Y-96970500D01*
X212220500Y-96749902D01*
X212220500Y-96490097D01*
X212190754Y-96302292D01*
X212179860Y-96233507D01*
X212099579Y-95986428D01*
X212099577Y-95986425D01*
X212099577Y-95986423D01*
X211998761Y-95788563D01*
X211981634Y-95754949D01*
X211828931Y-95544771D01*
X211721841Y-95437681D01*
X211688356Y-95376358D01*
X211693340Y-95306666D01*
X211721841Y-95262319D01*
X211756307Y-95227853D01*
X211828931Y-95155229D01*
X211981634Y-94945051D01*
X212099579Y-94713572D01*
X212179860Y-94466493D01*
X212197141Y-94357386D01*
X212220500Y-94209902D01*
X212220500Y-93950097D01*
X212196336Y-93797534D01*
X212179860Y-93693507D01*
X212099579Y-93446428D01*
X212099577Y-93446425D01*
X212099577Y-93446423D01*
X211998761Y-93248563D01*
X211981634Y-93214949D01*
X211936785Y-93153220D01*
X211913306Y-93087416D01*
X211929131Y-93019362D01*
X211949423Y-92992655D01*
X211993733Y-92948345D01*
X212049816Y-92892262D01*
X212145789Y-92739522D01*
X212205368Y-92569255D01*
X212210069Y-92527537D01*
X212218325Y-92454255D01*
X212220500Y-92434954D01*
X212220500Y-90645046D01*
X212215565Y-90601246D01*
X212205369Y-90510750D01*
X212205368Y-90510745D01*
X212154171Y-90364433D01*
X212145789Y-90340478D01*
X212049816Y-90187738D01*
X211922262Y-90060184D01*
X211883680Y-90035941D01*
X211769523Y-89964211D01*
X211599254Y-89904631D01*
X211599249Y-89904630D01*
X211464960Y-89889500D01*
X211464954Y-89889500D01*
X209675046Y-89889500D01*
X209675039Y-89889500D01*
X209540750Y-89904630D01*
X209540745Y-89904631D01*
X209370476Y-89964211D01*
X209217737Y-90060184D01*
X209152455Y-90125467D01*
X209091132Y-90158952D01*
X209064774Y-90161786D01*
X154411241Y-90161786D01*
X154344202Y-90142101D01*
X154298447Y-90089297D01*
X154288503Y-90020139D01*
X154317528Y-89956583D01*
X154338356Y-89937468D01*
X154387212Y-89901971D01*
X154387210Y-89901971D01*
X154387219Y-89901966D01*
X154531966Y-89757219D01*
X154531968Y-89757215D01*
X154531971Y-89757213D01*
X154584732Y-89684590D01*
X154652287Y-89591610D01*
X154745220Y-89409219D01*
X154808477Y-89214534D01*
X154840500Y-89012352D01*
X154840500Y-88807648D01*
X154819147Y-88672830D01*
X154808477Y-88605465D01*
X154745218Y-88410776D01*
X154703966Y-88329815D01*
X154652287Y-88228390D01*
X154623324Y-88188525D01*
X154531971Y-88062786D01*
X154387213Y-87918028D01*
X154221613Y-87797715D01*
X154221612Y-87797714D01*
X154221610Y-87797713D01*
X154132290Y-87752202D01*
X154039223Y-87704781D01*
X153844534Y-87641522D01*
X153669995Y-87613878D01*
X153642352Y-87609500D01*
X153642351Y-87609500D01*
X150037904Y-87609500D01*
X149970865Y-87589815D01*
X149925110Y-87537011D01*
X149915166Y-87467853D01*
X149939528Y-87410014D01*
X150001638Y-87329069D01*
X150001639Y-87329068D01*
X150001645Y-87329060D01*
X150113102Y-87136012D01*
X150198407Y-86930067D01*
X150256101Y-86714749D01*
X150285197Y-86493743D01*
X150285197Y-86270829D01*
X150256101Y-86049823D01*
X150198407Y-85834505D01*
X150113102Y-85628560D01*
X150001645Y-85435512D01*
X149929481Y-85341466D01*
X149865945Y-85258663D01*
X149865939Y-85258656D01*
X149708326Y-85101043D01*
X149708319Y-85101037D01*
X149592764Y-85012369D01*
X149551561Y-84955941D01*
X149547406Y-84886195D01*
X149580569Y-84826311D01*
X149652557Y-84754323D01*
X149782083Y-84576046D01*
X149882129Y-84379696D01*
X149950223Y-84170124D01*
X149950223Y-84170121D01*
X149962552Y-84092286D01*
X148817709Y-84092286D01*
X148850622Y-84035279D01*
X148884697Y-83908112D01*
X148884697Y-83776460D01*
X148850622Y-83649293D01*
X148817709Y-83592286D01*
X149962552Y-83592286D01*
X149950223Y-83514450D01*
X149950223Y-83514447D01*
X149882129Y-83304875D01*
X149782083Y-83108525D01*
X149652554Y-82930244D01*
X149580569Y-82858259D01*
X149547084Y-82796936D01*
X149552068Y-82727244D01*
X149592763Y-82672203D01*
X149708321Y-82583533D01*
X149865944Y-82425910D01*
X150001645Y-82249060D01*
X150113102Y-82056012D01*
X150198407Y-81850067D01*
X150256101Y-81634749D01*
X150285197Y-81413743D01*
X150285197Y-81190829D01*
X150256101Y-80969823D01*
X150198407Y-80754505D01*
X150198400Y-80754489D01*
X150121318Y-80568395D01*
X150113102Y-80548560D01*
X150001645Y-80355512D01*
X149944087Y-80280500D01*
X149865945Y-80178663D01*
X149865939Y-80178656D01*
X149721516Y-80034233D01*
X149688031Y-79972910D01*
X149685197Y-79946552D01*
X149685197Y-78542345D01*
X149653174Y-78340162D01*
X149639601Y-78298389D01*
X149589919Y-78145481D01*
X149589918Y-78145478D01*
X149532511Y-78032813D01*
X149496984Y-77963087D01*
X149427691Y-77867713D01*
X149427690Y-77867711D01*
X149427689Y-77867709D01*
X149376666Y-77797482D01*
X149376665Y-77797481D01*
X149376663Y-77797478D01*
X149231916Y-77652731D01*
X149231915Y-77652730D01*
X149228804Y-77649619D01*
X149228789Y-77649605D01*
X145757221Y-74178036D01*
X145757220Y-74178035D01*
X145757219Y-74178034D01*
X145591611Y-74057713D01*
X145500414Y-74011246D01*
X145409223Y-73964781D01*
X145362515Y-73949604D01*
X145311876Y-73933151D01*
X145288003Y-73925394D01*
X145214535Y-73901522D01*
X145039995Y-73873878D01*
X145012352Y-73869500D01*
X145012351Y-73869500D01*
X142830864Y-73869500D01*
X142763825Y-73849815D01*
X142732488Y-73820986D01*
X142702629Y-73782073D01*
X142702623Y-73782066D01*
X142507933Y-73587376D01*
X142507926Y-73587370D01*
X142289483Y-73419754D01*
X142289482Y-73419753D01*
X142289479Y-73419751D01*
X142194407Y-73364861D01*
X142051028Y-73282080D01*
X142051017Y-73282075D01*
X141796630Y-73176704D01*
X141663649Y-73141072D01*
X141530666Y-73105440D01*
X141530660Y-73105439D01*
X141530655Y-73105438D01*
X141257684Y-73069501D01*
X141257679Y-73069500D01*
X141257674Y-73069500D01*
X140582326Y-73069500D01*
X140582320Y-73069500D01*
X140582315Y-73069501D01*
X140309344Y-73105438D01*
X140309337Y-73105439D01*
X140309334Y-73105440D01*
X140253125Y-73120500D01*
X140043369Y-73176704D01*
X139788982Y-73282075D01*
X139788971Y-73282080D01*
X139550516Y-73419754D01*
X139332073Y-73587370D01*
X139332066Y-73587376D01*
X139137376Y-73782066D01*
X139137370Y-73782073D01*
X139107512Y-73820986D01*
X139051085Y-73862189D01*
X139009136Y-73869500D01*
X127882352Y-73869500D01*
X118682352Y-73869500D01*
X99747648Y-73869500D01*
X99584920Y-73895274D01*
X99545464Y-73901523D01*
X99350784Y-73964777D01*
X99350776Y-73964780D01*
X99294284Y-73993566D01*
X99294283Y-73993567D01*
X99168386Y-74057715D01*
X99002786Y-74178028D01*
X99002782Y-74178032D01*
X96137634Y-77043181D01*
X96076311Y-77076666D01*
X96049953Y-77079500D01*
X94895039Y-77079500D01*
X94760750Y-77094630D01*
X94760745Y-77094631D01*
X94590476Y-77154211D01*
X94437737Y-77250184D01*
X94310184Y-77377737D01*
X94214210Y-77530478D01*
X94191125Y-77596454D01*
X94150403Y-77653230D01*
X94085451Y-77678978D01*
X94074083Y-77679500D01*
X90087648Y-77679500D01*
X90003967Y-77692754D01*
X89885464Y-77711523D01*
X89690781Y-77774778D01*
X89690777Y-77774780D01*
X89592319Y-77824948D01*
X89592319Y-77824949D01*
X89508388Y-77867714D01*
X89342786Y-77988028D01*
X84428036Y-82902778D01*
X84307713Y-83068388D01*
X84272424Y-83137648D01*
X84214781Y-83250776D01*
X84151522Y-83445465D01*
X84119500Y-83647648D01*
X84119500Y-87294526D01*
X84104858Y-87352979D01*
X84049771Y-87456038D01*
X84049770Y-87456041D01*
X84049769Y-87456043D01*
X84049768Y-87456046D01*
X84040236Y-87487469D01*
X83989699Y-87654067D01*
X83983495Y-87717063D01*
X83974500Y-87808392D01*
X75105018Y-87808392D01*
X75105018Y-74568711D01*
X76439500Y-74568711D01*
X76439500Y-74811288D01*
X76471161Y-75051785D01*
X76533947Y-75286104D01*
X76626773Y-75510205D01*
X76626776Y-75510212D01*
X76748064Y-75720289D01*
X76748066Y-75720292D01*
X76748067Y-75720293D01*
X76895733Y-75912736D01*
X76895739Y-75912743D01*
X77067256Y-76084260D01*
X77067262Y-76084265D01*
X77259711Y-76231936D01*
X77469788Y-76353224D01*
X77693900Y-76446054D01*
X77928211Y-76508838D01*
X78108586Y-76532584D01*
X78168711Y-76540500D01*
X78168712Y-76540500D01*
X78411289Y-76540500D01*
X78459388Y-76534167D01*
X78651789Y-76508838D01*
X78886100Y-76446054D01*
X79110212Y-76353224D01*
X79320289Y-76231936D01*
X79512738Y-76084265D01*
X79684265Y-75912738D01*
X79831936Y-75720289D01*
X79953224Y-75510212D01*
X80046054Y-75286100D01*
X80108838Y-75051789D01*
X80140500Y-74811288D01*
X80140500Y-74568712D01*
X80108838Y-74328211D01*
X80046054Y-74093900D01*
X79953224Y-73869788D01*
X79831936Y-73659711D01*
X79684265Y-73467262D01*
X79684260Y-73467256D01*
X79512743Y-73295739D01*
X79512736Y-73295733D01*
X79320293Y-73148067D01*
X79320292Y-73148066D01*
X79320289Y-73148064D01*
X79110212Y-73026776D01*
X79110205Y-73026773D01*
X78886104Y-72933947D01*
X78651785Y-72871161D01*
X78411289Y-72839500D01*
X78411288Y-72839500D01*
X78168712Y-72839500D01*
X78168711Y-72839500D01*
X77928214Y-72871161D01*
X77693895Y-72933947D01*
X77469794Y-73026773D01*
X77469785Y-73026777D01*
X77259706Y-73148067D01*
X77067263Y-73295733D01*
X77067256Y-73295739D01*
X76895739Y-73467256D01*
X76895733Y-73467263D01*
X76748067Y-73659706D01*
X76626777Y-73869785D01*
X76626773Y-73869794D01*
X76533947Y-74093895D01*
X76471161Y-74328214D01*
X76439500Y-74568711D01*
X75105018Y-74568711D01*
X75105018Y-70475441D01*
X130609500Y-70475441D01*
X130609500Y-70724558D01*
X130609501Y-70724575D01*
X130642017Y-70971561D01*
X130706498Y-71212207D01*
X130801830Y-71442361D01*
X130801837Y-71442376D01*
X130926400Y-71658126D01*
X131078060Y-71855774D01*
X131078066Y-71855781D01*
X131254218Y-72031933D01*
X131254225Y-72031939D01*
X131451873Y-72183599D01*
X131667623Y-72308162D01*
X131667638Y-72308169D01*
X131766825Y-72349253D01*
X131897793Y-72403502D01*
X132138435Y-72467982D01*
X132385435Y-72500500D01*
X132385442Y-72500500D01*
X133034558Y-72500500D01*
X133034565Y-72500500D01*
X133281565Y-72467982D01*
X133522207Y-72403502D01*
X133752373Y-72308164D01*
X133968127Y-72183599D01*
X133977869Y-72176123D01*
X134043037Y-72150930D01*
X134053354Y-72150500D01*
X139287206Y-72150500D01*
X139354245Y-72170185D01*
X139362692Y-72176124D01*
X139508188Y-72287766D01*
X139550521Y-72320249D01*
X139694719Y-72403502D01*
X139788971Y-72457919D01*
X139788976Y-72457921D01*
X139788979Y-72457923D01*
X140043368Y-72563295D01*
X140309334Y-72634560D01*
X140582326Y-72670500D01*
X140582333Y-72670500D01*
X141257667Y-72670500D01*
X141257674Y-72670500D01*
X141530666Y-72634560D01*
X141796632Y-72563295D01*
X142051021Y-72457923D01*
X142289479Y-72320249D01*
X142507928Y-72152628D01*
X142702628Y-71957928D01*
X142870249Y-71739479D01*
X143007923Y-71501021D01*
X143113295Y-71246632D01*
X143184560Y-70980666D01*
X143220500Y-70707674D01*
X143220500Y-70432326D01*
X143184560Y-70159334D01*
X143113295Y-69893368D01*
X143007923Y-69638979D01*
X143007921Y-69638976D01*
X143007919Y-69638971D01*
X142951859Y-69541873D01*
X142870249Y-69400521D01*
X142801099Y-69310403D01*
X142702629Y-69182073D01*
X142702623Y-69182066D01*
X142507933Y-68987376D01*
X142507926Y-68987370D01*
X142289483Y-68819754D01*
X142289482Y-68819753D01*
X142289479Y-68819751D01*
X142194407Y-68764861D01*
X142051028Y-68682080D01*
X142051017Y-68682075D01*
X141796630Y-68576704D01*
X141645158Y-68536118D01*
X141530666Y-68505440D01*
X141530660Y-68505439D01*
X141530655Y-68505438D01*
X141257684Y-68469501D01*
X141257679Y-68469500D01*
X141257674Y-68469500D01*
X140582326Y-68469500D01*
X140582320Y-68469500D01*
X140582315Y-68469501D01*
X140309344Y-68505438D01*
X140309337Y-68505439D01*
X140309334Y-68505440D01*
X140253125Y-68520500D01*
X140043369Y-68576704D01*
X139788982Y-68682075D01*
X139788971Y-68682080D01*
X139550516Y-68819754D01*
X139332073Y-68987370D01*
X139332066Y-68987376D01*
X139306262Y-69013181D01*
X139244939Y-69046666D01*
X139218581Y-69049500D01*
X134403897Y-69049500D01*
X134336858Y-69029815D01*
X134291103Y-68977011D01*
X134281159Y-68907853D01*
X134293412Y-68869205D01*
X134392780Y-68674184D01*
X134470602Y-68434671D01*
X134470602Y-68434668D01*
X134490348Y-68310000D01*
X133252709Y-68310000D01*
X133264452Y-68289661D01*
X133305000Y-68138333D01*
X133305000Y-67981667D01*
X133264452Y-67830339D01*
X133252709Y-67810000D01*
X134490348Y-67810000D01*
X134470602Y-67685331D01*
X134470602Y-67685328D01*
X134392780Y-67445815D01*
X134278442Y-67221416D01*
X134130409Y-67017668D01*
X134130409Y-67017667D01*
X133952332Y-66839590D01*
X133748583Y-66691557D01*
X133524184Y-66577219D01*
X133284669Y-66499397D01*
X133035928Y-66460000D01*
X132960000Y-66460000D01*
X132960000Y-67517290D01*
X132939661Y-67505548D01*
X132788333Y-67465000D01*
X132631667Y-67465000D01*
X132480339Y-67505548D01*
X132460000Y-67517290D01*
X132460000Y-66460000D01*
X132384072Y-66460000D01*
X132135330Y-66499397D01*
X131895815Y-66577219D01*
X131671416Y-66691557D01*
X131467668Y-66839590D01*
X131467667Y-66839590D01*
X131289590Y-67017667D01*
X131289590Y-67017668D01*
X131141557Y-67221416D01*
X131027219Y-67445815D01*
X130949397Y-67685328D01*
X130949397Y-67685331D01*
X130929652Y-67810000D01*
X132167291Y-67810000D01*
X132155548Y-67830339D01*
X132115000Y-67981667D01*
X132115000Y-68138333D01*
X132155548Y-68289661D01*
X132167291Y-68310000D01*
X130929652Y-68310000D01*
X130949397Y-68434668D01*
X130949397Y-68434671D01*
X131027219Y-68674184D01*
X131141557Y-68898583D01*
X131240117Y-69034238D01*
X131263597Y-69100044D01*
X131247772Y-69168098D01*
X131227480Y-69194805D01*
X131078066Y-69344218D01*
X131078060Y-69344225D01*
X130926400Y-69541873D01*
X130801837Y-69757623D01*
X130801830Y-69757638D01*
X130706498Y-69987792D01*
X130642017Y-70228438D01*
X130609501Y-70475424D01*
X130609500Y-70475441D01*
X75105018Y-70475441D01*
X75105018Y-64538711D01*
X76439500Y-64538711D01*
X76439500Y-64781288D01*
X76471161Y-65021785D01*
X76533947Y-65256104D01*
X76587795Y-65386104D01*
X76626776Y-65480212D01*
X76748064Y-65690289D01*
X76748066Y-65690292D01*
X76748067Y-65690293D01*
X76895733Y-65882736D01*
X76895739Y-65882743D01*
X77067256Y-66054260D01*
X77067262Y-66054265D01*
X77259711Y-66201936D01*
X77469788Y-66323224D01*
X77693900Y-66416054D01*
X77928211Y-66478838D01*
X78084375Y-66499397D01*
X78168711Y-66510500D01*
X78168712Y-66510500D01*
X78411289Y-66510500D01*
X78459388Y-66504167D01*
X78651789Y-66478838D01*
X78886100Y-66416054D01*
X79110212Y-66323224D01*
X79320289Y-66201936D01*
X79512738Y-66054265D01*
X79684265Y-65882738D01*
X79831936Y-65690289D01*
X79953224Y-65480212D01*
X80046054Y-65256100D01*
X80108838Y-65021789D01*
X80140500Y-64781288D01*
X80140500Y-64538712D01*
X80140500Y-64538711D01*
X91099500Y-64538711D01*
X91099500Y-64781288D01*
X91131161Y-65021785D01*
X91193947Y-65256104D01*
X91247795Y-65386104D01*
X91286776Y-65480212D01*
X91408064Y-65690289D01*
X91408066Y-65690292D01*
X91408067Y-65690293D01*
X91555733Y-65882736D01*
X91555739Y-65882743D01*
X91727256Y-66054260D01*
X91727262Y-66054265D01*
X91919711Y-66201936D01*
X92129788Y-66323224D01*
X92353900Y-66416054D01*
X92588211Y-66478838D01*
X92744375Y-66499397D01*
X92828711Y-66510500D01*
X92828712Y-66510500D01*
X93071289Y-66510500D01*
X93119388Y-66504167D01*
X93311789Y-66478838D01*
X93546100Y-66416054D01*
X93770212Y-66323224D01*
X93980289Y-66201936D01*
X94172738Y-66054265D01*
X94344265Y-65882738D01*
X94491936Y-65690289D01*
X94613224Y-65480212D01*
X94706054Y-65256100D01*
X94768838Y-65021789D01*
X94800500Y-64781288D01*
X94800500Y-64668711D01*
X121469500Y-64668711D01*
X121469500Y-64911288D01*
X121501161Y-65151785D01*
X121563947Y-65386104D01*
X121602925Y-65480205D01*
X121656776Y-65610212D01*
X121778064Y-65820289D01*
X121778066Y-65820292D01*
X121778067Y-65820293D01*
X121925733Y-66012736D01*
X121925739Y-66012743D01*
X122097256Y-66184260D01*
X122097262Y-66184265D01*
X122289711Y-66331936D01*
X122499788Y-66453224D01*
X122723900Y-66546054D01*
X122958211Y-66608838D01*
X123138586Y-66632584D01*
X123198711Y-66640500D01*
X123198712Y-66640500D01*
X123441289Y-66640500D01*
X123489388Y-66634167D01*
X123681789Y-66608838D01*
X123916100Y-66546054D01*
X124140212Y-66453224D01*
X124350289Y-66331936D01*
X124542738Y-66184265D01*
X124714265Y-66012738D01*
X124861936Y-65820289D01*
X124983224Y-65610212D01*
X125076054Y-65386100D01*
X125138838Y-65151789D01*
X125167777Y-64931973D01*
X139044500Y-64931973D01*
X139044500Y-67008010D01*
X139044501Y-67008029D01*
X139050687Y-67086643D01*
X139050688Y-67086645D01*
X139099680Y-67269488D01*
X139121783Y-67312868D01*
X139185614Y-67438146D01*
X139234859Y-67498958D01*
X139304743Y-67585257D01*
X139411311Y-67671554D01*
X139451853Y-67704385D01*
X139535371Y-67746938D01*
X139620512Y-67790320D01*
X139803355Y-67839312D01*
X139881979Y-67845500D01*
X141958020Y-67845499D01*
X142036645Y-67839312D01*
X142219488Y-67790320D01*
X142348008Y-67724835D01*
X142388146Y-67704385D01*
X142388147Y-67704383D01*
X142388149Y-67704383D01*
X142535257Y-67585257D01*
X142654383Y-67438149D01*
X142740320Y-67269488D01*
X142789312Y-67086645D01*
X142795500Y-67008021D01*
X142795499Y-64931980D01*
X142789312Y-64853355D01*
X142740320Y-64670512D01*
X142673165Y-64538712D01*
X142654385Y-64501853D01*
X142621554Y-64461311D01*
X142535257Y-64354743D01*
X142448958Y-64284859D01*
X142388146Y-64235614D01*
X142262868Y-64171783D01*
X142219488Y-64149680D01*
X142152562Y-64131747D01*
X142036643Y-64100687D01*
X141964736Y-64095028D01*
X141958021Y-64094500D01*
X141958020Y-64094500D01*
X139881989Y-64094500D01*
X139881970Y-64094501D01*
X139803356Y-64100687D01*
X139620512Y-64149680D01*
X139451853Y-64235614D01*
X139304743Y-64354743D01*
X139185614Y-64501853D01*
X139099680Y-64670512D01*
X139050687Y-64853356D01*
X139050687Y-64853357D01*
X139044500Y-64931973D01*
X125167777Y-64931973D01*
X125170500Y-64911288D01*
X125170500Y-64668712D01*
X125138838Y-64428211D01*
X125076054Y-64193900D01*
X124983224Y-63969788D01*
X124861936Y-63759711D01*
X124714265Y-63567262D01*
X124714260Y-63567256D01*
X124542743Y-63395739D01*
X124542736Y-63395733D01*
X124350293Y-63248067D01*
X124350292Y-63248066D01*
X124350289Y-63248064D01*
X124140212Y-63126776D01*
X124119187Y-63118067D01*
X123916104Y-63033947D01*
X123681785Y-62971161D01*
X123441289Y-62939500D01*
X123441288Y-62939500D01*
X123198712Y-62939500D01*
X123198711Y-62939500D01*
X122958214Y-62971161D01*
X122723895Y-63033947D01*
X122499794Y-63126773D01*
X122499785Y-63126777D01*
X122289706Y-63248067D01*
X122097263Y-63395733D01*
X122097256Y-63395739D01*
X121925739Y-63567256D01*
X121925733Y-63567263D01*
X121778067Y-63759706D01*
X121656777Y-63969785D01*
X121656773Y-63969794D01*
X121563947Y-64193895D01*
X121501161Y-64428214D01*
X121469500Y-64668711D01*
X94800500Y-64668711D01*
X94800500Y-64538712D01*
X94768838Y-64298211D01*
X94706054Y-64063900D01*
X94613224Y-63839788D01*
X94491936Y-63629711D01*
X94344265Y-63437262D01*
X94344260Y-63437256D01*
X94172743Y-63265739D01*
X94172736Y-63265733D01*
X93980293Y-63118067D01*
X93980292Y-63118066D01*
X93980289Y-63118064D01*
X93770212Y-62996776D01*
X93770205Y-62996773D01*
X93546104Y-62903947D01*
X93311785Y-62841161D01*
X93071289Y-62809500D01*
X93071288Y-62809500D01*
X92828712Y-62809500D01*
X92828711Y-62809500D01*
X92588214Y-62841161D01*
X92353895Y-62903947D01*
X92129794Y-62996773D01*
X92129785Y-62996777D01*
X91919706Y-63118067D01*
X91727263Y-63265733D01*
X91727256Y-63265739D01*
X91555739Y-63437256D01*
X91555733Y-63437263D01*
X91408067Y-63629706D01*
X91286777Y-63839785D01*
X91286773Y-63839794D01*
X91193947Y-64063895D01*
X91131161Y-64298214D01*
X91099500Y-64538711D01*
X80140500Y-64538711D01*
X80108838Y-64298211D01*
X80046054Y-64063900D01*
X79953224Y-63839788D01*
X79831936Y-63629711D01*
X79684265Y-63437262D01*
X79684260Y-63437256D01*
X79512743Y-63265739D01*
X79512736Y-63265733D01*
X79320293Y-63118067D01*
X79320292Y-63118066D01*
X79320289Y-63118064D01*
X79110212Y-62996776D01*
X79110205Y-62996773D01*
X78886104Y-62903947D01*
X78651785Y-62841161D01*
X78411289Y-62809500D01*
X78411288Y-62809500D01*
X78168712Y-62809500D01*
X78168711Y-62809500D01*
X77928214Y-62841161D01*
X77693895Y-62903947D01*
X77469794Y-62996773D01*
X77469785Y-62996777D01*
X77259706Y-63118067D01*
X77067263Y-63265733D01*
X77067256Y-63265739D01*
X76895739Y-63437256D01*
X76895733Y-63437263D01*
X76748067Y-63629706D01*
X76626777Y-63839785D01*
X76626773Y-63839794D01*
X76533947Y-64063895D01*
X76471161Y-64298214D01*
X76439500Y-64538711D01*
X75105018Y-64538711D01*
X75105018Y-61594406D01*
X75124703Y-61527367D01*
X75177507Y-61481612D01*
X75229074Y-61470406D01*
X141324247Y-61502868D01*
G37*
%TD.AperFunction*%
%TD*%
M02*
