M48
; DRILL file KiCad 10.0.4 date 2026-07-14T19:21:46
; FORMAT={-:-/ absolute / metric / decimal}
; #@! TF.CreationDate,2026-07-14T19:21:46-03:00
; #@! TF.GenerationSoftware,Kicad,Pcbnew,10.0.4
; #@! TF.FileFunction,Plated,1,2,PTH
FMAT,2
METRIC
; #@! TA.AperFunction,Plated,PTH,ViaDrill
T1C0.300
; #@! TA.AperFunction,Plated,PTH,ComponentDrill
T2C0.900
; #@! TA.AperFunction,Plated,PTH,ComponentDrill
T3C1.000
; #@! TA.AperFunction,Plated,PTH,ComponentDrill
T4C1.100
; #@! TA.AperFunction,Plated,PTH,ComponentDrill
T5C1.190
%
G90
G05
T1
X106.0Y-110.213
X109.49Y-92.433
X109.5Y-100.0
X109.538Y-97.462
X136.0Y-94.0
X136.038Y-91.462
T2
X120.415Y-134.81
X122.955Y-134.81
T3
X113.101Y-92.433
X113.101Y-94.973
X113.101Y-97.513
X113.101Y-100.053
X113.101Y-102.593
X113.101Y-105.133
X113.101Y-107.673
X113.101Y-110.213
X118.181Y-93.703
X118.181Y-96.243
X118.181Y-98.783
X118.181Y-101.323
X118.181Y-103.863
X118.181Y-106.403
X118.181Y-108.943
X133.145Y-81.302
X133.145Y-83.842
X133.145Y-86.382
X133.145Y-88.922
X133.145Y-91.462
X133.145Y-94.002
X133.145Y-96.542
X133.145Y-99.082
X133.145Y-101.622
X133.145Y-104.162
X133.145Y-106.702
X133.145Y-109.242
X133.145Y-111.782
X133.145Y-114.322
X133.145Y-116.862
X148.385Y-81.302
X148.385Y-83.842
X148.385Y-86.382
X148.385Y-88.922
X148.385Y-91.462
X148.385Y-94.002
X148.385Y-96.542
X148.385Y-99.082
X148.385Y-101.622
X148.385Y-104.162
X148.385Y-106.702
X148.385Y-109.242
X148.385Y-111.782
X148.385Y-114.322
X148.385Y-116.862
X210.57Y-91.54
X210.57Y-94.08
X210.57Y-96.62
X210.57Y-99.16
X210.57Y-101.7
X210.57Y-104.24
X210.57Y-106.78
X210.57Y-109.32
T4
X87.99Y-85.02
X90.53Y-85.02
X93.07Y-85.02
X93.13Y-105.77
X95.67Y-105.77
X98.21Y-105.77
X104.74Y-78.73
X104.74Y-86.35
X104.74Y-116.95
X104.74Y-124.57
X110.37Y-78.66
X110.37Y-86.28
X110.37Y-116.95
X110.37Y-124.57
X122.62Y-78.66
X122.62Y-86.28
X122.62Y-116.81
X122.62Y-124.43
X128.34Y-78.72
X128.34Y-86.34
X128.34Y-116.93
X128.34Y-124.55
X139.01Y-126.91
X139.01Y-133.41
X143.51Y-126.91
X143.51Y-133.41
T5
X88.0Y-97.18
X90.54Y-97.18
X115.41Y-86.29
X115.455Y-116.91
X117.95Y-86.29
X117.995Y-116.91
M30
