M48
; DRILL file KiCad 10.0.4 date 2026-07-16T20:56:53
; FORMAT={-:-/ absolute / metric / decimal}
; #@! TF.CreationDate,2026-07-16T20:56:53-03:00
; #@! TF.GenerationSoftware,Kicad,Pcbnew,10.0.4
; #@! TF.FileFunction,Plated,1,2,PTH
FMAT,2
METRIC
; #@! TA.AperFunction,Plated,PTH,ComponentDrill
T1C0.200
; #@! TA.AperFunction,Plated,PTH,ViaDrill
T2C0.300
; #@! TA.AperFunction,Plated,PTH,ComponentDrill
T3C0.800
; #@! TA.AperFunction,Plated,PTH,ComponentDrill
T4C0.900
; #@! TA.AperFunction,Plated,PTH,ComponentDrill
T5C1.000
; #@! TA.AperFunction,Plated,PTH,ComponentDrill
T6C1.100
; #@! TA.AperFunction,Plated,PTH,ComponentDrill
T7C1.150
; #@! TA.AperFunction,Plated,PTH,ComponentDrill
T8C1.190
%
G90
G05
T1
X140.92Y-65.97
T2
X100.87Y-100.48
X100.9Y-97.9
X136.117Y-93.681
X136.36Y-96.47
X153.54Y-88.91
X154.62Y-106.75
T3
X92.08Y-110.63
X92.78Y-92.96
X102.24Y-110.63
X102.94Y-92.96
T4
X126.015Y-85.23
X128.555Y-85.23
T5
X106.2Y-92.86
X106.2Y-95.4
X106.2Y-97.94
X106.2Y-100.48
X106.2Y-103.02
X106.2Y-105.56
X106.2Y-108.1
X106.2Y-110.64
X111.28Y-94.13
X111.28Y-96.67
X111.28Y-99.21
X111.28Y-101.75
X111.28Y-104.29
X111.28Y-106.83
X111.28Y-109.37
X131.33Y-129.95
X133.145Y-81.302
X133.145Y-83.842
X133.145Y-86.382
X133.145Y-88.922
X133.145Y-91.462
X133.145Y-94.002
X133.145Y-96.542
X133.145Y-99.082
X133.145Y-101.622
X133.145Y-104.162
X133.145Y-106.702
X133.145Y-109.242
X133.145Y-111.782
X133.145Y-114.322
X133.145Y-116.862
X133.87Y-129.95
X136.41Y-129.95
X138.95Y-129.95
X141.49Y-129.95
X144.03Y-129.95
X148.385Y-81.302
X148.385Y-83.842
X148.385Y-86.382
X148.385Y-88.922
X148.385Y-91.462
X148.385Y-94.002
X148.385Y-96.542
X148.385Y-99.082
X148.385Y-101.622
X148.385Y-104.162
X148.385Y-106.702
X148.385Y-109.242
X148.385Y-111.782
X148.385Y-114.322
X148.385Y-116.862
X210.57Y-91.54
X210.57Y-94.08
X210.57Y-96.62
X210.57Y-99.16
X210.57Y-101.7
X210.57Y-104.24
X210.57Y-106.78
X210.57Y-109.32
T6
X96.04Y-78.98
X96.04Y-86.6
X96.04Y-117.56
X96.04Y-125.18
X100.27Y-117.6
X100.27Y-125.22
X100.28Y-78.98
X100.28Y-86.6
X111.3Y-79.01
X111.3Y-86.63
X111.38Y-117.64
X111.38Y-125.26
X115.24Y-117.64
X115.24Y-125.26
X115.26Y-79.01
X115.26Y-86.63
X119.71Y-96.64
X122.25Y-96.64
X122.49Y-112.97
X122.49Y-119.47
X124.79Y-96.64
X126.99Y-112.97
X126.99Y-119.47
T7
X140.92Y-70.57
X140.92Y-75.17
T8
X104.7Y-117.64
X104.71Y-86.6
X107.24Y-117.64
X107.25Y-86.6
X132.71Y-68.06
X132.71Y-70.6
M30
